<mxfile host="app.diagrams.net" agent="Mozilla/5.0 (Macintosh; Intel Mac OS X 10_15_7) AppleWebKit/537.36 (KHTML, like Gecko) Chrome/129.0.0.0 Safari/537.36" version="24.7.17">
  <diagram name="Page-1" id="uGqTPls5vcFYdoBSUWQA">
    <mxGraphModel dx="2570" dy="754" grid="1" gridSize="10" guides="1" tooltips="1" connect="1" arrows="1" fold="1" page="1" pageScale="1" pageWidth="850" pageHeight="1100" math="0" shadow="0">
      <root>
        <mxCell id="0" />
        <mxCell id="1" parent="0" />
        <mxCell id="NAz6f2yrbp-KyvQjCLRv-7" value="" style="rounded=1;whiteSpace=wrap;html=1;" vertex="1" parent="1">
          <mxGeometry x="180" y="600" width="740" height="250" as="geometry" />
        </mxCell>
        <mxCell id="-Ki9CwcrcDcazu1pOUVY-1" value="&lt;h1 style=&quot;margin-top: 0px;&quot;&gt;Assumptions&lt;/h1&gt;&lt;p&gt;- we use third-party payment processors&lt;/p&gt;&lt;p&gt;- we don&#39;t store credit card info. We rely on the 3rd party for compliance&lt;/p&gt;&lt;p&gt;- system interacts with internal services (accounting, analytics, ect) and external services (payment service providers)&lt;br&gt;&lt;/p&gt;&lt;p&gt;- we may see in consistent states among services due to failures, so we need to have a reconciliation and fix any consistencies&amp;nbsp;&lt;/p&gt;&lt;p&gt;&lt;b style=&quot;background-color: initial;&quot;&gt;Reliability and fault tolerance&lt;/b&gt;&lt;span style=&quot;background-color: initial;&quot;&gt;. Failed payments need to be carefully handled.&amp;nbsp;&lt;/span&gt;&lt;/p&gt;&lt;p&gt;&lt;span style=&quot;background-color: initial;&quot;&gt;&lt;b&gt;A reconciliation process&lt;/b&gt; between internal services (payment systems, accounting systems) and external services (payment service providers) is required. The process asynchronously verifies that the payment information across these systems is consistent.&lt;/span&gt;&lt;br&gt;&lt;/p&gt;&lt;p&gt;&lt;br&gt;&lt;/p&gt;" style="text;html=1;whiteSpace=wrap;overflow=hidden;rounded=0;" parent="1" vertex="1">
          <mxGeometry x="-180" y="290" width="330" height="220" as="geometry" />
        </mxCell>
        <mxCell id="-Ki9CwcrcDcazu1pOUVY-2" value="&lt;h1 style=&quot;margin-top: 0px;&quot;&gt;&lt;span style=&quot;background-color: initial;&quot;&gt;Calculations&lt;/span&gt;&lt;/h1&gt;&lt;div&gt;&lt;span style=&quot;background-color: initial;&quot;&gt;-= 1 millon transactin per day&lt;/span&gt;&lt;/div&gt;&lt;div&gt;&lt;span style=&quot;background-color: initial;&quot;&gt;- 10 transaction per second&lt;/span&gt;&lt;/div&gt;" style="text;html=1;whiteSpace=wrap;overflow=hidden;rounded=0;" parent="1" vertex="1">
          <mxGeometry x="-190" y="190" width="330" height="90" as="geometry" />
        </mxCell>
        <mxCell id="-Ki9CwcrcDcazu1pOUVY-3" value="&lt;h1 style=&quot;margin-top: 0px;&quot;&gt;&lt;span style=&quot;background-color: initial;&quot;&gt;Use Cases:&lt;/span&gt;&lt;/h1&gt;&lt;h1 style=&quot;margin-top: 0px;&quot;&gt;&lt;b style=&quot;background-color: initial; font-size: 12px;&quot;&gt;Pay-in flow&lt;/b&gt;&lt;span style=&quot;background-color: initial; font-size: 12px; font-weight: normal;&quot;&gt;: payment system receives money from customers on behalf of sellers.&amp;nbsp;&lt;/span&gt;&lt;br&gt;&lt;/h1&gt;&lt;div&gt;&lt;span style=&quot;background-color: initial;&quot;&gt;&lt;b&gt;Pay-out flow&lt;/b&gt;: payment system sends money to sellers around the world&lt;br&gt;&lt;/span&gt;&lt;/div&gt;&lt;div&gt;&lt;span style=&quot;background-color: initial;&quot;&gt;&lt;br&gt;&lt;/span&gt;&lt;/div&gt;&lt;div&gt;&lt;br&gt;&lt;/div&gt;&lt;div&gt;&lt;br&gt;&lt;/div&gt;" style="text;html=1;whiteSpace=wrap;overflow=hidden;rounded=0;" parent="1" vertex="1">
          <mxGeometry x="-190" y="10" width="330" height="170" as="geometry" />
        </mxCell>
        <mxCell id="-Ki9CwcrcDcazu1pOUVY-4" value="&lt;a href=&quot;https://newsletter.pragmaticengineer.com/p/designing-a-payment-system&quot;&gt;Link&lt;/a&gt;" style="text;html=1;align=center;verticalAlign=middle;whiteSpace=wrap;rounded=0;" parent="1" vertex="1">
          <mxGeometry x="380" y="10" width="60" height="30" as="geometry" />
        </mxCell>
        <mxCell id="MMkp8MGaGA8Znx8kGhYu-1" style="edgeStyle=orthogonalEdgeStyle;rounded=0;orthogonalLoop=1;jettySize=auto;html=1;entryX=0;entryY=0.25;entryDx=0;entryDy=0;" parent="1" source="-Ki9CwcrcDcazu1pOUVY-5" target="-Ki9CwcrcDcazu1pOUVY-6" edge="1">
          <mxGeometry relative="1" as="geometry" />
        </mxCell>
        <mxCell id="-Ki9CwcrcDcazu1pOUVY-5" value="Buyer&lt;div&gt;&lt;br&gt;&lt;/div&gt;" style="shape=umlActor;verticalLabelPosition=bottom;verticalAlign=top;html=1;outlineConnect=0;" parent="1" vertex="1">
          <mxGeometry x="155" y="120" width="30" height="60" as="geometry" />
        </mxCell>
        <mxCell id="YyBgfwjohYvRCKFEixaT-1" style="edgeStyle=orthogonalEdgeStyle;rounded=0;orthogonalLoop=1;jettySize=auto;html=1;entryX=0;entryY=0.5;entryDx=0;entryDy=0;" parent="1" source="-Ki9CwcrcDcazu1pOUVY-6" target="-Ki9CwcrcDcazu1pOUVY-9" edge="1">
          <mxGeometry relative="1" as="geometry" />
        </mxCell>
        <mxCell id="YyBgfwjohYvRCKFEixaT-2" value="Pay-In" style="edgeLabel;html=1;align=center;verticalAlign=middle;resizable=0;points=[];" parent="YyBgfwjohYvRCKFEixaT-1" connectable="0" vertex="1">
          <mxGeometry x="0.075" y="-1" relative="1" as="geometry">
            <mxPoint as="offset" />
          </mxGeometry>
        </mxCell>
        <mxCell id="-Ki9CwcrcDcazu1pOUVY-6" value="Credit Card" style="rounded=1;whiteSpace=wrap;html=1;" parent="1" vertex="1">
          <mxGeometry x="250" y="130" width="120" height="60" as="geometry" />
        </mxCell>
        <mxCell id="-Ki9CwcrcDcazu1pOUVY-8" value="Bank Account" style="rounded=1;whiteSpace=wrap;html=1;fontStyle=0" parent="1" vertex="1">
          <mxGeometry x="690" y="130" width="120" height="60" as="geometry" />
        </mxCell>
        <mxCell id="YyBgfwjohYvRCKFEixaT-3" style="edgeStyle=orthogonalEdgeStyle;rounded=0;orthogonalLoop=1;jettySize=auto;html=1;entryX=0;entryY=0.5;entryDx=0;entryDy=0;" parent="1" source="-Ki9CwcrcDcazu1pOUVY-9" target="-Ki9CwcrcDcazu1pOUVY-8" edge="1">
          <mxGeometry relative="1" as="geometry" />
        </mxCell>
        <mxCell id="YyBgfwjohYvRCKFEixaT-4" value="Pay-Out" style="edgeLabel;html=1;align=center;verticalAlign=middle;resizable=0;points=[];" parent="YyBgfwjohYvRCKFEixaT-3" connectable="0" vertex="1">
          <mxGeometry x="-0.0833" y="-1" relative="1" as="geometry">
            <mxPoint as="offset" />
          </mxGeometry>
        </mxCell>
        <mxCell id="-Ki9CwcrcDcazu1pOUVY-9" value="Bank Account" style="rounded=1;whiteSpace=wrap;html=1;fontStyle=0" parent="1" vertex="1">
          <mxGeometry x="450" y="130" width="120" height="60" as="geometry" />
        </mxCell>
        <mxCell id="-Ki9CwcrcDcazu1pOUVY-14" value="Amazon.com" style="text;html=1;align=center;verticalAlign=middle;whiteSpace=wrap;rounded=0;fontStyle=1" parent="1" vertex="1">
          <mxGeometry x="470" y="80" width="60" height="30" as="geometry" />
        </mxCell>
        <mxCell id="-Ki9CwcrcDcazu1pOUVY-15" value="Seller" style="text;html=1;align=center;verticalAlign=middle;whiteSpace=wrap;rounded=0;fontStyle=1" parent="1" vertex="1">
          <mxGeometry x="700" y="80" width="60" height="30" as="geometry" />
        </mxCell>
        <mxCell id="-Ki9CwcrcDcazu1pOUVY-20" value="Pay-in" style="text;html=1;align=center;verticalAlign=middle;whiteSpace=wrap;rounded=0;fontStyle=1" parent="1" vertex="1">
          <mxGeometry x="210" y="270" width="60" height="30" as="geometry" />
        </mxCell>
        <mxCell id="-Ki9CwcrcDcazu1pOUVY-23" style="edgeStyle=orthogonalEdgeStyle;rounded=0;orthogonalLoop=1;jettySize=auto;html=1;entryX=0.5;entryY=0;entryDx=0;entryDy=0;" parent="1" source="-Ki9CwcrcDcazu1pOUVY-21" target="-Ki9CwcrcDcazu1pOUVY-22" edge="1">
          <mxGeometry relative="1" as="geometry" />
        </mxCell>
        <mxCell id="-Ki9CwcrcDcazu1pOUVY-26" style="edgeStyle=orthogonalEdgeStyle;rounded=0;orthogonalLoop=1;jettySize=auto;html=1;entryX=0;entryY=0.5;entryDx=0;entryDy=0;" parent="1" source="-Ki9CwcrcDcazu1pOUVY-21" target="-Ki9CwcrcDcazu1pOUVY-25" edge="1">
          <mxGeometry relative="1" as="geometry" />
        </mxCell>
        <mxCell id="-Ki9CwcrcDcazu1pOUVY-27" style="edgeStyle=orthogonalEdgeStyle;rounded=0;orthogonalLoop=1;jettySize=auto;html=1;entryX=0;entryY=0.5;entryDx=0;entryDy=0;" parent="1" source="-Ki9CwcrcDcazu1pOUVY-21" target="-Ki9CwcrcDcazu1pOUVY-24" edge="1">
          <mxGeometry relative="1" as="geometry" />
        </mxCell>
        <mxCell id="-Ki9CwcrcDcazu1pOUVY-21" value="Buyer&lt;div&gt;&lt;br&gt;&lt;/div&gt;" style="shape=umlActor;verticalLabelPosition=bottom;verticalAlign=top;html=1;outlineConnect=0;" parent="1" vertex="1">
          <mxGeometry x="440" y="270" width="30" height="60" as="geometry" />
        </mxCell>
        <mxCell id="-Ki9CwcrcDcazu1pOUVY-29" style="edgeStyle=orthogonalEdgeStyle;rounded=0;orthogonalLoop=1;jettySize=auto;html=1;entryX=0.5;entryY=0;entryDx=0;entryDy=0;" parent="1" source="-Ki9CwcrcDcazu1pOUVY-22" target="-Ki9CwcrcDcazu1pOUVY-28" edge="1">
          <mxGeometry relative="1" as="geometry" />
        </mxCell>
        <mxCell id="-Ki9CwcrcDcazu1pOUVY-22" value="LB" style="rounded=1;whiteSpace=wrap;html=1;" parent="1" vertex="1">
          <mxGeometry x="400" y="400" width="110" height="30" as="geometry" />
        </mxCell>
        <mxCell id="-Ki9CwcrcDcazu1pOUVY-24" value="CDN" style="rounded=1;whiteSpace=wrap;html=1;" parent="1" vertex="1">
          <mxGeometry x="550" y="340" width="110" height="30" as="geometry" />
        </mxCell>
        <mxCell id="-Ki9CwcrcDcazu1pOUVY-25" value="DNS" style="rounded=1;whiteSpace=wrap;html=1;" parent="1" vertex="1">
          <mxGeometry x="550" y="290" width="110" height="30" as="geometry" />
        </mxCell>
        <mxCell id="-Ki9CwcrcDcazu1pOUVY-34" style="edgeStyle=orthogonalEdgeStyle;rounded=0;orthogonalLoop=1;jettySize=auto;html=1;" parent="1" source="-Ki9CwcrcDcazu1pOUVY-28" target="-Ki9CwcrcDcazu1pOUVY-33" edge="1">
          <mxGeometry relative="1" as="geometry" />
        </mxCell>
        <mxCell id="-Ki9CwcrcDcazu1pOUVY-28" value="Webserver" style="rounded=1;whiteSpace=wrap;html=1;" parent="1" vertex="1">
          <mxGeometry x="400" y="480" width="110" height="30" as="geometry" />
        </mxCell>
        <mxCell id="-Ki9CwcrcDcazu1pOUVY-41" style="edgeStyle=orthogonalEdgeStyle;rounded=0;orthogonalLoop=1;jettySize=auto;html=1;entryX=1;entryY=0.5;entryDx=0;entryDy=0;" parent="1" source="-Ki9CwcrcDcazu1pOUVY-32" target="-Ki9CwcrcDcazu1pOUVY-40" edge="1">
          <mxGeometry relative="1" as="geometry" />
        </mxCell>
        <mxCell id="-Ki9CwcrcDcazu1pOUVY-32" value="Payment transaction event" style="shape=process;whiteSpace=wrap;html=1;backgroundOutline=1;" parent="1" vertex="1">
          <mxGeometry x="210" y="690" width="120" height="60" as="geometry" />
        </mxCell>
        <mxCell id="-Ki9CwcrcDcazu1pOUVY-35" style="edgeStyle=orthogonalEdgeStyle;rounded=0;orthogonalLoop=1;jettySize=auto;html=1;entryX=1;entryY=0.5;entryDx=0;entryDy=0;" parent="1" source="-Ki9CwcrcDcazu1pOUVY-33" target="-Ki9CwcrcDcazu1pOUVY-32" edge="1">
          <mxGeometry relative="1" as="geometry" />
        </mxCell>
        <mxCell id="-Ki9CwcrcDcazu1pOUVY-33" value="Payment Service" style="rounded=1;whiteSpace=wrap;html=1;fontStyle=0" parent="1" vertex="1">
          <mxGeometry x="440" y="570" width="120" height="60" as="geometry" />
        </mxCell>
        <mxCell id="-Ki9CwcrcDcazu1pOUVY-36" value="&lt;b&gt;transaction payment order status:&lt;br&gt;&lt;/b&gt;- New&lt;br&gt;-FraudCleared / FraudDetected&lt;br&gt;- Sent-forPayment&lt;br&gt;- Paid/UnPaid&lt;br&gt;- Notified" style="text;html=1;align=left;verticalAlign=middle;whiteSpace=wrap;rounded=0;" parent="1" vertex="1">
          <mxGeometry x="10" y="560" width="130" height="120" as="geometry" />
        </mxCell>
        <mxCell id="-Ki9CwcrcDcazu1pOUVY-39" style="edgeStyle=orthogonalEdgeStyle;rounded=0;orthogonalLoop=1;jettySize=auto;html=1;entryX=0.408;entryY=0.042;entryDx=0;entryDy=0;entryPerimeter=0;" parent="1" source="-Ki9CwcrcDcazu1pOUVY-33" target="dV_AB-seOL8tdD8_W4cZ-37" edge="1">
          <mxGeometry relative="1" as="geometry">
            <mxPoint x="-260" y="735" as="targetPoint" />
            <Array as="points">
              <mxPoint x="-260" y="600" />
            </Array>
          </mxGeometry>
        </mxCell>
        <mxCell id="-Ki9CwcrcDcazu1pOUVY-45" style="edgeStyle=orthogonalEdgeStyle;rounded=0;orthogonalLoop=1;jettySize=auto;html=1;entryX=0;entryY=0.5;entryDx=0;entryDy=0;" parent="1" source="-Ki9CwcrcDcazu1pOUVY-40" target="-Ki9CwcrcDcazu1pOUVY-44" edge="1">
          <mxGeometry relative="1" as="geometry">
            <Array as="points">
              <mxPoint x="60" y="815" />
            </Array>
          </mxGeometry>
        </mxCell>
        <mxCell id="-Ki9CwcrcDcazu1pOUVY-40" value="FraudDetection Service" style="rounded=1;whiteSpace=wrap;html=1;fontStyle=0" parent="1" vertex="1">
          <mxGeometry y="690" width="120" height="60" as="geometry" />
        </mxCell>
        <mxCell id="-Ki9CwcrcDcazu1pOUVY-44" value="ReadyPaymentOrderEvent" style="shape=process;whiteSpace=wrap;html=1;backgroundOutline=1;" parent="1" vertex="1">
          <mxGeometry x="200" y="790" width="200" height="50" as="geometry" />
        </mxCell>
        <mxCell id="-Ki9CwcrcDcazu1pOUVY-47" style="edgeStyle=orthogonalEdgeStyle;rounded=0;orthogonalLoop=1;jettySize=auto;html=1;entryX=1;entryY=0.5;entryDx=0;entryDy=0;" parent="1" source="-Ki9CwcrcDcazu1pOUVY-46" target="-Ki9CwcrcDcazu1pOUVY-44" edge="1">
          <mxGeometry relative="1" as="geometry" />
        </mxCell>
        <mxCell id="-Ki9CwcrcDcazu1pOUVY-52" style="edgeStyle=orthogonalEdgeStyle;rounded=0;orthogonalLoop=1;jettySize=auto;html=1;entryX=0;entryY=0.5;entryDx=0;entryDy=0;" parent="1" source="-Ki9CwcrcDcazu1pOUVY-61" target="-Ki9CwcrcDcazu1pOUVY-49" edge="1">
          <mxGeometry relative="1" as="geometry">
            <Array as="points">
              <mxPoint x="1083" y="775" />
              <mxPoint x="1083" y="830" />
            </Array>
          </mxGeometry>
        </mxCell>
        <mxCell id="-Ki9CwcrcDcazu1pOUVY-46" value="PaymentExecutor" style="rounded=1;whiteSpace=wrap;html=1;fontStyle=0" parent="1" vertex="1">
          <mxGeometry x="560" y="745" width="120" height="60" as="geometry" />
        </mxCell>
        <mxCell id="-Ki9CwcrcDcazu1pOUVY-48" value="" style="endArrow=none;dashed=1;html=1;dashPattern=1 3;strokeWidth=2;rounded=0;" parent="1" edge="1">
          <mxGeometry width="50" height="50" relative="1" as="geometry">
            <mxPoint x="730" y="940" as="sourcePoint" />
            <mxPoint x="730" y="500" as="targetPoint" />
          </mxGeometry>
        </mxCell>
        <mxCell id="-Ki9CwcrcDcazu1pOUVY-55" style="edgeStyle=orthogonalEdgeStyle;rounded=0;orthogonalLoop=1;jettySize=auto;html=1;entryX=1;entryY=0.5;entryDx=0;entryDy=0;" parent="1" source="-Ki9CwcrcDcazu1pOUVY-49" target="-Ki9CwcrcDcazu1pOUVY-53" edge="1">
          <mxGeometry relative="1" as="geometry">
            <mxPoint x="770" y="910" as="targetPoint" />
            <Array as="points">
              <mxPoint x="1335" y="910" />
              <mxPoint x="980" y="910" />
              <mxPoint x="980" y="907" />
            </Array>
          </mxGeometry>
        </mxCell>
        <mxCell id="-Ki9CwcrcDcazu1pOUVY-111" style="edgeStyle=orthogonalEdgeStyle;rounded=0;orthogonalLoop=1;jettySize=auto;html=1;" parent="1" source="-Ki9CwcrcDcazu1pOUVY-49" target="-Ki9CwcrcDcazu1pOUVY-110" edge="1">
          <mxGeometry relative="1" as="geometry" />
        </mxCell>
        <mxCell id="-Ki9CwcrcDcazu1pOUVY-49" value="PSP (Payment Service Provider)" style="rounded=1;whiteSpace=wrap;html=1;fontStyle=0" parent="1" vertex="1">
          <mxGeometry x="1275" y="800" width="120" height="60" as="geometry" />
        </mxCell>
        <mxCell id="-Ki9CwcrcDcazu1pOUVY-69" style="edgeStyle=orthogonalEdgeStyle;rounded=0;orthogonalLoop=1;jettySize=auto;html=1;" parent="1" source="-Ki9CwcrcDcazu1pOUVY-53" target="-Ki9CwcrcDcazu1pOUVY-68" edge="1">
          <mxGeometry relative="1" as="geometry" />
        </mxCell>
        <mxCell id="-Ki9CwcrcDcazu1pOUVY-53" value="paymentEvnentExcuted" style="shape=process;whiteSpace=wrap;html=1;backgroundOutline=1;" parent="1" vertex="1">
          <mxGeometry x="545" y="887.5" width="170" height="45" as="geometry" />
        </mxCell>
        <mxCell id="-Ki9CwcrcDcazu1pOUVY-59" value="Sometimes, a single payment event may contain several payment orders. For example, you may select products from multiple sellers in a single checkout process. If the e-commerce website splits the checkout into multiple payment orders, the payment service calls the payment executor for each payment order" style="shape=callout;whiteSpace=wrap;html=1;perimeter=calloutPerimeter;" parent="1" vertex="1">
          <mxGeometry x="705" y="380" width="370" height="140" as="geometry" />
        </mxCell>
        <mxCell id="-Ki9CwcrcDcazu1pOUVY-62" value="" style="edgeStyle=orthogonalEdgeStyle;rounded=0;orthogonalLoop=1;jettySize=auto;html=1;entryX=0;entryY=0.5;entryDx=0;entryDy=0;" parent="1" source="-Ki9CwcrcDcazu1pOUVY-46" target="-Ki9CwcrcDcazu1pOUVY-61" edge="1">
          <mxGeometry relative="1" as="geometry">
            <mxPoint x="680" y="680" as="sourcePoint" />
            <mxPoint x="830" y="680" as="targetPoint" />
          </mxGeometry>
        </mxCell>
        <mxCell id="-Ki9CwcrcDcazu1pOUVY-61" value="PSP_payment_events" style="shape=process;whiteSpace=wrap;html=1;backgroundOutline=1;" parent="1" vertex="1">
          <mxGeometry x="740" y="750" width="150" height="50" as="geometry" />
        </mxCell>
        <mxCell id="-Ki9CwcrcDcazu1pOUVY-63" value="Store Payment Event in DB" style="text;html=1;align=center;verticalAlign=middle;whiteSpace=wrap;rounded=0;" parent="1" vertex="1">
          <mxGeometry x="520" y="540" width="90" height="30" as="geometry" />
        </mxCell>
        <mxCell id="-Ki9CwcrcDcazu1pOUVY-65" value="First Store order in DB then create new event then remove from old Topic" style="text;html=1;align=center;verticalAlign=middle;whiteSpace=wrap;rounded=0;" parent="1" vertex="1">
          <mxGeometry x="460" y="715" width="140" height="30" as="geometry" />
        </mxCell>
        <mxCell id="-Ki9CwcrcDcazu1pOUVY-107" style="edgeStyle=orthogonalEdgeStyle;rounded=0;orthogonalLoop=1;jettySize=auto;html=1;" parent="1" source="-Ki9CwcrcDcazu1pOUVY-68" target="-Ki9CwcrcDcazu1pOUVY-105" edge="1">
          <mxGeometry relative="1" as="geometry" />
        </mxCell>
        <mxCell id="-Ki9CwcrcDcazu1pOUVY-68" value="&lt;span style=&quot;font-weight: normal;&quot;&gt;Wallet Service&lt;/span&gt;" style="rounded=1;whiteSpace=wrap;html=1;fontStyle=1" parent="1" vertex="1">
          <mxGeometry x="200" y="880" width="125" height="60" as="geometry" />
        </mxCell>
        <mxCell id="-Ki9CwcrcDcazu1pOUVY-80" style="edgeStyle=orthogonalEdgeStyle;rounded=0;orthogonalLoop=1;jettySize=auto;html=1;entryX=0;entryY=0.5;entryDx=0;entryDy=0;" parent="1" source="-Ki9CwcrcDcazu1pOUVY-71" target="-Ki9CwcrcDcazu1pOUVY-78" edge="1">
          <mxGeometry relative="1" as="geometry" />
        </mxCell>
        <mxCell id="-Ki9CwcrcDcazu1pOUVY-81" style="edgeStyle=orthogonalEdgeStyle;rounded=0;orthogonalLoop=1;jettySize=auto;html=1;entryX=0;entryY=0.5;entryDx=0;entryDy=0;" parent="1" source="-Ki9CwcrcDcazu1pOUVY-71" target="-Ki9CwcrcDcazu1pOUVY-77" edge="1">
          <mxGeometry relative="1" as="geometry" />
        </mxCell>
        <mxCell id="-Ki9CwcrcDcazu1pOUVY-82" style="edgeStyle=orthogonalEdgeStyle;rounded=0;orthogonalLoop=1;jettySize=auto;html=1;entryX=0;entryY=0.5;entryDx=0;entryDy=0;" parent="1" source="-Ki9CwcrcDcazu1pOUVY-71" target="-Ki9CwcrcDcazu1pOUVY-79" edge="1">
          <mxGeometry relative="1" as="geometry" />
        </mxCell>
        <mxCell id="-Ki9CwcrcDcazu1pOUVY-71" value="&lt;span style=&quot;font-weight: normal;&quot;&gt;Notification Service&lt;/span&gt;" style="rounded=1;whiteSpace=wrap;html=1;fontStyle=1" parent="1" vertex="1">
          <mxGeometry x="545" y="1005" width="120" height="60" as="geometry" />
        </mxCell>
        <mxCell id="-Ki9CwcrcDcazu1pOUVY-75" style="edgeStyle=orthogonalEdgeStyle;rounded=0;orthogonalLoop=1;jettySize=auto;html=1;" parent="1" source="-Ki9CwcrcDcazu1pOUVY-74" target="-Ki9CwcrcDcazu1pOUVY-71" edge="1">
          <mxGeometry relative="1" as="geometry" />
        </mxCell>
        <mxCell id="-Ki9CwcrcDcazu1pOUVY-74" value="NotificationEvent" style="shape=process;whiteSpace=wrap;html=1;backgroundOutline=1;" parent="1" vertex="1">
          <mxGeometry x="260" y="1010" width="200" height="50" as="geometry" />
        </mxCell>
        <mxCell id="-Ki9CwcrcDcazu1pOUVY-76" style="edgeStyle=orthogonalEdgeStyle;rounded=0;orthogonalLoop=1;jettySize=auto;html=1;entryX=0.425;entryY=-0.04;entryDx=0;entryDy=0;entryPerimeter=0;" parent="1" source="-Ki9CwcrcDcazu1pOUVY-68" target="-Ki9CwcrcDcazu1pOUVY-74" edge="1">
          <mxGeometry relative="1" as="geometry" />
        </mxCell>
        <mxCell id="-Ki9CwcrcDcazu1pOUVY-77" value="&lt;span style=&quot;font-weight: normal;&quot;&gt;APP&lt;/span&gt;" style="rounded=1;whiteSpace=wrap;html=1;fontStyle=1" parent="1" vertex="1">
          <mxGeometry x="835" y="1005" width="55" height="30" as="geometry" />
        </mxCell>
        <mxCell id="-Ki9CwcrcDcazu1pOUVY-78" value="&lt;span style=&quot;font-weight: normal;&quot;&gt;SMS&lt;/span&gt;" style="rounded=1;whiteSpace=wrap;html=1;fontStyle=1" parent="1" vertex="1">
          <mxGeometry x="835" y="935" width="55" height="40" as="geometry" />
        </mxCell>
        <mxCell id="-Ki9CwcrcDcazu1pOUVY-79" value="&lt;span style=&quot;font-weight: normal;&quot;&gt;Email&lt;/span&gt;" style="rounded=1;whiteSpace=wrap;html=1;fontStyle=1" parent="1" vertex="1">
          <mxGeometry x="835" y="1060" width="55" height="30" as="geometry" />
        </mxCell>
        <mxCell id="-Ki9CwcrcDcazu1pOUVY-87" style="edgeStyle=orthogonalEdgeStyle;rounded=0;orthogonalLoop=1;jettySize=auto;html=1;" parent="1" source="-Ki9CwcrcDcazu1pOUVY-83" target="-Ki9CwcrcDcazu1pOUVY-33" edge="1">
          <mxGeometry relative="1" as="geometry" />
        </mxCell>
        <mxCell id="-Ki9CwcrcDcazu1pOUVY-83" value="&lt;font style=&quot;font-size: 12px;&quot;&gt;&lt;span style=&quot;--tw-border-spacing-x: 0; --tw-border-spacing-y: 0; --tw-translate-x: 0; --tw-translate-y: 0; --tw-rotate: 0; --tw-skew-x: 0; --tw-skew-y: 0; --tw-scale-x: 1; --tw-scale-y: 1; --tw-pan-x: ; --tw-pan-y: ; --tw-pinch-zoom: ; --tw-scroll-snap-strictness: proximity; --tw-gradient-from-position: ; --tw-gradient-via-position: ; --tw-gradient-to-position: ; --tw-ordinal: ; --tw-slashed-zero: ; --tw-numeric-figure: ; --tw-numeric-spacing: ; --tw-numeric-fraction: ; --tw-ring-inset: ; --tw-ring-offset-width: 0px; --tw-ring-offset-color: #fff; --tw-ring-color: rgb(59 130 246 / 0.5); --tw-ring-offset-shadow: 0 0 #0000; --tw-ring-shadow: 0 0 #0000; --tw-shadow: 0 0 #0000; --tw-shadow-colored: 0 0 #0000; --tw-blur: ; --tw-brightness: ; --tw-contrast: ; --tw-grayscale: ; --tw-hue-rotate: ; --tw-invert: ; --tw-saturate: ; --tw-sepia: ; --tw-drop-shadow: ; --tw-backdrop-blur: ; --tw-backdrop-brightness: ; --tw-backdrop-contrast: ; --tw-backdrop-grayscale: ; --tw-backdrop-hue-rotate: ; --tw-backdrop-invert: ; --tw-backdrop-opacity: ; --tw-backdrop-saturate: ; --tw-backdrop-sepia: ; color: rgb(64, 64, 64); font-family: &amp;quot;SF Pro Display&amp;quot;, -apple-system, system-ui, &amp;quot;system-ui&amp;quot;, Inter, &amp;quot;Segoe UI&amp;quot;, Roboto, Helvetica, Arial, sans-serif, &amp;quot;Apple Color Emoji&amp;quot;, &amp;quot;Segoe UI Emoji&amp;quot;, &amp;quot;Segoe UI Symbol&amp;quot;; text-align: start; background-color: rgb(255, 255, 255);&quot;&gt;the&amp;nbsp;&lt;/span&gt;&lt;em style=&quot;--tw-border-spacing-x: 0; --tw-border-spacing-y: 0; --tw-translate-x: 0; --tw-translate-y: 0; --tw-rotate: 0; --tw-skew-x: 0; --tw-skew-y: 0; --tw-scale-x: 1; --tw-scale-y: 1; --tw-pan-x: ; --tw-pan-y: ; --tw-pinch-zoom: ; --tw-scroll-snap-strictness: proximity; --tw-gradient-from-position: ; --tw-gradient-via-position: ; --tw-gradient-to-position: ; --tw-ordinal: ; --tw-slashed-zero: ; --tw-numeric-figure: ; --tw-numeric-spacing: ; --tw-numeric-fraction: ; --tw-ring-inset: ; --tw-ring-offset-width: 0px; --tw-ring-offset-color: #fff; --tw-ring-color: rgb(59 130 246 / 0.5); --tw-ring-offset-shadow: 0 0 #0000; --tw-ring-shadow: 0 0 #0000; --tw-shadow: 0 0 #0000; --tw-shadow-colored: 0 0 #0000; --tw-blur: ; --tw-brightness: ; --tw-contrast: ; --tw-grayscale: ; --tw-hue-rotate: ; --tw-invert: ; --tw-saturate: ; --tw-sepia: ; --tw-drop-shadow: ; --tw-backdrop-blur: ; --tw-backdrop-brightness: ; --tw-backdrop-contrast: ; --tw-backdrop-grayscale: ; --tw-backdrop-hue-rotate: ; --tw-backdrop-invert: ; --tw-backdrop-opacity: ; --tw-backdrop-saturate: ; --tw-backdrop-sepia: ; color: rgb(64, 64, 64); font-family: &amp;quot;SF Pro Display&amp;quot;, -apple-system, system-ui, &amp;quot;system-ui&amp;quot;, Inter, &amp;quot;Segoe UI&amp;quot;, Roboto, Helvetica, Arial, sans-serif, &amp;quot;Apple Color Emoji&amp;quot;, &amp;quot;Segoe UI Emoji&amp;quot;, &amp;quot;Segoe UI Symbol&amp;quot;; text-align: start; background-color: rgb(255, 255, 255);&quot;&gt;payment_order_id&amp;nbsp;&lt;/em&gt;&lt;span style=&quot;--tw-border-spacing-x: 0; --tw-border-spacing-y: 0; --tw-translate-x: 0; --tw-translate-y: 0; --tw-rotate: 0; --tw-skew-x: 0; --tw-skew-y: 0; --tw-scale-x: 1; --tw-scale-y: 1; --tw-pan-x: ; --tw-pan-y: ; --tw-pinch-zoom: ; --tw-scroll-snap-strictness: proximity; --tw-gradient-from-position: ; --tw-gradient-via-position: ; --tw-gradient-to-position: ; --tw-ordinal: ; --tw-slashed-zero: ; --tw-numeric-figure: ; --tw-numeric-spacing: ; --tw-numeric-fraction: ; --tw-ring-inset: ; --tw-ring-offset-width: 0px; --tw-ring-offset-color: #fff; --tw-ring-color: rgb(59 130 246 / 0.5); --tw-ring-offset-shadow: 0 0 #0000; --tw-ring-shadow: 0 0 #0000; --tw-shadow: 0 0 #0000; --tw-shadow-colored: 0 0 #0000; --tw-blur: ; --tw-brightness: ; --tw-contrast: ; --tw-grayscale: ; --tw-hue-rotate: ; --tw-invert: ; --tw-saturate: ; --tw-sepia: ; --tw-drop-shadow: ; --tw-backdrop-blur: ; --tw-backdrop-brightness: ; --tw-backdrop-contrast: ; --tw-backdrop-grayscale: ; --tw-backdrop-hue-rotate: ; --tw-backdrop-invert: ; --tw-backdrop-opacity: ; --tw-backdrop-saturate: ; --tw-backdrop-sepia: ; color: rgb(64, 64, 64); font-family: &amp;quot;SF Pro Display&amp;quot;, -apple-system, system-ui, &amp;quot;system-ui&amp;quot;, Inter, &amp;quot;Segoe UI&amp;quot;, Roboto, Helvetica, Arial, sans-serif, &amp;quot;Apple Color Emoji&amp;quot;, &amp;quot;Segoe UI Emoji&amp;quot;, &amp;quot;Segoe UI Symbol&amp;quot;; text-align: start; background-color: rgb(255, 255, 255);&quot;&gt;is globally unique. When the payment executor sends a payment request to a third-party PSP, the&amp;nbsp;&lt;/span&gt;&lt;em style=&quot;--tw-border-spacing-x: 0; --tw-border-spacing-y: 0; --tw-translate-x: 0; --tw-translate-y: 0; --tw-rotate: 0; --tw-skew-x: 0; --tw-skew-y: 0; --tw-scale-x: 1; --tw-scale-y: 1; --tw-pan-x: ; --tw-pan-y: ; --tw-pinch-zoom: ; --tw-scroll-snap-strictness: proximity; --tw-gradient-from-position: ; --tw-gradient-via-position: ; --tw-gradient-to-position: ; --tw-ordinal: ; --tw-slashed-zero: ; --tw-numeric-figure: ; --tw-numeric-spacing: ; --tw-numeric-fraction: ; --tw-ring-inset: ; --tw-ring-offset-width: 0px; --tw-ring-offset-color: #fff; --tw-ring-color: rgb(59 130 246 / 0.5); --tw-ring-offset-shadow: 0 0 #0000; --tw-ring-shadow: 0 0 #0000; --tw-shadow: 0 0 #0000; --tw-shadow-colored: 0 0 #0000; --tw-blur: ; --tw-brightness: ; --tw-contrast: ; --tw-grayscale: ; --tw-hue-rotate: ; --tw-invert: ; --tw-saturate: ; --tw-sepia: ; --tw-drop-shadow: ; --tw-backdrop-blur: ; --tw-backdrop-brightness: ; --tw-backdrop-contrast: ; --tw-backdrop-grayscale: ; --tw-backdrop-hue-rotate: ; --tw-backdrop-invert: ; --tw-backdrop-opacity: ; --tw-backdrop-saturate: ; --tw-backdrop-sepia: ; color: rgb(64, 64, 64); font-family: &amp;quot;SF Pro Display&amp;quot;, -apple-system, system-ui, &amp;quot;system-ui&amp;quot;, Inter, &amp;quot;Segoe UI&amp;quot;, Roboto, Helvetica, Arial, sans-serif, &amp;quot;Apple Color Emoji&amp;quot;, &amp;quot;Segoe UI Emoji&amp;quot;, &amp;quot;Segoe UI Symbol&amp;quot;; text-align: start; background-color: rgb(255, 255, 255);&quot;&gt;payment_order_id&amp;nbsp;&lt;/em&gt;&lt;span style=&quot;--tw-border-spacing-x: 0; --tw-border-spacing-y: 0; --tw-translate-x: 0; --tw-translate-y: 0; --tw-rotate: 0; --tw-skew-x: 0; --tw-skew-y: 0; --tw-scale-x: 1; --tw-scale-y: 1; --tw-pan-x: ; --tw-pan-y: ; --tw-pinch-zoom: ; --tw-scroll-snap-strictness: proximity; --tw-gradient-from-position: ; --tw-gradient-via-position: ; --tw-gradient-to-position: ; --tw-ordinal: ; --tw-slashed-zero: ; --tw-numeric-figure: ; --tw-numeric-spacing: ; --tw-numeric-fraction: ; --tw-ring-inset: ; --tw-ring-offset-width: 0px; --tw-ring-offset-color: #fff; --tw-ring-color: rgb(59 130 246 / 0.5); --tw-ring-offset-shadow: 0 0 #0000; --tw-ring-shadow: 0 0 #0000; --tw-shadow: 0 0 #0000; --tw-shadow-colored: 0 0 #0000; --tw-blur: ; --tw-brightness: ; --tw-contrast: ; --tw-grayscale: ; --tw-hue-rotate: ; --tw-invert: ; --tw-saturate: ; --tw-sepia: ; --tw-drop-shadow: ; --tw-backdrop-blur: ; --tw-backdrop-brightness: ; --tw-backdrop-contrast: ; --tw-backdrop-grayscale: ; --tw-backdrop-hue-rotate: ; --tw-backdrop-invert: ; --tw-backdrop-opacity: ; --tw-backdrop-saturate: ; --tw-backdrop-sepia: ; color: rgb(64, 64, 64); font-family: &amp;quot;SF Pro Display&amp;quot;, -apple-system, system-ui, &amp;quot;system-ui&amp;quot;, Inter, &amp;quot;Segoe UI&amp;quot;, Roboto, Helvetica, Arial, sans-serif, &amp;quot;Apple Color Emoji&amp;quot;, &amp;quot;Segoe UI Emoji&amp;quot;, &amp;quot;Segoe UI Symbol&amp;quot;; text-align: start; background-color: rgb(255, 255, 255);&quot;&gt;is used by the PSP as the deduplication ID, also called the idempotency key&lt;/span&gt;&lt;/font&gt;" style="text;html=1;align=center;verticalAlign=middle;whiteSpace=wrap;rounded=0;" parent="1" vertex="1">
          <mxGeometry x="880" y="530" width="210" height="80" as="geometry" />
        </mxCell>
        <mxCell id="-Ki9CwcrcDcazu1pOUVY-91" value="1&lt;div&gt;&lt;br&gt;&lt;/div&gt;" style="text;html=1;align=center;verticalAlign=middle;whiteSpace=wrap;rounded=0;fontStyle=1" parent="1" vertex="1">
          <mxGeometry x="280" y="570" width="60" height="30" as="geometry" />
        </mxCell>
        <mxCell id="-Ki9CwcrcDcazu1pOUVY-92" value="&lt;div&gt;2&lt;/div&gt;" style="text;html=1;align=center;verticalAlign=middle;whiteSpace=wrap;rounded=0;fontStyle=1" parent="1" vertex="1">
          <mxGeometry x="150" y="690" width="60" height="30" as="geometry" />
        </mxCell>
        <mxCell id="-Ki9CwcrcDcazu1pOUVY-93" value="&lt;div&gt;3&lt;/div&gt;" style="text;html=1;align=center;verticalAlign=middle;whiteSpace=wrap;rounded=0;fontStyle=1" parent="1" vertex="1">
          <mxGeometry x="120" y="780" width="60" height="30" as="geometry" />
        </mxCell>
        <mxCell id="-Ki9CwcrcDcazu1pOUVY-94" value="4" style="text;html=1;align=center;verticalAlign=middle;whiteSpace=wrap;rounded=0;fontStyle=1" parent="1" vertex="1">
          <mxGeometry x="490" y="775" width="60" height="30" as="geometry" />
        </mxCell>
        <mxCell id="-Ki9CwcrcDcazu1pOUVY-95" value="5" style="text;html=1;align=center;verticalAlign=middle;whiteSpace=wrap;rounded=0;fontStyle=1" parent="1" vertex="1">
          <mxGeometry x="680" y="745" width="60" height="30" as="geometry" />
        </mxCell>
        <mxCell id="-Ki9CwcrcDcazu1pOUVY-96" value="6" style="text;html=1;align=center;verticalAlign=middle;whiteSpace=wrap;rounded=0;fontStyle=1" parent="1" vertex="1">
          <mxGeometry x="735" y="865" width="60" height="30" as="geometry" />
        </mxCell>
        <mxCell id="-Ki9CwcrcDcazu1pOUVY-97" value="7.b" style="text;html=1;align=center;verticalAlign=middle;whiteSpace=wrap;rounded=0;fontStyle=1" parent="1" vertex="1">
          <mxGeometry x="400" y="880" width="60" height="30" as="geometry" />
        </mxCell>
        <mxCell id="-Ki9CwcrcDcazu1pOUVY-98" value="" style="shape=image;verticalLabelPosition=bottom;labelBackgroundColor=default;verticalAlign=top;aspect=fixed;imageAspect=0;image=data:image/webp,UklGRlBuAABXRUJQVlA4WAoAAAAIAAAAsAMAaQQAVlA4IHBtAAAQcQKdASqxA2oEPm02l0kkIqUhIXLJkKANiWlu/F+5/r0HKRJebhnH3/9c9Git/53+1+bbyT6t8sfzP9p/8X+O9n39N/8X+H9xH6X/7nuAf2L+5+dr6hP3W9QX9I/zv7k+6v/ev2j9yX9K/1P7Yf6r5AP6X/wP//6z/sKf5b/p//////Ah/M/+F///Xf/cf4Tv7z/4P3j9sb/////t3Omf6V/0f+z/r5/QvEj+/f1//Kf67/Aenv4184/fP7Z/j/9F/f/2a+JH/R8MXqX8X/4v8L6n/yH7H/k/6//jf+T/ivnD+z/7P/C/k/6O/Eb+3/xv46fIL+T/y3/E/2z/H/83+3eq//n/5X/Od91sn+i/8f+O9gX3O+lf6z+5/57/2f6T0iP8/+5+pP6F/h/+v/dPgB/lv9l/5H969qv9v4Pvo/7VfAH/Sv8b6sv9T/4f9J/qv3F9u/6V/o//d/qvgN/oH9r/7/+M9t/////D4afvd///ed/ewUVLGxAJ2VPPT8sYgE7Knnp+WMQCdlTz0/LGIBOyp56fljEAnZU89PyxiATsqeen5YxAJ2VPPT8sYgE7Knnp+WMQCdlTPxlEbsRFAnZU89PyxiATsqeen5YxAJ2VPPT8sYgE7KniODMwdyQtl7NKyR8tLwgMBRu6+tGDPnLvL1tSelGJZkMbJ2VPPT8sYgE7Knnp+WMQCdlTz07cGGe6N/6DYURU73e1hA9TQhos58pMB1mIvN2KpIRU8kFRmsjPof+3L0/aelyyMqFt7AaATu6yNUUPdLXEi+XUJNuWWxtSY6Yk82G5uKOlxHGqmxAJ2VPPT8sYgE7Knnp+WMQCdlTSUhAd7E9cQZX5f4jjHoRf6T3UgT7jcT10cBN/lfZcegvbSzN9ddxIYMuot+UTKLT++L008U+syIsaResUJBpr+xOMIXsXsHtKG9rcUlTz0/LGIBOyp56fljEAnZU89P3KUw+bpPZXP2j6zwAn2Un6eTrPT8sYgE7Knnp+WMQCdlTz0/LGIBOyp56fljEAnZU89PyxiATsqeen5YxAJ2VPPT8sYgE7Knnp+WMQCdlTz0/LGIBOyp56fljEAnZU8UKrLV9ypYwk0inS2Bx0UXOWedP5hmif00O1lSxsQCdlTz0/LGIBOyp56d4f78ZurJsezKB99HXLg+wPyYF5XjCIJFMpQO+MxNHB/5vw7CskWl2ccTvxWSt4jQJajHx4CexX5GuYtI522oJyt5kQYW+BHr2veq1c4XiSvw3tAutp/sXywA8MhyKzT/mCHFqBgV4pPJU89PyxiATsqeen5YxAJ2VPFxSX+g4BQMJMY0RTUKixhN+6BZAqQuNlixlnXIzn6EYb9224ehBGUv3B8TcqXlZpNuJG2egQ3cPRA0nkHpY+OOYmBRxLd4CFWUlWrRrwhGpnugih2NFHK2CU3yxiATsqeen5YxAJ2VPPT8sXFo2qpUlxED++qdekzJdUzOUseQcFTeGQqarVop+MRmhMKFSqSkLB9sstMrSjtMPE97Gd9RtXIggXnWeLGxAJ2VPPT8sYgE7Knnp+WMRFfiLo4u4tBDluPrWMQCdlTz0/LGIBOlY8vcRsm2SybhMAimSA2hINeOpEu7Kq3szzL/Bhw2YWoIQk8wTo+LijDo2wJ0d/U4wywYqd1NkK/yI0VvYYpAem4rpEiqDY+iUwOBLiDd8YayzI5mdMjjf3xIYtpwKCkysw7ajwi8H3wlGfFqnYgrZS08oatqoLZtwnSNG/KPYjc7WANH7ey7Irc++56w+8mCEavWK8fzLG8XXrCo0feHK+plO5ye2mLaQXCb1Kp58RvyId/TNQnb6sJTVu7OYmcMiKOoKabsofvUAW51pVoKXCz7uyWNiATsd4zQbSZ0uTpkxkcbwln3+gSjArMCL7zQb0JARDhnAZG5S+GleOTPsNWM5WOcF3bB3DHvf8ttmOiqt1i9QJX75vUZi4D3HSuV/m8LqMVvSyeuuYb+vfE+tbtL+FgxDc5rIdf/ixXxB3GDYd4p19a8iqp0a1oxhXZTXPEEk6ySR2X6AinfePrhyw0D5cwdA7YcU4+eTAH8oikRZzITSd10iejdVDxwtv3clBXTlRpzhwfol9ijHItKvN93TQ+uCcZ03TugpOw0R8qs8/z9RhHTSMFanhjgh4BnizafMdTTPj8DFVIW9UYDDZ4Fwo1Bv1uWyj57zqMA/9aZCqm1gsfV1q9ssjAbm3xUsbEAnZ6dPz/JfFfGp6ROBDWEpWlxgByOHODxtNeV9DfD9HbvRgNxVTR6nKJRA9+Pd5r5C4DUJresjlJ1Ewf2fMA/2JZEmSVPjktC/zZphcvRw1u8dkm745XNKyvCSmY+yKPD2xW2hpQgt6ILps7O+w+Z7Gc2pRnhnSp56fljEAnZU86ggIS8hk3QDXGTAMTBMwieoXTWY62o4z/Iqg14OIpZozh+zU8z1uw7xgZqHqcZOhOaFiMD55vpIZF9vgouAXDNoVSY2bIgJm4aaMZRDDvZikMt02+eXansXCatDKzMt2s5tJrZC/7lRSRuV4tqsiGTqdEaAywfHBOoGa0Cn14CguAjJ8Grrrx3np+WMQCdlTz0/LGIBOyp7oVm15ECpJ8sbUx6fljEAnZU89PyxiATsqeen5YxAJ2VPPT8sYgE7Knnp+WMQCdlTz0/LGIBOyp56fljEAnZU89PyxiATsqeen5YxAJ2VPHrX0VyyCVCdUdBuf+WGQSoTqjoNz/ywyCVCdUdBuf+WGQSoTqjoNz/ywyCVCdSZt2Zk7KYR0LoGDsTpuTroE503J10Cc6bk66BOdNyddAnOm5OugTnTcnXQJzpuTroE503J10Cc6bk66BOdNyddAnOm5OugTnTcnXQJzpLnOgtxD2sfqz7acYq/CsQBNkC8ZL+M9PyxiATsqeen5YxAJ2Uw5tknU8befD0i3pHexmqbxoVX0BClYJVU/gRkWZ9/jeQOKEdq0AD3QvAm6e22NGd8JoUCYCVYuGWm0W52HRMGbtgsLQntORd6butkJh+tkkqL9jgL2xPUoBSPG4QCuIkamZJR4XdCYmFhJNBRWtvM2veIXTEC8nZOfxHHLOEBwzzTk1EWVLGxAJ2VPPT8sYZHFfxiALyBt24B6XKtwqjV9tArs2eUfIuSMrxgnKgQVdCegViKJ/MXiShYhC+aWL6/h9ttTTkhwAqdvS9apY2IBOyp56fljEAnZTDm2SdTxLfbHOcl24Zhdv4fVHF3I2EOWMQCdlTz0/LGIBOyp4sOqh3nocS6E59+i2Wg3P/LDIJUJ1R0G5/5YZBKhOqOg3P/LDIJUJ1R0G5/5YZBKhOqOg3P/JDSDbefljEAnZU89PyxiATsqeen5YxAJ2VPPT8sYgE7Knnp98rba9OqOg3P/LDIJUJ1R0G5/5YZBKhOqOg3P/LDIJUJ1R0G5/5YZBKhOqOg3P4TAy47z0L3158yOa/CV9qNZfhLFCuHE6bl2n0rwXxcOJ03J10Cc6bk68RLwXxcOfY3kaCddAnOtNsKIgv8JX2qsPpa25KmvGnSjMG7G1s00fI2svKVEVKYi4LRmb7z0IpOp56fljEAnZU89PyxiATsqeencfaJ6flDIG1kE7gmUXj/vttQ1/hUcnmU2N1qyPjRQJ+wpjLC8pCyBQITSat4JW2MInVZEmose0Wkxlw+df/nmuBg+AbwoEgPjJ2VPPT8sYgE7Knnp+WMQCdlMObZJ1PG3nxSgKqaV2e3tQolifXpX0K9w708tMIzfZgU89PyxiATsqeen5YxAJ2VPPT7qycWqWMGRbIHsnI6o4u5FypY2IBOyp56fljEAnZU89Pyxh+UGwCIBMQ2zSzEDHeEcKnWWg3P/LDIJUJ1R0G5/5YZBKhOqOg3P/LDIJUJ1R0G5/5YZBKhOptY2FoK9PyxiATsqeen5YxAJ2VPPT8sYgE7Knnp+WMQCdlTz0/LGIBOyp56fljEAnZU89PyxiATsqeen5YxAJ2VPPT8sYgE7Knnp+WMQCdlTz0/LGIBOyp56fljD8SZ2fNJBCX/P7fIlRFlSxsQCdlTz0/LGH42UG80+p2VPPT8sYgE7KY40zg7Eq47Qr30bB5OPNSLhLbbesXKZf+67FGU50hzMPIimuLb3vOaSF9AeHaFKubPOAD98/boBDFKDwZ9mzs5lDqWPtVAcbWp/ldzc5k+LppOrRFMvG0rj+eoraKS8mxJcdgK+xlAK6w2ZoIPV1t8GgX12E7/0ozSN299JCatztqPS1FQtW5rygmsYC5FJfk4BF5jx/ZU0loDjvPT8sYgE7KakckfZ4BdBcOEPTaH+7P9aA0TiD8mcALlZd8K1tP4rn2szSvn4SWZdgTEuCC6z6XsbTXUqNC05mSrhyBWDqISFlrFOhCeaWTv0OkuTneb0QeGVfApr5iNQxT+NiJllq91tCI8KXmvCwIok0EsDL8AwY8aeuHcj+rSw7GCjQcWypUvxMUjWRCT5tgoh5eQFuVQysCBRPdFLjIwZuQBDyTTGRGvotv0rPVrhkVtQuXLyK+mhuZJa7z0/LGIBOyp4lxUr8obG9K+n49hHZH/5QMH2jp25qF9A48j5agXfkEwdOoivS/JCad2gCcVqxvPT8sYgE7Knnp+WbCA47z1S1jEAnZU89PyxiATsqeen5YxAJ2VPPT8sYgE7Knnp+WMQCdlTz0/LGIBOyp56fljEAnZS5CDws2JGeh86j51HzqPnUfOo+dR86j51HzqPnUfOo+dR86j51HzqPnUfOo+dR86j51HzqPnUfOo+W14VfsYh7WPJsN3U89PyxiATsqeen5YxAJ2VPPT8sYgE7IZ19vGTqMkLXeen5YxAJ2VPOlUaZioGdScUlTz0/LGIBOyp44T3U8cLzUqWNiATsqeen5Pq3vLiN/NAKO4pN2viZXdKFHqEZl+UOTiqifaVyjj4j1vTsqeen5YxAJ2VNbo7Kmt3y3p+WMQCdlTz0+9vYGbRR1vR+ZITxupRKeO89PyxiATsqedclrvOjpOChLaIidlTz0/LGIBOyp56fljEAnZU89PyxiATAgmE91PQCXNCCffIfOo+dR86j51HzqPnUfOo+dR86j51HzqPnUfOo+dR86j51HzqPnUfOo+dR86j51HzqPnUXRoSgdlTz0/LGIBOyp56fljEAnZU89PyxiATsqeen5YxAJ2VPPT8sYgE6Xj8c2IZ5bh3DsqxrHOJ3zzAaPugH99sYgE7Knnp+WMQCdlTz0/LGIAsMdsN373YKUVGY99BwY1+0aAyuyr11lUI3MnrYCeuy4RaZHVljcmRVmXoM4Yofhq0KVmNErvea4i4nrACME77Gp0nmK3TsfwEyfiLLwS0sUdOoittVwmZEs9TceCf/6RPYBtfZsBQbkx2rQ3M72F5dnDekkct/V3mIsqWNiATsqeen5YxAJ2VPPTurv/c40mq9U0xwQfjAuihWhOu4S5SGBNf+IEq/9sFlSJApNul8SIzJjnTY9BlKHcEnB8eDq19q6yPv6u7mAcN9HtnkGo5/PUOqnCxVch6QnOvDQUgJxpnrkwCpjiS3y38974oFZQNMKdlTz0/LGIBOyp56fljEAnZU9MhAmAQb5hGK9x8sbEAnZU89PyxiATsqeen5YxAJ2VPPT8sYgE7Knnp+WMQCdlTz0/LF2tmF2/h9UcXcjYTcjYTbxx+sEmrbbzIrsp02D+OQPw+qOLuRsJuRsJuRsJsl8LG7x1R0G5/5YZBKhOqOg3P/LDIJUJ1Q/UdjaC/fkwhYJU6y0G5/5YZBKhOqOg3P/LDIJUJween5YxAJ2VPPT8sYgE7Knnp+WMQCdlTz0/LGIBOyp56fljEAnZU89PyxiATsqeen5YxAJ2VPPT8sYgE6sNdwrMsvv7q4P7yroQmlSmHqkm/XBXtKt8BcPPTVZWANsZZff3Vwf3lXQhNKlMPVJN+uCvaVb4C4eemqysAbYyy+/urg/vKuhCaVKYeqSb9cFe0q3wFw89NVlYA2xll9/dXB/eVdCFV2n7DjxZD6UOHhmF2/h9UcXcjYTcjYTcjYTcjYTcjYTcjYTcjYSNbiksypWVLGxAE5PCg39LqS6d4DYnhdmOzTPH+E9FNbAN5M95JFEiHO7GRc1x7hiIaWhLEVuKY28961VzkAkMoQ3whO5kYw5njDWru6Ncacm9ltPEwAzr58z6geos6ag+gn9s9H4WKKSp56flqyJURmtRTz0/LFxLMKnb4l/T4Tku2rRGx0B533Q/DEGPa0Ll7qXBSfh+udkbNqbmRQin2EVKrM/aLgDf4/a49UsvWJfgiiQZwue2cc10EF/jDu5p6f9wEUdVY/d51+xDsaYj1Ck78IMmygqsCpeLqyTNipy91YNBLUueWVNzY6a7wEXAd2wYqMbOdUABdx26KftsyNImRv+76nM/YvMTO7LfMBv+CdTz0/LGNEPayyFtFlSxsQCjRO2DIWPkKBAmAKTuPlp4PPT8sYgE9UKljISEnn62PXhmF2/h9UcXcjYTcjYTcjYTcjYTcjYTcjYTcjYTHOFA3QKpY2QSXpzgtmOrCSfHuS2Y6sJJ8e5LZjqwknx7ktmOrCSfHuS2Y6sJJ8e5LFMATsqeen5YxAJ2VPPT8sYgE7Knnp+WMQCdlTz0/LGIBOyp56fljEAnZU89PyxiATsqeen5YxAJ2VPPQQAD+/+4cAAAAAAABP9f8sOm6muRpvVlB0/n7/a8os+s/2zTLnoUY+gZswH0R2wJx62qkqBCMKAqtwrCeZ+DJF7ctZtgACpV3z/VIrxsA67EL1gcZ7Jbnjfxpy0R1424fveT02Dhy9BhjGkZvTcK8SDQ+O60PohE6XKLMH+DgXEw+uaFAUdhwCl6ES4OaVIAaMxBlGB3A+gnDJo7P1lNC0DDiatQwv9lhDy4lRf2rioq7NWpGoNl4gcryV8cDxk/3wJ4+2hH1Zrw3fEXSt6HIhvSpy3sXDDIf3XEsNUedGOPg8Y3CyRzcVfSmP7cIjVTc8ct7N9KTxxIzEAOz5286fgMKnMDyU/I6Ae1lCsp1V9FcO/4RUpxAt5XgAwuERdW90NYxA17POBYOuxN5kmwi2a0vi9KpE+cBFSYxVBP8vYFyiHxmhq0E55P45BAEV/+OW52YE//zCfn1sQABdzchw8iBrBsJrX1d1rl9T5Re/uyX57FCbjq08xvQTGZ9i6tXLBpcMIzBN29gN1+7ltMEHDMgVuyKjMuWIuyAC6Q9bwIE/C3qwdQUody6xiIkrVhYQfgaJQ3Cu6GM4ZuR+cn1U7DMdZw1NFqVBUeFE3WB5wTEFpKqsp1hX5+alArVanpfUNfJ148sZDgt+M4iWfoaeES/He2qHiKofhDBbjxj8X5zIFNBZ5vzynKR08fh7wnv6W7oIooTNljPPVcfs33r2FmprCCbZEK0E2oDaNSlyDgVCDERNCGJQAa8a0FOJgn/MPYdCHrekuENiQY1OiX52z9+ajlDT2NUD44s0HvNnAMkjB6q3nJzWVDrUWvU0V0Y72869sh9lQNDyPMkJMp5j46QsV6EJEGTDypJCqYtlPyq4Fb5uIf1V+nieq6kzeszJQHvp+nl5r1YEwVeTztRbM+fm0XQcryGWgIcyHs18AbE07JeBW+ME+ylsHmBVrN7yRNPALsAmnf1gVdJet7didyaYOneqJOJ7OJprsmgn4M4BTFdg/FNaYoSK9jn+pDtKx4cgCp1Ib/Vz+54UHvsZxp6tE2KHgQVcPs9kNCEd6S/oBmBzudMXTMeNGPR/IWbaHs4qbNf0x46BjQ5x+DeuxVESTKa2tvDjCVQaXwqqAW2Ad33m0Rk5ctHVSBvGIDJwpqtAD/uqJUCkRPyYsryBJNsVNn7c8kTaFWKkHPLGBeWyPwa2lT6ABnNvg/USaP5qP6qcA8km02nMKy3wHnIfmDDNaElprjDSUFVyOMyhnZQPdxaBdm9UO6OpjWrBDJsmdMd6b8MUzqF8V/NQ4kYBtXTJv8CRuzVmydTCCTOdzcrcyYpU+kzRZ6LCKm0F2qjbdNXHE3K9ciA6a+J2a5mFlrpVmHvNqCAPGiRncr0daGfEnnVEpkGuVK1Husi26vk5yi4iCYABaZqVo10oSPggoOxJV7Xdj60FiyLhtTmbzNDTMO+MdkQqc/htDmhb7bB+lRJVbvvzR+8lH6AVcGuwa4hMODsIuBOE0JhNMQkk8fXou73/SdB+iwPeoX5UJ5j/x/dgs48+OIB/PglrRIYKrW7nhw5BwPeuZaQdRoN2Ewr1fMDt1qY3p+p3jyZ+2VeI1MNPuFdHDC+6lAMRyJdjAC/SlAPLYQCXIzr6VIZUOKic8EIRqJbpNP1/k8TWRFfNd0D24CAAXIAsl88iBIXs1O5Zg3OzeRF7r7NPhcMFciAUY/hp95gvVWd/jmKPI7033PlpXxaAvqKaSP9Ke6Itl/qQFkCHNPpuZQjBc9prN+hcbsvchmEPk6C/uXU7aW6XJUDOXb1gs9sx+/jESu89xBn2hjJF26ZBLuoWcp1QTqTxSXiIb/3q7H4dcVksSkQAhwlCgr7AQQd6/f1M/Fs1SiJms8lzal+Uv+ZU2UCTJve+r58CzLya/pvCY6VB6l4XTxtuHf9KBc35AXmtwfRHtQVAa5Cp46MBlxilskysgNx3OvKAxNqOW4AhyS3vz70FpZyFD36X/awzk6zjqwUTPyL8QkuGvdU0pRw7ebmTSJXwymOWi39ZVfBA9YaqoqmtWpnlDWWl3ykKnA/Dl8Qs73I2cNJUjo9H3+0MyRooxGNJF84G/a3agTFaZ78SUtVvBnMwKrkaN5XBYFmefF0nR97huWBhkngOsgkxYfcnSrsroQWVldKolLkXja6T5BoypU2/FtlDM3OtZS4oOMksYohjkeRPSvaPtQ68kZcRhmtQyx50WpGkbADtJELhH83GTCjiTR4CEb07osgTnMpN9dZ5uf8i6waxgkpvepZTZ6CTwa7sg+qJ2AgprXYAibvXvuXQU344ppQUJphLMLqN8ipL+X+l4tmABPKPda/mDHQfTRHB3kpVXshKgFn0zOkNbuTeMsNxbke7Tu1FQ2bmWNykr5jszZl8xEQkqTQEPGuruZVSDS1ENCE5PendlbzMCfD4ijn5RluqdEkFerDMxK8f3VjEkQlJaQQS8b/M6wIDi0NGNjfm5uYrV7eL442RxuSK6Y0Xvscf2i3dAbawCTCwHhgq0zNmx/PvNBANJpOKuRSZLaoW+jk5TiBEx2Z0QT+cDlFw7jqJHWUZNLB/Xq2/xFuwUelRR+46yi9ejPcuMAMVrvwtwwd0yb/DHWey0wTBBuCxRQLl3lAmgeLri0JYfmbDhlk4PUKQCAC8Qp9ZDzA7dqKfY8uzBn2ZWuqgMD8p/nuq499hkIGv9tKEiSlPkAANjaBjfXmcCwPiR5LgqZAzNxd6/oxd2mnYWMjNhjohNxGtQ2gFwcbVKrgCaYe2J7QeP7GxM+h7w5PppHbnaBPxgV6dTAary3KW4ybauJb/AkhABFIb+NSjvygZBsKAAAAAAAAAaSGlek9xlhmI75dM55zdr10SHoZe7SLoYHabCBUoCnEsCyVzeF1VQclwyVp/eO7QnIY6iyCqluf3JCJb7l/PGoLwSfglfNjMeP4t+ptxjqLdAjwJh/s27GuB9kHHj9/Xg4lztmpIVckpv+pNhoE8Can5AvfAg3nJOuSkjMDJaw5SZBmIAp9Vu+dhy9+zjK1c/U33dg6AKlPtouaICsyEEKzbE91Vq8GyIH6a5wp4WQ2yVCvHqTW1eljgM+NHc+ND4lSENgXQzl3HYbHN20a/JLQ9l/F+XmAs9tuYFjzfN/tvY3ksm1I3XaX4d+bkh+LALesV8nMMK1U16WDUdrmff0pyTSfztMMvDYO47mGezQ5s3OcSYXRzrvSCsn+/+sPMuOSLSOv8t/ydA/3JPWCFzDgwGA7Q6vlr/aB0dar8gLOUOByKaJWmZu544f6ctZGEIL3XH/G1KNiSvH0fccAlr/4S5mE2uNMaaNEklxAXK5M6R9ayA+2nF70jwCBC5gcxnduhssO6hAMUpPs1GXsXqI0YB7ciEXo0g5zhyI2O1CTzJubvQHFa3EupeOa51tOCdtNNccUD0YbODqn5fRBMIe0h9NiGyfpCe2buYzo8h2t6YIRNtS1lkegaiRh7MryRZDZf0C/5p4tSza3Ss3Xph7GAX8GZ8cta9gfM+qqHwX/A6wp6j/gHLJ9SZdBHVJhyIy978uhGi9x/eCPTAFgkwL2Xs5TfqPrwbV9Isl7cYnwi5MpFlek4/MNc+ANPfHhXmUkqTD4nM4km2Ld4b4XRrSzNpA2ku4M76QXmWbIGtNlBNcilhywchHCQ9Wprv7eG3eVJBDy8Zi4FwOOnIa9Y+/7cB8wwKlrY8NrKIyprwI1ofF8StDQ6YpYtE0OPxhb5J7qBF3absLqrosNwFjGAuhEhEyAhh6hs77GWkA0rrRSY37umfiCuKFFQietrz4ndGQFaJ0jV1+TtmNvOs25SyvzrAO48yPmkrfFx0HV1pCj5rCea9mB5aWeB3Q2syqNZDIlDDUDO/R/kHeXXqXd4olyPiAEeabZ2/5r/DJNYIPdwinBuafubqHqY1iktdSWDjNwq5qzB+QMTlx6vuCY9CvlRFePEoPtyQzCY8oo2mLoSjD++TsCHhVU5gV9Qzm201pVTgziTxmCjvVGyIaHdNG2ZucIxfl0RfzEDZuKC7BZFezJ9jsXxZiaMQoBKjikkDt3ZKw/xXUaW3JxkV6T6hMufij7huUVwepp7ozsr+xKF8FdDdqCZOkVbPg+CFs8RL3eQ4eI/a+q1ARXWkmQ52vMpxSWYouUXjGD7uv0XxOy4c5vG2lD2Q5rb1zEVbiKLIOfz6nL2gndCrr//VNvB52xL2JFnY/fmHMpt8IRsNqbf6sHvITLUVNvmjWjaTHvQcwjHPOCxuDeoF4BKfLnzRXr0a/Wv410WtoYIR3DYNkJJuueU93m02kfa1omDCPc3ADpdc253wHKwsRYuogbQve2uDCGbGqnD4ScYzNebVOClc6QnBwDPb2vYhL/qTeDy0wETvl5R6w9YXP6Kcw9ZdqagFI7qHq7Y0pegsxm5DdHZKPfOL46SlsYWHRYZ7ZvEK/+zdOxmC0ivMRZgq+s2c5QMQQLMH1Q2T9pCyZ+hpNunzm07hpnQ/pd4tLwcyALUZlLu/sl7etL/+7xFRQUj0jzbHBiOwURaH1ohT+/dtwi+KNPmASEXjJ/zjvPNARJRaRxaTHM3HM98Q4ZX9gvdSvTqaDiIYc06OY5jGfQzawmlRX825GHxdGYi0LF05RnAp5Nk8hS9t4qU2sdO5TNlVQww8BqBN2O0NdUCM0Th6Y/V4im4PprnpHWmPZ19dZLNVCHlYmrC+JNMXmPrpUbT7EmvAOwYDlTGd7x24EaIfMzc83lr6xxM1RwjIZ0xG+D9WmunBrwFWl4T38g8ZLwvV34Rng4Sx4IscyiJX34hz7nWhmGZQXSVGx4Oyi3KHbIATnEdYy9MXKl5OCjjyZlpOhCrjWIaSof/4ZiHbeog8AnUpPodU+Cd76emVsZ3PoPQTFDtIrWe+baTYKFaOL5cm6doE+EKXkTndywW0gIz6+ehZOQ3UTQ7Cry7Rb/BOXzVnjzZ5AcQf88exDURcTBS1gfGjpOIbsWprY5KtSwNb/BPRGRt9CMANy55/8Oj9yk4DpKYO8XYpQQBDTKb7K997tGtMptuSH61V34imTnreX66zmEomEAzMNdI+xwWufWDOWw7u0r5MDmpc8InGThsni2Tlvb+nhveBIEcXG60CLVUFj/dN5BqdwE/64wDuzs9Q6P/WoLfIw7QElVnUc/WekVotGv7rYee/7SoKApO2pjyzi+5Id/Vx/det3+ExnFiovUu+RSFxYDjrqa74fZ4DXIKRAqE3Cnj+1254tU47QP0hzsSwJutagLJDYDZ6LMeeeo5Ln0dsfKgD/NrNngdChJreeGHC/P5/+5/Q42ecT0nNPRVv42Zog+Wa+nVyn0JwyDY/VRO3sFkPWV0nlUAP7K6+2RoI0u9ei+t+ZglZXIsCztM8svA8ojkI1K2D8Y7OUW2xFY2VAUIADzOZyUZiOPMp/PTRcvQfVVNps1KcLNWcn2yasia9VXrbnNvdhNIlvIVzhQs36b3UcZwcLEm2d407cZhbgoUSUGefxXEOT/gwtZWQAgYN4qM0f8vGibVLqpceXxK42gyinC8Jci/KGCGYjSty0CqWNqltV35XOTS8vxkhlse8ACdEaK6f/kJh5/9P1WTMwMSlTESHMrk+nC9wdsPKJlEqRQ42UhnUtbpRQs7cbw+fQHHTD11u+V9GWRHp7lu4FFpUw5ptTy+4wMt5zYnY85HwFLbGaDj+vIUZdbKOjXUiK8wFGprn4d+m+Vf8Lgc08cB95/DVUYQpji+uEW0Aw26pwJA8YyFFdnwa81a0C/xgXVE2UGkIVqQsUKy2dGs4fvOJwq4t51qgDT3x1pABG34WGHnUfjr/xZqyuIAAAAA+K00Jc9C8q5BbokSEHjP6ZJq2hJDqIHQrt+BStiMqOpVktzuZ2VIL+8+rrO+w7arhXosqF3oB2bQ8bPY2Ul2pUasjs7hHTIhqmNLJVpb/KcxQTYiblhGcsaEXL98+5GHZTjeJ2iwkcwhlmMC8TAsfcVxdqgFfM6FByIMxuSmFu2dxyW/W8zDgIVjlXuINhDdF6p3wyFhldETtGA2Vky50/a3wMSHa3Cye4KKAAhNy4t60mExLvQrCfzCeMzGHiqHW3lNdzKp7Z2M49nwPL2ZW0wXDYmT0DHIP20CXjeriWtFzPsuOaOTyWp205aDGG8QrviRaO1X3c6gh1lr0QKShiVknUBU2k3ZW2mTs2aBMpBjrHrlYXS1k8XknLztEq9a9X2p7WXSOaSLQK8qjEaMt8DlCgaoBjdzKmANjA1WseIkrn46cgKJfWaKE1Hman27z8hoIvqZpMnY3WI9rimxcAw+pEqSPBiK7XOA7bumPYyL0sb/WZ6GJ1D8HVu6+dWkQckpTNXrW0KR94oKDA20/0LoqCg11A4h279RvrdBe4v8XEEPlbNXnUXs3MWmgLgtbbeWmGIlHwijoCK4vwLJoL15VhbiA1L3rsH4PAOtcbhsEsT7UimIs96Fy/phgr8is3LuEelq7uJdskyh2N1aYr5vyVbSesn+0RoAIbMkBKOKjJkmL4cLZ0A69Fuv/vAw0srA1sR0QIOiuJa0XM+y45o5PJaZjzHRlMoXFua7e8AMLORxKb4AO4w9Nq+esaBb/62X3CjFG/jF5rEqF/oWiOq+fEvUah4jBx+ecPXcFU0ii4lyADdz6nCKsUw3LDOrZ+ztNP0BPUw3hr+dF5iH/Lbxa2PnrP8aX1KlvkbH5OmBC/XMZ/vR3F700D8NsS8CK/geKyqpn10Y8yXklPQOqNQJcdl9uuxAwf9gd3w/tI9UJbbWvfAGurqWZlNtiiTQcLKXs8lNfpjkASxPz5PCTqubIhxcS7jq6VVmspzWKahQNJi35scTt2XOXBut7OXVBYZd6U90vuq98Ij2APwtGl+Io44noo5C6jlTKl9p1bqUZbH68h9AlL67l3L4bLUq1+1UUoz9AZ9rK4G4MbTBillaEhVNvcpOyjrxRJoLB5+Oa/+tl9xxj9CtwKYNVuUoyVLnUTbW8163XD5DLkNEl3SDroH/CZc3pJLIyBXIjhNcAkVQY2hwHvL1DnjDhnw0A7JoqlxZVbNwy9m2dVUTm3L2S6A3Duroa/hVlmU568lQ13wOxjjyAouAAyWewl9o2Sks1JJYmGp9uAhl0U07IryNy0Sf7YF5K6HiQMKaRMCRF7rKWAX2CkBZcgqaOeiB6eDgEGTNCQjJ1jKkKQJM1IXWTXDQpSWDd6Frp6ST/0vgMdlRfHeADuFn69s5u6dHl84gehz9eQEN4FS8oBpbqESaJQu/RL9O4oVYQj3kqW5E3LCM5Y0GbKb3GQmEw9wT5byHNAmPbajpSDUc8HxySfdfyFYzQpSWDd6FrpOjLoBPrG0eSIs3T1sGblVmDXL9jdKEWX7XpTwIg+5bRNecgc7YBHgUTtq7Sboz14mmgXMprEH8dHr4GuaF5uoQWpQB/c+O9F+bb1IjC5EmHt0v3Io4ZprFxkTEbE3+roBCCftgaEewbq8po1O9wGxd5oA+md3GoZ3wmcO16aWVOLlyCzOHoyGLvSF0eCsrNsIRKaV7s5037YBKO6L4b07vvLPY/1/6/GCQScpuJc9z1dpoaJ6k32TPQyVE/ZT3eUtI4KiFRMc2OSbMkecUpZxkunMhdxVUDv6UXlbAE+gJVzZvT9J7u7D1/c5yrZFuq0F59xfqgWZB1MUmHJlnbvYmFvBLIfp8fdZGokz9dPrsxy9e5qZuDI9MObO2qQRH/9onsfCk+10zy5Uc+quBsyrztMOPBj08H+Sifpx67epjhm61CVxo01YHQO0JvKcCSZmw7pecmTuBkB9KWL55K08PhWNrRMW/dKnBhmuyRaN6D80VixECJJV4uXGmixBStlNmlNDu0HU0WM1eM1x+W/5McE4kBFyJB3CitnQL3KJhnE3pC6sra0e1OaHccgJd9hNtd1wtwLlB/QScJ8BOjE3clxeW0nys2qtdxIaEeCcmrbAuR84RGh3QXUr4PpmKPbatNY74ceRRnTazgj0r/NrTEAYaP1G9zl2BaNR/oFd7YPTofmA+UMd1Y3ObpG1ENc0kGjyZXrifEZzIxawU2aqVhY0qdbqdfIgTnT/igjnLmIP6ZrUyyLQCYgKYkGvrXGzbxt91DMNPaEEPAWAr+4+e9yUeflExsWBDKklTYh1+IZjLREBDH13FymRSIgmMGjOjzwJNlr7zFpEt8zKsehf3wF+j2kztMLk+/2e3uew6A3xUOabDPTh9XJs48QgLNbTUMU0EzpqpXX4N4VvQfYyVsFPnUqcn1yRo/Yk9H51QGnx6tDmFRhJK2iLrceMeZvJ7CHyAcVtnHjqLSPLCUFAcPNGZxpDXQcDnwB88dFNGYvk8BbCW1ubZ9kTFcfyFyjl0oPGB4iZ1XXUt7BB/16HQwR5pHn0keUYIm23eSwEvn7i+TXkHwrOVHM9rVf5t+PYKM5i5XxFrLwGiNpR5zLaQVig/oD48bjiOll4oKDA20/0MKSIM1P7afJUnTakCzBAAxKo81QGfAmXDC5aA4evxHyZDhcVY89sT58lL+ib/qGqF+G3/KjLEMw52X1IT4GbeM0hvl6x7Ferk18EIos87JtOZETzC3SXFVaQWwbO/womdu2YmXimoF3TY7461cNE8BWFBzVlsuK86oZLmcEwebfkGOGKLzBuIQsCYfUBXZ71A7+VBAGMlwAS3a4Ehk7/cbIh2x1ClCStCjusdAlIF85swEDb0S+Ag2ZNDUglG3s46tx0ACQ00ufOfQyP+wb9teV9xqPvMrNGSN2uvDkJfn+aNBJdfX94/iwab+dvOG0a05nPn1HeKYOV261udVrAWbpmlLR3D6hcB7absFfVgPOh1EEJ86UG9/AwvEO5MCiDIfldx3FkvROE1zCKYIi6ANIqdGqs/j5lCqN0KaIGK57AI8BrsVdF61MgBhauCrtot4bZFpUBxMZDJy/elV0yrpB2hFQPNuj0phZEycRLYWB19ntMLESL3QW6B4dtGKycuk4P+cwHmXlaIUP+sEjd6MyViwQtMO/LopLK0IHYB7eXZ0oRNCm1FPOHbzTZcGSVUUbm7mM8Jl8U5pAYkLlgO4ox9lzBCroJ/WOK9OnHKpbr1NBdZUAuSRMqLq5IdnnJQ2JuzOZq/SAbNoodLrUwQVX6afRg9PZgAtT5nF7HJ5D4h9YXNEZm54yjg84QDoCY2/tZCA0ppulIDDFVJorE2syKZGCuAocQbUw8FmManQblSAA9qvPE7sbm9YpCIoPlkrwbcawe6vXfzB0Iy9dBvxig4g8I33dM+IrGCzimdcpvfmildcmTaWjwAWMlmG1HXo+GHthlOYsK06MFXydjiWeYqTt25tXVdOD2Qx7d7sRh9cqcs7hcXyFw1nPBAK4g2E2jRq1QYGYjGerubBbA05N5maA4y8NjajokPL+Q3kOQlMgG4wSCIGBZX7crQLivud7ys7RvKpQJ8AzD4BUeN2WiOmQj+SUkHj2YuOCCixGfxpg2yBvDNjAA3oUCX61CLmwiFbCdCPm9tGUf/msqlufne7kVZae4XrZIj6SuhIjylgejs0V6j2SR7zIg3xps61wPgDSljsU3ONm8/H0Op6KVtMseUeFGbtNY0gGBua5g2rY6zVNMYn3LnYXTZ0isAur4gSs3Kgw2fgyXMTs4Rh1PANDz82024fmSyigVOGnEgxgjETh4W4ycYv9v6o3Xp2z876dGihDZ3wnziKozuOfnOwijI1QeVgENibiDpf9OwMCDBfmXrf3wubHXpJSxAlZ9YEJst8Ij1H3eaWcIogC2a7PITW1mPvvMpCJUiXaLiMZFHg/y6MmCCF44ZGqWO8pLO9Gkeog3U8+GzSw9tcR2zBRj2mTzD07T4kXsJtaag1mePa1JGhTk6c5zXW7l8bQ9z0p7RVP3mxC1GAI9Z32wOk6ya6wkhi1PqzY4+Lwjd8j5T8A7lw2J42BorkGgR6nkRSu05R68LirVrcv7rcqcOO+KX8ZBWXKuqabadE+9C0+Tb/6AvejwQCxPn2JywnfDhIdwPYuVKvL4571LKIz5kBrxJlPsSsrrcQr3Q0yVyTuPJFhnJtA3HzTyVhAXk7MpfWMbZP5i7H/Kh1+U2mf4P+jLZZRWO2sJCJcFqgfb0L4ef9T5CpuEW4KBFjoZHe1UhIUfgJvM9cajW4iwd7D0v665TXinGg9T2J9E7x/UNgbZK7WH41kgZPFOJxuVU6IPgWIHUftvhM4No5TxAJvc7mlclimxKFiPav8ty2ZAV6ejakcndazS7Mm32Y1eVwPzmA8V+bApUn4a2EHr9D9j1yEw4SRh2/CiRKMOQXkPcmYxbE001/vmC2mNQf0qFsZqtp272pYlyuNoloZYUfRbWMHFuZD9SjweH7zUH4HlWWiVlthoDlXBMzQf/a9reLbRvlwsd4WwASUZuc90ueq9Nuexwt6r/NFwJyvqNs/MJ0taHnOAJ1le9aQE37QvYvf0W4BuAJFDxd0ayWY5dvPc/sJ7ViJOofaQJgnx0j4vT9Ms2F6JmADJPcihB+UUBqsQeu6g2m/oILEDaDM8xEwqVSEzKObabW6OW8OcgNvQoYs6+QY8pVYwBecVSxQxLPuASLYPIHnaPXjj71UcHd5gIGJuhJjiwp6UJ2kX0Zpiv0Icmhff9Cyl7w0T1pf9twBJv5UJpaSP5NS2sx3nm2xT1NTBtZzIAntpWhF93Z38xa8EL28qvH7dPGW4HdLjENK6NQ42ULdLjUetEhiEdPKXwnPMO49ak/zuXvN5MgVjTNE7kAH8ZCiiiI0i5mG6sLMHWe1m3chSrcZ+HNpv/soLi06Pu80K/MDsvEIgGdWmpxZprdgQZ3Y9aQyqeh8eUMcHb4ZjnCmW2ADt8EdeOZu5lN4ECj+cEGVSoyobMD0rowoIU2WfrSVN/UxEjid/WzE/A+62j2s6G3ZCBZwPc/SLbShPsHpWYvIkr8dR4yU2d0MS8Q0HMTkKSHyTJjiwCaPcAER2Y8XJZu3uehGOLG1YbObYeIse7ynzqCbpKulFOB4DyUOFWz5wtd/ZMYkNJs9C/sl4LOLHZD0EEyhsjGh8Kz1pDpBbn8U9AF1yObdKQ/URYikaj+RFMt4aNT5NXsjOT3f8IHsD6oYWItF2eGyqfNqk9Jxx/DWMll/HCKpW4S46DBdeufxK26wShYePjg6tM92p38gszWgDlcy+5wZx0WE9FElq9py6y74pQn8BgHBIxernlZLC98QCXv94aYoQgZ59XpYL/LP6G0UyagKMr0C10PTC7H+LvuhNAHEmbycIEHJYQBHXkep4JGR94oeRvL5+H+caP746qJdHrRS7ZLPGHucFcGhq4iOZMzuQA0uMnA2GdkD2lXKaQpa9gwmSks1JJXrPkLQHFiqL2Hc1s3pu2I+XPSImrgNlzB+ECI6EV4OXNN0TsjFzrcjY/J53CFIzaPgcKZxfKQRyzovTV36R/EkY5sdWHAm+7mmc/JmC5+yR2herqgOIFvAvpVq8Rvni1c97Nh/l+pHreS/vi9zvIjoBq7P1dSvug7dAd/2ZSeRkrSisV7q/T9kphnO9cbwSEFvRHo7D6+cSrx4MnZxABsThVEsHXPq/PB1CmdnZgUfCTkO4OJvpkBJVrT5NBNLsm0VvzaGoKZwE4gzvCpvA4e23JQi17QhG3K4aA4i0Yih4Q7RPrH13nStSPMs9B8+JF2FMvr6gneEtjQflxDAFNh7Ol39eRB4Hz+fw6InKmt/4gcGSE6vBEN9TQKZLy9suT0xDGP+gXegZxQ/uTAztUoPNGYR560BgGGB+h51K74/krKQaO+r8uFIjzYbnmmzXBcPbhknxZAzSfKrmEMibRhIRbctKLkvQ9VqwCbajq0SU6ZKDtDZhsofG+MPoqWpFL+014r87kxj2n5AsFrthW/Ie3r8oslNUf8A2bhJa8ctjSUHr2UfBplqdq7HfRaCrjiBXPFOXXhb9lTo6nYTjYcos3NAsHB6wiKXrIaGEk7Nartr9ld9Uy1kiEPGn/+dOWKUmQaunJ6wIJuqzo2cmOR9/n0V+Mgn+irA3R4YmHoWhsZNhVdBQA0zMui3Nx8Bu5tkjW+u6uJtQCPNQWQ8mDG2BjXkKrWA3UvPKlHcUlQ5WIzzSBf3grbHtI7QxIofIDvMD7eFoZrTTIRc/Wwk+U+TCowGzqtOcBPNMm9i+SCoF94Rfzh7eSOchrrriS9B3JHI3gSNBpErhcikLv9GzExAISuLdYrqhmKHUx4c/JpmNQb0va281GMbI06j1r5r+wTHy3fgFk8soJYIULEpiq5wtMmoat2nCGMSRgHE0RsgRyWIZAyZZAtXhSiS9BSD1NpjVfSG609DTZpLmDoRjPAGoj6K0hZyDU7MdH9C4D1SFHbc18wza3q4fx5xTAnAYJnqbMrMRIB38uSkjgaKe641qSDTasfgK8d7yND9ML7/wtUfhUVFlPUkmStNRiu+cjoq9fTlLAoPMNF2fdiKiOUqEvHXUQIv9QsZNGV8EWBenAMZtX9M6KjlqC47TS4no7iMeqRPwWBWxEtrlEUQ5/+71GDIYS6kxpUKmJAAxVXM8gCEzZtPZfFdO+ASSzpL+n+CZauY5xqWSq4l9nLFdC9MqBv0+PusjUTh3HLHF1wf9kKIxecwATC9AuQUNnEIbXTCczqEg5R79fpJVrEnalKYJWO/CgCtKLGaaiC8HpUqFrFlyZjALiWF8RSjWTZPHfQ3KCr7yjHP3Z9ZyH4VrHHwVALXyFx83TNOiF/BMecH5KpBRo8EytVik+6NRqdPDr9MhE85/MHobGA8mxXx8U+1/slstoBq/gvBDJp3c9xl04/5Ovwo4zrowBHqcEEpNZyZZcZH1l9aKvgz7ttAcfKYUVt+1QASYjjp3EMW9ijapKH0xd4NMICxTRjyhUtsYC9f4Uppma3i3FOg4uFq8yxOMymjyTLwwSBN1Z5yxXHy2hWWr0gAYC+GvpjUjX+TFKEODMhMWYHk6d/jnstumPn2o0WYArGY8KEvYdDturGdIbjEcsprVW7N0DILLoHzd4H5P2fUGs6QmRxHc9tyCGeDYDoB5pAhavLn3Ih8cta5LesWr7MObJoLn+O2P+HYM/ZK1yedeHFcjmZC5R5+QUTw6SPK50pJpWKr5JbqTdAtEZGxfxBfeobZpnlPRyRdgC7tqa3AwXI3bIMrDPh6zJYbdhkpJECA/Gh4u63Gt9aIcfAh9l8YFMg9W62jdCyOoTpdstnCDnF4SJQgbZJ6WbD/nTnb3z/Lb5pwKOkkAAAhfFvZABaQhj2udfvg3g84mN02ZtuUvIwEHxqQzhY9dHbCeXtXVtyZAepoVuyHYRCm9mZ6WdipuEzJy8DJHAYaAFqrP9k9Sn1k970Gd1WHcvdqna2A7gns2ZYoIw4PCYzgT3nSS0lGKvczDzbw+GfyAcQfWARNaLwHKMPVANjK5AM36ty+by9uPcXNHzINCyzalPLXNmSuDI1xtqQUsZUgj+OP8jaenYDS9yQY/byLpD9QbTBS4zhnIt3aVpZee0PHoBqXnuEZ7G0QGAqgk+vdqhdXMqerTJUEIqGC2QjMzG6kxrw+I7ZrrXhANvSnngAy1eeMjtYDUrOcNVNmK3QG8KJrTZE3tRWWr4CPsoOKZt+2LGbcchjJKL/nCzzsNukT86wRhVzBuBr6HEz1GOQfzgFvQ2446lKpEku6A82bEhDnP/EVy483P1eCUGwnEQChr3fqY/BmH6HvhkPqX+h0NkqSzBON+aSJbfJj8zKOVUaiIZBa1r1/KpEaddFgMU72UA8ypqWKjTptJ63p2ulxmU1QVfzkH+vc8iPKbKuFN2bOjBGCGhD4yn97rhWNdCVgkJDTaRWAVJ8El9E32+XyW9tyzXKxqYirf3AGFB1DUA9xJA3L3EIsj1g8m7owoqn/wIN+PlmmyCTAvhYsoLU5NzWY2BVqkCryJ2B4TKbs4QmBrbOJTBDodn5mWAD7cLsLCP06fDelkU4TV4JmZIxvVedxGcq9zaj3VNH5Xkn/snIAAAAAAAAAAAAn/NL3CK07idzdFDkcMXSMwwKgAAKD9duiKK8AterteYtMLTCkJQSizSUaAAAAAAAAAAAAAhzaMB+v1EV5CXlG3rR96UIm7Zq5YFrheWudMUnTRTPV8LpYcyCcTGZF2hBP3WjEmSvYEdnN0dnZAupahOI1xajpInR77NsaOFXfWZjXKhVm4qkHjDYFYTrq7xWAAA8QIMGhrgAIYQHGbZ3ZctDRIPP9fetIkFfBdebolqGRs8n13iR2XiI7HCInxq1dYe5RlrJ1s/RQQCcmxAwdAY6RSlNUJ8dCkWAYQ2Ne2cb5OZCu069DDpmlSs5TBT/vDzgBk7g7xKNa4Pa7Ohrpxo39IayICED2xAjK0Pb3HpND+VJuiFth+VihkWt9C/ZyWXm6zH3FgNJf4jFF/CaDwmYXXTgLzeqSgoA8/IAVhQ6DJ2Pv5oN1rRPeL+hiaT9+LtrS/9uI1LghjFCtJhAki7Y2sNFuAqpg3/LbViL3SoaTkap4AORV6doDyufRQIg+ljLwRBvXymTZ2q00qZ3bBIpC6hDqSpqXB9oJ66nwa9KA4J7vmlNp6eRnhjhZ+uXUfi3YvdAxxQ4FOcu0L0mr4GpKMAioggOBsrmtQFdmQPs0e7pbtGIVxN4dFyYQZhicDrJYrRbvaTzjeeR6j6m0aK7QyHBpP8damNc7Svek7uVPVcN2e0DYSSidiyAiwjbS4kg880/hpF/mGsBSIEiMarqlPhUE7pDXL3fFGoVapxvpfq0TcwMcw6Sx2STIFwoyZ4K8hdZRVF2wSJNpWX/Y/88yj+sYGQp2wk/SykP2HmuN+zS14wieXPTKkDsmZYIMs0oLOaXDl8uC653YpxjJf6UP4tRJfhct55W+2lZJkDp9ZmwPVSZVrbSbvqbMVYqfnkLml/bRKX8feDYWG9zNYLmGJwOslitMhMlrGjN1duAh5Z1564p6wllMhGCQ/tdmZF4yK2cQOVqT/ehSwi4VfDEuzAtfNcMcwOLx6a3Ob3OhIIzDemjG5JJnxk8WlJ4OEl4d35jpzag/kJbzk33omBMO+kaoPiSstv51MzgIPk9ORxmduzBNLxenLSH6BkGqtAYzWk0APlSNn9MafJp8nUWRRkUVMA5yj5XNzwBPD0gUc/1F0DPH7LAtIQNVHILrR/UUAC0oOiQxZPop2An3k+4pGyLcPUKCMUrpykfHxbvRk4x3LaPEFgLMukzbjUAtn3PGlckIJt6smmaLxqFN8VfDFK1G9QxbOZjAizPZqCK/sklE69hdNApPejQBllwPoxNxPr7mnH93io0efVm35iGhAK6MkjsoVmHNF2Z5JMRLjiMpmxLgZIMcL0BjMS0T4+7emlH9YRQsQEoVLZgd0zMlwy7hMrgn1EygVS6CSzZ1KzNuA01Dvrrarnsu0cgQVC3xJr4JDxUzEaMEAjhtAEDISXI1K8btl7qdtNn22PZhyoQKBrDRpd/xGTfMmHfNEr3P5R0nr8R0cPJ4OG3JLXWm2zK+Yvap/8VFg6qAC4c1zyWJ3Hv6vS5kjYW3wvaDCIndjBhiouwy0pyfOaGMgka29jUDmlbBH8fZOkn5cDJ6VS7l59OpvqHlgNwn0N2W/g4h7CChxIP3CO6rCzJ1oeGGHQuOfoAATUnFxEnPJBfP48kV5dNy6EFs9g9aq9o7lg14ulKwz216K3Hc1A7h3X5bNint2liLQOte2wapvfjQdTEA6bTT7M4xj8ub8EBmERZ+AWwCQdAgJxWcO2Iz5gD/5L8B0iKg4H0AySJHRdolSotLZ5Ue4HNWuft/IxGpRnDqkBM5R7T4C7D5/JONo3ji1uWbfCixKgoggtZhLct68d/obyEorgxh0CRugxZH5lwAgCf+UcEoByK1kFAuMrMNS2f9OQKrwwhzDFAzPjkDFrdilUuHluGowibJe0PuiKyFW0HZfO2IiOEh5LVEm+oUD3KXPzUTmD5+9ZPNMwFPyKaKulMJJoNDuIpCKwu6Skuo2a6q2W9DOcPaPWQZLS+FTImWmF9/4Wt0u8p2b7Z8bVV16i21HLDdAki2crNOvfHqCtv1GGZiTh++bYvRaZAKRKS3ly7rjm1/sdgkQ7X27K8pw6KZYx+Q3BaPyVJWsh4BQJ8UauLAs/id5G9KkIAiPvBi9o+VNjTEyWgwAAIQ94oDRuE8Uik1VIKJkAj+LT0FNsqNS/fdsvCDFbqfoVkq7jGFzvfwgAAQ9pRFGTjnaz/2f2hXVAu0OmFpAbOP/aA20BtoDbQGso1GTrk6EX23NRYVGKti4mfklIjV/IdAAAAAAAAAAAAABgLp+hfOhLKNF0i2xG95r1Ht/8xAiOAOnIhyZiqguUos9w949G7BQ54PhxezgAABDMWUkSKoQiU17KzKtldYi84H9qP8KO/rVb2JbKMM+rIzWm2xTWua53JjytHpmgZBx6MWbEorWyPjveGeI92toe79W7IR0P7HNsSzQMt0VZaL/qQHJu3jchzs8MM5oqzO+kFrGS/89ZfMTYvFWqlQDNyb5tfPtFjyCN1zZpnylcBRkG3oGwIFelkFwwv6709HHqAcTtFhD/vRDMkmJEX7/7/MbyO4Wet8mmIPanwjiT19XtS7Eh0NBKt1HDgpuPhGXTToVYUsGzwAQQt5TPiDu/XWgkt+QEOhiyStwN94AGrHau1C+jNd6/ZmFd0qki+9OkGJhzHNcJTNvVW4uUdnj9WebIj1OEVfAY6uuYb+BGuA3cdAu+XkHVkN4MOjfVAt+o1ioIPvdt+3AaCJTgc+TQL9z1Y5yLWuUD7z0ALiZn17eJmq4quPm/Ul3EqTXuTqXZkxOpfJU6OAmDr5KqnOc/CzNrLutXTMAfoFG5W8P4rm/I08LaETygcy41DkeSSQrKJOVl2afFX5WBDfe76S8HKOYGxJ53/pYtZyev0HLgzV9lXWUzUiu7vZwEbzCco801Z1E4O9EhJU1htu+IuiJn+9GeWVBH4by0NXnTHrQshWw5HPq1QWeNOu6Ed0CmieOkbOaV1ij4ZxKP1tzkl6eoxBxVMWh6J495LbcKwOHnZNc2b9w9yw8iYUsQDt/UTKBVWagpoILp20H5NUc0TQaagUZFc4fF/BVAmsopT5nPQdn2utgyw0sLl56v5uBU22Zysge2vWu0xImhU6/RmSYkq/xhfntKSvVxtTTqdTLAAVAAAI0qIMnIBXLQSzWay7xGFA0/9gt/oKdzz3+b16NoCdUdT0gYt7I6S1t7vtA9DrzHZC+eSShzYd4zdW/AAzuZrvXmPjXbBPUqE2V8nDV2qk1PtYGb/gGouLEAL0/+scTRC7LtxVkSNVwq2WAk8Z5oE3iir6pHYJiZg9472Vfk2CcePzweoOn2ivymU9hxCEmHwmFh5iSKSL/k+OIoiljwgAAuADxTfKLJyoNeQsQAAAoOrET8IXbhhjSV7UEHedP/JlqI2wQAW42ZQ9b+RUN4xwbFgQAAAAAAAAANQkTpIACaB2idoZqGz9/XaBL/NcMRdRBy1uQn5iJ0CgcwiiUqheDZoDlYg/5G0+QIHnyZM+QzLGD+20P+OztEEnswEUl+AfLy2qXzoRWGI7rPvPCv4Z9n3Dpne+F3b9Qf47aRN88wmUV+5icYWM8+VBkdjGDzl7zw6Z/2/A7/wrbBFVz0Rap9d0BUilA5LRHyIFSUUUgiRRVyK2wqLsLXG1EjE9oJHn2Z2xVv83SwLYmEmtiv2bhB3YXwc2bKtGVNymIfmoEG8Qj2XTsgujJ47BPKTT1Y1HdVABAPFBCMlnW1JX03HdnPNbtaDBwjSoZDe+M3Vn5x3nfP0OfHwNe04stxMCbwilic6UJ3U7GcWAGE5AHVZvXdYu4I3NAkoA3SXAREmOnX+1VB+AqzrsbpLlk4UT6GNDZsWeIpfFC4lPE+Kgq8qRClKLhWuEmd2ml8dBJV8nGU5xxhzO7woy28H2fkFE03kX/xzji9XhQ5BJCGLP6TA6BcgP5Ch8jIhpJeCa3sX/++M/kcQnYdOGYkampTnh6Vde28Z1v7WcekfsUS0dZSEaqVHHJjao+Zel3cWe+dlmoGdH776PC3IDjDECxWP00qOmCwSRsnzkP6EVtu6gVrJrRPnOq2nlx5LqWX3apTPAg9TnbpwqLeqxLQSdMbwHHAFT8yuhwRM+wmAU7kCqNNykCwo5QMe17Lo33xCZpl16YqGC40vuPzlyGK9+Vu9bImFig/XPNhWLClH2H9oJK32hX05ru9ETHxYHLnv/pBz7DKTi2ao2L+KNa/gd9f/BpmAZpFeiwg8E36DMD0ecQEOzbjqyM09AGdt2DsmF5uzkiXF3LQL37tfSaEseqqPShvcnnamvIi89LqSUsE5VyekMIfewYb3z6LrCYh5osNTo9V43giGou0IpEfTB3pGOkIyA6LVV7R8pHpkmrZr6ToHggJgW7tnyUJaRtLmJhs9BFaJto9/mrBYjdjBjtt/ZdAHAxBi/6GCpV3PUasr0xNcfrEbWC9OdL6cJxopD53UoGJcdwpZLFJKegBq4QvlDB/pcU94SGScD67d7DNgnUq9FWIJcvTlvu1EoJ8SHQivCQMYCMUUS2OFIztTNaScQT6Et8YRM9oEUPPplMvW/fAxMoHLv6M8ciTLhsqQceserJrddTZmUdcKumKpXvNScVpk5bNykuhun5Q+QMA/Ay7cM9wjWHpCZxiaVA3cWKosq/wLGtdXbH6z49Tval+tqEV0JHZ8Gs6ScaNQCGlm3u8lMQbI0kkH+c96cstGnNsSK0ikYq0+hjc4JD0dUpXNwmR+rB2QPnPszN1X79aEb3bgHvPREFb7TpdUReef7MMdxjEnD0jGNErkrQqOhMUaZdrqJ0rTST7wWCkrGxcs11H6l80zDX3M4AAEtTcv/XHa2+e7tX4UAB74nDW9nRYlWvuAboxDOMoZQWQz6m63QmcdbSa5QtZNfdDQasZlLYb7sPLY9pH3sjiHtgk/s/hxTCfxslrRcz7yersc/d7oCGq7VYb1rLGe9i/q/AjSdbz9vriRccnp0tesOTuJEO0jJnR3sng7Cx8URDxjRS7pgE9+ONPL24WPR7pLlBi/2MGVQc0nBPBbwbmx+U3SiowaWefwO01YunczUkqXdxZu0zYq0FFjshXzLbZOUcAHyJRGZbvhATdr1obqhby+WQRc1eRHQBR+vE+Enta0PdwV5bRyVSLGCmftj+AfJr4yS6t0O+k8dGlx3TwIAA0E1+1or2+G8YmxVdIqW0nYKLJHW9JsnQI2lTl+s1ZQ+BLIcxOLTfAUD7iFESMbIylJGt9XclGQ1RcDAmcfZSyKqusbrhB6wID+IYPP13lk1rw5Dp9kygr5QYWj9ECM2B+HulDZZwheCOjRtk2WlwYKw0XlVxmrfnJwJZNIM1L5yGIsWBao2GZqrqxZmvieEx1SaK44lHZxr4xQuWxBn9OcdiuG0JcYImaHarod4l7UYgHM6vYC7Zotd+Qiesj+OZJoH6OYn7J2er3YM5nkJViLDi/u/8qW5iqin0WL9jem6MaI09Z59GC6q+4lsMg50F9xlyk37WSdwtPOGH3jwLBOC3/+RFoOjFyGkFceW/QvhUAXWP3TAAfCBPXAHg4qL+H0vs4QUsh3foqxmQVor3i+EBjqW2QO88a1GEvnCoF0LqQEPBK1mntjDh4RoKL+1/BdeDySboByInSUtjWhZuU4KbTZTZdo6GvnZchKHzFlPmozTuli8rGV/LEGwRwJeuRr9/qxZoomDodh4DSzr4s8nuEQGmT1GE9BctGKhK2wAT39N5ZvbPulv3UtdffkJFnKGFGAefY2PYTkTNgBTD+9eMKaGDmsKpkOn+z36cGlpepoTUsTMdDe+PREJdM6GjApA/1eB565k1Tm48wvvURqpCFuWfIwFMP7RwLbJ0rxe6o44lSbeJFHHVDTJsPFUeEnVmHPTIWbblwgsFJdHWgNRnbD2wLT/w3+CAwYw1VRppXX5NH4lDokl0wnFkWTxO0rv2d9OSpq1j5+33ZwrLfdEmUqKJyrCn8MvaAf7LN6sTLY2djg+LTwj3O7qgPLCdYDGauZYINDoT6+f+AWtfkUtGqNDeFCdVmyDtCNsXWiChNdAh6hD9LvTY53HqH6tv8J/YGUkCGkWPZHb9J+1Y0SThXN6YF7BK2TN1UvrlvORz3fYHrROrYXmGVtq2uanA61Brp7yyn1aYhfMeEJmFylJ4wheGXOXnce/j9QPgmsuSuIQvzE4+PC2UbthbolfsT1Cgdgbh4feQUh/pBhzJDodVp60W2xYXkZZvxyxN11SzSZm2LgEl+VPRb2y+v0idHjag5fflG5JDQpH58C0o3p/1HLV3EgBlEWI93hNz+B0Q1QPZBFnGY8t42sw4p7ScGxj5BUkcXAYvlhV9L8nFZKh38EM74eB05Nm84qTNgWzWAMVaC/fhb1+kUq2lmfYRrWaxRUYYpgr6hXmvm73K4//gX2USIrJ5GMNC32JW7Y0YVaNwtWT19D4pWwGkVbr/+ltQUBGj91A6MasK70f0lX3igNyyvbnw80dPPcs/e6sYS8HdXNsYOF15dpDwQcm8+QoA7S1QPQHdDD9yrtyY/lEGX6dg50xF5HGfIih/9B+aGTfxG27QFm/dc6LEbZrWRbY2TbTR3lEfuoobFYoEM6iNoUKa5HuHoLkKOGXNnJGlnqCthxxR9M3Etxxtj1sbPyvElGT61Cv+YSTFMohhyu35QerdoXH5b0RnsOlB7pH+3ZlDes/zJr84rjd9Gid1qMvkwSdUm4th9FOUOOl0q2iCXeJIkdczVYDBqcTQuTrUVhsdhQmD5JT89QR4dcJtuxWUWvTZXjN+a+AeBydqrWv1kMdkRkmjK7w8W447bzusoCgjiQLSH5FEaNTAS2vSQ9SepXSSJA78HSCaOrKCe+Sk3e3u+vX/AVK9BFekbqy2VSBUekPVJtKsTh1emuBK5ZbpzpOgsu9E37cdMprAwv94Ehso77EFDB3EybgiwE6UyWAZmjxNcPJfgwzeu9aScbTxdQpe/pPZZBwps7iTQCYJB7cDYazGoKG/wbEZL/4buEEDYP5MPwwHGFA+a0QGr7641lTVt2Rm7c6G5MBYnurUAWMe8PsPxa9FOu9WN5S27Haka7BLY2pSlksJJsryS/Q+swbfJUX3Y883pL2IZubmwFh0TUGw3lfyY+++FIbn/flVlTHoY63D01IGWAUK7SbVdB966xH6E2JCluSJI+TEyOnsttEArEPr7TT6Oz7ezIWAqWbVtuqp+vC0LoJqA0RbxyFM/HJXoRk5KDffaHwupWd52bc6fqsYjgDQzl/Re3d89PkFZt78OuvWWY1Vh2bwed19o4cuuDPL1O7Ycv8MoOr/T07sSmhkhlo8w8fGCV6gDuDpiettk0tCvwijf6eO4fXzbY2Dd2F6ZYNsUQRVfNP6Wj2cQ8qCVsFqbK1wpXRfA/7vg++HlS3Cg/6bPyKCsKRdTY5YY6IAwn1+NxF+HcTriNUCZjasjloX3SgmR+1nOR+R/S0krgkJ1FYNSFvmN6f/oaCYNKfGUznVa+9KecGoitBTIPr1bgqBCU37UTzIGcURzMDlvTX0XecrxgmZ/dxYOjtx26PrM92FCktiWG/7PTJbDoZA0DFHHG5tt0OqExvFwlp1UJdHH6TgLGKS1zJj72HMsGhSu/aZ4PuCvhPVnQPHFUnVa8JVBi0CC2OVKOVuR8vV12kZW2epkNEX6zev0Cw/taP075UQ76R3Cgv1BOdHSpN8FTQpMBm4l5qcoYSCNi8DukpDdntCjeTCqUiKJxfgu+QVdH6SLFdD6EZEEKXK24l4/9/10foWxDlsgQZiJOu+Fhqcmzf0knxHSdmm9DktQjT96sjLlhzq93CZS5XtRRdfPPj7VhhmpYNBn/n2GxR3sz+HSbs6/gdL5OFo2kVSbiP7jfei3NrPfQtj58ZcwDL0BE7oj+jE8/su4wKfV88ZasQy0NfyuTdS7wM3POZNOq4Ouj7bzMur3sZDUJKirwbQy2lelv4Js5VH8KXwyCU5eIG6by9caaCLYOXuJ2CirpeA/bIy9Fr0GQQN+sxahgOGnIvyKX4xASiakvdaQxobH52ar2wu7yBUhbqHyq7fvdRGaYaacjd5yeIFtgNGCYhFxbhdaI7r9HQGXMWVK55HV3PUrcEOgtV86PPGGqBmKNtviQVLz3E0snY3fCAmu0qRtm1eWdYiH5V84W87Z1g95bvAoma52RZwyklvY3T5IyUQJFiKoEo6uWnO9BVx1HCRGgHvoDa62p6ySWeKU4hhj/6BAFuFVfK7NrQHL+yk56tEJ2/v7FHZUYB+Q5oqxI19OqQrZqttOXzuMMip5DgugcxdIDD5Hlt340IraXC4WegS28AYbtlyYMHTb1LrgR+YmSgAAAAAAAA8lN84rgrqIuFaZGsT7cyj2ec/HlvQoFDJiNRJAdhGhJr0pqYsOfPR9SWE7idt0we69cqaYRv/rQDbQB/W/MDAwMDAwMDAwMDAwMDAwMDAwMDAwMDAwMDAwMDAwMDAwasJhwcHBwcHBwcHBwcG3Odj52fTAw/xSnnE8VM9K+wSu3IDC2eVtMl24BPIUwXqZf2oCHdeG7EbdWIGbWHDkGL6EAAAAAAJRPgOQ4R/KY62lBnUxpkk/iDyU+q7/qkaHIaiVxZxdn36do9IQFvUEHJZPlwWvE2312rlqzD/R/21THcqDz+ncUQJpAPrvwJikrEnMGjIpncfD0EwxlgBK1wqfBA0yo3QTzSE9pIvM7EQbdu7UewfpZ1xLzzrnS5WcoqSdYeJrzxWSN9amm6VT8W+UK/rL/BI1g6wOAvtNhfiGdohCXiHJzQ1kTv2XTvrgmroY7HzIvLzCe/oxf5cvQCjpftYoXfsxNzGLLmTOxMc1DF03l22KcFG9qPiPoydhRUDh8jx+kQOSzUWzciEBvsJKyoA2cAxr3bNU+3ZuUWOltM1VGdP2H1B4wk0gq/VdR1A42C4xD+flvMpWgTN5tV5XtzjAKeGRx0zvN2XrsrocfX8jDEr384rpXxbLbx4dY5GmKGmbsKdqxpYIRGe3ntn8hqijZOdgL5W01E/u062oHNo7s1MDmeG3Bi2LnuKNgsREbl4DS2Yjpx87zbne8D87NAf75VU2TQyOXbAOHRe/IGOx1aAZqRbIFbj/oFbtf7piAQNB94PVxhz4MNoOczbd1b+UtCodSMs1wtABlXcUkIKkIlUNpZIxK63Y1WRd0mRsVMAg6/gFo76z4k7BpoNMowvcSANH6ZgIQRO7v4wuuBv+2MPDUin3z5ST7JPiDPmC8DriTWg9ssfO6KYTEoax59M+NiUAW7ocjHlih4+wX4raIAA2WW13HAUu2+PrgqiGzIBaZyYpHNk7gAAB6B/RGwL6J8OhGWgc0yL3r8RfNamSayClVeJo0mZyK/rJggeLJ5Tv/1IWYZJaWu1CsABa5X46P6aOwQoKCgoKCgoKCgoKCgoKCgoKCgoKCgoKCgoKCgoKCgoKCgoKCgoKCgoKChJ4raH+00qYB1Ou93WOfjSsWB5o30gAAAFy692Z9RrVkKqwQ4YGn1LnOSW2gsbrKmshLDRD3RCRfRzb6/nGPrL9zpAku2cSs6g5TC9U4+T63QbEWW6fwvgpFm00HojngoJKWmQFxjBy1UPPUbr/TYILW72/OeKRZtM9JO4hILE2R8ikRH9vPhwctVEz1HFTw0MZIPpktjlgOyqZFQctVJGgG29b8JMYME1C65cwBGxCsIP2dXjqqzg930EAIVWB2DX/zyn3N26hevIXfFCYfnnsVAixwfHkGQOAO0JRtgMH2kH8YVO600SHaoWId890lMgJqV3VHnHunswVWcIxQgsxyArJ/Fqvbakrb6cwWD5Ij6M8xnuIBljPafHNC1jATHOf0E7KIJ/H8Ww74E+uazwB77rKO1X7O9+p4Rl1Wjt/eaTLh4VD4FTej0Leuizr9hIE+hOa8Bm2hsb60uROaIHmzRRmyVP7O+m2MPt1HylWPufgWSGcMxCSOQq+uB0UepWviPipVjL6W56fDGW1eyUfpODcoQ5tkxeCNnsTd240cMdP0/nvtZ6wJP3AE88kYIvnxGzCf6Ni228uTCV/bTbnCDjRXMt7cbqzo96js34KlEib8AKmL2hmrmsaI7oUKOp51PDxlmeEqW7EnaDBIqOC73yfKgmgJWKzMQNwdUM/Gjf74v6OgN3osYPNsGbd2R/C3caBIA+Z/JJLKn2cugnD8Bff4DibFS+UCixgOYzPYhjbmfDMArTts7j7YO+wWkIYA3TES97jZNvarjdm4dp/oYCXc4t7IyhvqOhybIsAdXJODaA8Gy5G+hKv1hNRe1pZHUJecGRgBEF9Nr7VLdZFNszjO+fLxlmVsQwF1xBxOp/L2r41yJgZi7/dLC5KLMwZD2sIQwC4CseIFt+2bnR8OCJJ7UL/Q/X+uJDSVzIA3+lFHT7rqwZ8ag2w2WmJMJrC96xVFmFiV1nh8qXook75VZYc1Mwb7MJmapwMP//o639RMAF8Gwi89n8IoI+tETNX6FUzq5/pGS5ZE5/I2S7721A8FZ/SX5qabl9sjeuCEIwWT3+WlomwVjqVmDzP/wTUn7uO4j4CdG20FE9iPhfr6tiKdE6SMt1O46jsVM6p5QzAo3tcAbUBL2cHSyfOWhghK6aD955t22DMZm6lquxOyr1yVyj/8CpDD0TK0gLhj5PyXhwpJ/YJiXfeHzLZRiJJxH6MWjK5/8PXEcyZ+tMDXgj8K6uKzvRSIuTglYObRr2tnod0f3tEgjxRhxZpQ3O4mHox7b5oR6EqNkc4qescPaFBTsGl6e/kfiLJjqVLb+P35XpsfEQzMYP+K5HuURIQPPwmxxDOcrJoFX5HVpJbCEYjZTKlNsT+Dcs7MI16oac1eyprNnf66rDpH5zDWZCQytKgtVWXHiIid5sJ8URJ+2cNRAWNWKkWpuZbzewDg7oIdJ4H5HI/U64k1BmLfZev2skRjfIkBulTKobIq/ZzPiiYFego9fYUuYybeXrVvJnkMGVnue8y8xPFs+iZdMV+mTKCGXV9XIC3GYzQDwX6Zs8BXyDFaKhqAZD53MVPp/FuyAp6rs9/3IVZaEK1MRZDXojmUgvnlQ8nB/SwKvIb+mX5DjRt/jepIAfuMmIJpUhAnG9R/rw8Hs81nhHswEjCl5M/udxd5vuvNbImJEjGOO2UAp50/0q3K3z8TFEtx5OPqjDgxm6dj5uEPELT7TKqOZaTfQUcEhrCazrQF68svPgDwsEcTZKtMt4zqk1niAH2Ojl7fw9L41AiedNjU/4bYl8LKAms04I2obIFzio5dkZ8x4+THRbMctVIhvp6sHNoIXylN6OrtDtn3jiePnABW+V4Z0g6e3EaDrOqeAihpS9pmVVcxfpmBzaVXBH1Hb+MdvsK6zELrwS6Bkii9miaKVpmPIr3gI4vMF3snDMykvE8C32mwoWCQAyKWCSfqoBDeZvwIN5W1+Mi6QcdqPLV+ywAxJMaHdQX3GrsyrlmCaBG5G+KYGNHplXsb2+CoOCrjh7r32kACT6I/krrUzyjWRceD4DRapxT1apGRFr1dUVQWqa8FtE7+wfa+3TAS7LZPnQmXByZS35+9F6cw98xoPIkoK63L+BGWUqJ+Iucrf2nldziQMVDjQDo1M/UtQQ/n0G/ktjludeAuJCbhgqsvm5L8vfwOuyc5z16Fb4xPCp0xRurl7OImh9AtragGoFxzq1p32oH56PELZK7t/BX9TFA5QAnZrtb0eo2pvJsdAmUZXoBl4mpoHRjF7SUN4n50867PaQgjB0BzCSDZoGClmco45KHG2jHTcol/wxfchieCAT8Kd1lpoUsDVdCdBZD8JgbdeI1j4kOJ1LpxpNMOzYrw/C9vLWm7naeASAQAOAAnUBgVAzJVg4+khmVkdHiQlSYahEjlCL2oP5T2iFBVSECI0DZSJOhXWr8DuUGlXksUNqByqbFIY1dZfYkghxH4UUzkMDmnAquszhn9AZ3cTlpOSTr1rmzY5goKyFglqLinUmxDXqjlHT2mDGYyVpWKExGfmf9ILHS7T/3+bZoeDuLX509MAVXaxR3ZQmvFFuCioXY4n7dsSO5AOH4m16wvERnE31InmvVXp5bNuWYB3M4XcRdgul+kDkYNXibEVanCEV12Ue+1JhYMhAF3sT3UNyeHN9kzHQxE44b88fSNFNlXHtD/wsWctf3xlNkwTIMgmeIbwt9YcNXfJBiX0ohmDGWtJAOsdO+VhxcbeB2/lLAcFQBDXT5RSAA8Lqyaa3kBtg8vdQ30nG/HN00DW7/1LRpXZlT16n+6iJOFF3LfpN/1AYEgsHoKDt7YvSU7BBGyGqE5ACvS0V+Mg/sSGgT4UZIyVMCSbqiWheCR6qB5G+OD2w212QRFiLN3xA5fvnDswXx06NOyJym14sWg0ItguFSFAFlMnmQLXC7rFXv0ieBzJlODVmqFgdtojofNmtneMly2KKdCdlbgIFXVwOySLV/d5vr5fO3OXh4Psk/B0bLMu6x3XefAJvwklUq2NB6f5/36Bt2nV+dhNr5m1AeADDro59F0F/BTT+SueH3VVI8a/SzbxMiN60pVy6suGfCFzfZRDrwavYicRp0eGmF0UW4CUe+O9WyNWDLnEcrjSR7wv27+fYinLb8mpX8KfskgN8KtWW1TJulUrv/PujCJep/4HpQ8Jp8LFXVcvxjozF4GDjQ5AiQl3fSsq6J0ntZ3Hww8JH+flskK0wpbOfDMY0aFFKxYDAJgHSPS+pDoqhxqpSaynpW1ir+Sw9KD0YHqNFJ6Ba6zyEo4D13JNSx3tc19O3A+ky+bzMBYZyoIO5I+OHbHaWqziq8ieBw3IoqVNDRoX95sDra4aMDC1BKRWD8KpPTrYuKuVWFWRTGLwum6zvDQ/u/g4vkx434ZKMig2iPgH9msQsBa58QVX+GJJu1Tn/5GSxDDjf/lnQy+QHaNtVOHsp0/EEhl3aKtJkOgbzL1acSyTWKYdFYqNAuSJS90W+x5CSQ3o5FbQyMFgaXhJWErnI4SKVYd376brAWPI9CIbo/MAWnXPjvagp4WsyMySbSWDSjoqYGxCWLBzmw5bhKMtItrzuny6AnDFwcsw8DVSjemmQweAuNpdMr+YMMeEAul97S8KGUgmKirN+ogb1LjNhSqckAslJQ3ZEr5818magFVKgQTPcTT3ECBiaXT90PPKUbKcV6rvs4ttCrUOvK+1oO6gulnOre6ULP7RX9sNguhbclfTJpb3BNFDtBULZ9GiXYg3lzNUzmLiRxl4cnUCbS9jJ/E1fNv/JtiLmIPggLoLHq91jxRVSTzfTX0qevpPMM+4oIk5/M+TKs2zr570CBYsC9RNSsT/PPd2TDpNAMMMCZ77egNMVVxffyl4TqeOkyBY671HzXTFS1MW8PeyM4xekqOrd04jtQ0nOEAAAAAAAAAAA2GgMZqVFTXxgFmAWYBZgFmAWYBZgFdjplqlwebi+SnLcaSTw9ApRmwFsugCvB2fqX9Tcr9SQB8yBnDQ3HO5MQel6Jdsfqa3MkGrvpKZnQg+9o6TsRwAyyuu2yhkmZX0v6Cgg7RLBuKGCbaduhiolq4wQ5DWL1I0fQda77oYMAswCzALMAswCzALMAsvhABc0RV+PJHkYHHey18OEQWBZKSHwkg95OG9aWpMk9y0BdsjfwJLj/WJzqO5w67kYc3o4XslfHz2yMHAAAAAAAABUYWEcyHQUFViTX9VKwVH9M0rA84wIwIwIwIwIwIwIwIwIwIwIwIwIwIwPQ5xoRlGAAAAAYW9qFP4GzgcnfAWHCarS2VMV+5RdyzF3BFKPBjH+YXFAt0U5wAU0dr+HqDh9Qu6n/M/BAbSIgpnhkLJdyydBZT2px4WRbX7aZScKjf8HHUJp6V6S6sK0f8xImubRMJ4xeS8kfDputsNhum+nmg6mmFyYr443VK6cF/gm0CdJmVt//DBOIIUv88NYQIeCidnTcQ6WSCwQVVANJ+3lSCX5wBrPAdZCzZBPikYAfgTwKT8L+lt3b/r2uzpFQPpx8V8qizESmX+B0Sf4woxJd+cfm435kjDdNLmyImYTBRnsxh4W2N0XN+FnM5ahY8z1ahMu2EA/So8DWyzqAXNkksTQTyUuKvZpfa33foISVCxul3gdqqqZFo0pMSboyPONa79YwVMVdsO/Youmo4Glbfpn88NYnIHO+NDJ899rz2wR5J1c9UtTFJwioMEk0NlGBwaXO2Cta+mu6FJ2HThzCkro2bIK3eLuo6XIRax9KddQYt/WVUbr4O5J2qW5X0PyrAS1g21+u/6/HWtjBElzkxmEPqxYBwDxdt/XpLFSxfIBquEoUoC5v05WvvoHz24eOJczaM5KJ5RM2sDk+CtM8Uq2eweZzeXmL66QcrRh9FAbHoXayTKo8QpNBOTDKP35uE0B1sqDaiskg10eWfidzm8/fB8EkaZb25n6cYl1lqiZOqfveNorv90cFS4Mx/ZfNgJnFgqfzoM1Diua3hSLx7fGTejOP+LlgJ1xDbtMoWktnFztbb7f6bg6OwJvzYfOE6JFnCg7rlbdqZj4XLGgW5mpvIfLRh7w8pGqfiQJt8F8Kp/7tFjFVNwd7N8RGBh4ZpycxckUytzaqP5QExEJ+z0mtM01Ofv6cmSn5FCIb7i7XV3i1i4IKHf5c9+4R6qmWuKOEdd9DYHlYnC0/mU8gLncOoUzyFbii9SaNOGArtvPjTIzx03IVmBLqjrINn2PIE3M5wk86cwjzIUl7mOqaGAe78XCiRAtBZJhT+Bs4HJ31EJ9z6O+VLfhfAKIm5j+/s2uL3vihYeP2XnboTHpMtLz/4P7ZS/3/wBUTUMnwf3tj6+1z5BxoQCynv5Ros56biGHCrsSp6Gz3pbvE1/WgLgLPsM8LDgEupxlGG+xDZpZlRYSPcb/3igW9p6z9IGeVemTTlIUE05I39zjHgboxz6C+x3jKFVrIkpk+JiPJIBrA2CLru5+f062lYDSOBeFoqeVlB1AfvvPSFPs4xmG9TpTn1Qlb5fls5sPsYSOr2rzWX3puzuD/DD77qx+/qEqCbqTN0BVwU9NeJ54yJ4vp9CcmZ4825UD5OT2dDdvkeUs6PqgNPvy8ACupbSbmhD4LL+eF+8H97SqIgCUNt15RfKqbN7FFYko8aXBmR6sIRqSa7x4bWFU1O8gf9uZf5BZv8zWgdMeTxKdCkLb/gWYOhcKvG+6Bapo2/PFC82FIlEtFiCBACuIG4Kyy6R4CwxaMa6gNqW1NpvDaplmZJ6F1J/FqXFjkq0YfGgnNeXMw1QHIheiK/BN550ZUc/6yk9smlDvI7CRagMFJBtxwqY/UNpxf5uF45QMvBckwfSvs6Gdg4SYrGwWiVn7kCrrtqNcwj6lTNIEZx4XzOjCRYTjhlHPl10QiDFfntwQxd0wfVG4hHUH+Hfwd38yZEIrjSICLTzGtCjoelhJl0EdurfFGi7b2lLqfGkYhgpJ6jsqluCXrDVWVeTfW7rLDkkGgTUb5nFErE+EnWIPIr0kRQ7BwyxT6ZdWYqBoBFKe72DwptbwDUCRM2RLHrgRbqD49f9N+7VtmTespEsRqyNXe7UPYQoYnUUUsSuChvXVV5VqVupVdGz3G7jZkWA0hut2HwvACKHgoYIbVW5tXqm56PwEFoIw3XjaznGdhQR0FGZVbjCstMFlorAqE/A5SNfRDVb+8vslLRau6kk5UWSUosb3gq/06RY12DZupDTaLOBC0kBbAg4rjHeT+mjz7QVubKyRMwE06s/zsCYkyR/yISnbJmxz/hhwlbEtROEHIo/0BCj0NH8OQCRzCHR00xWVXtgPp/PLfAgC1xfqSdZcrEytetGWxypQX43NNfG1ZsD58fU5jjwXUagWem6gRCNfxrNb7Lj3lkW0+BJmadYLHQ5fZT2KLVtCe3Rk4rLkHTmEAagOelc+Beo+4DCO72zRl0bnf9CcZ8du2Hdsq1QsxmOL2enEdaVC9QRr7mB5tnlysnjKPFdyx3hEdfDE2TQnpg8uRO0IZ51RSH5rMj3pvH2abyYwG8QIyD3eR1ZQ5UoPqXv8GZRXSO4LmEhNM5sfg+fGeskwrnLizm9FMzSx6loI6iUnBnEFqnig0HsdqwxyemQFoEp+8dcj+h8ENd+fAULXSBVYUAJbVVy21NO26m0QRN76FwnUB27jZAjXbtC0l4cTkdlsZ4lRKlF9B7IJSMVr4V8KAdH4VmRDAL6D6mOaA/RosQbNE6AfuizGF6Xq/yR+QigzwNNf0ckV3kBt5sUsEd9JmGuFP1LKfvjP2EwJEcKJl6aMTFDAmUwOUFUf8KAsu0YYpGviVRK8GeoWwBHfw1rmJrQarYspcV8XqZI9qLLGkElzteZRt7JxyBbA4GphvmOEwKKc/vwR36DaK7J1yJCuBvihpEKcEfl3IYNL/QVL4CeakAC1MA9E8j5p/t4FqY/opUqFrybHxcSuI2mmYW2LZbSKWa9LsP2PZ8xdjhd2Rs0fXm6sKO3OR752CcXuoio8LfjJ4nf51prb/FMKcLZuzzyQFTP0bLcL+R2+P82lBbr/TjkpBTKMNNuGQAARdYGDD7+vmorrdo855hwAABKhEtPAKOr4bknBruBAAAAAAAAAAAAAAEVYSUa6AAAARXhpZgAASUkqAAgAAAAGABIBAwABAAAAAQAAABoBBQABAAAAVgAAABsBBQABAAAAXgAAACgBAwABAAAAAgAAABMCAwABAAAAAQAAAGmHBAABAAAAZgAAAAAAAABIAAAAAQAAAEgAAAABAAAABgAAkAcABAAAADAyMTABkQcABAAAAAECAwAAoAcABAAAADAxMDABoAMAAQAAAP//AAACoAQAAQAAALEDAAADoAQAAQAAAGoEAAAAAAAA;" parent="1" vertex="1">
          <mxGeometry x="970" y="140" width="185" height="221.22" as="geometry" />
        </mxCell>
        <mxCell id="-Ki9CwcrcDcazu1pOUVY-99" style="edgeStyle=orthogonalEdgeStyle;rounded=0;orthogonalLoop=1;jettySize=auto;html=1;entryX=0.75;entryY=0.1;entryDx=0;entryDy=0;entryPerimeter=0;" parent="1" source="-Ki9CwcrcDcazu1pOUVY-98" target="-Ki9CwcrcDcazu1pOUVY-21" edge="1">
          <mxGeometry relative="1" as="geometry">
            <Array as="points">
              <mxPoint x="463" y="251" />
            </Array>
          </mxGeometry>
        </mxCell>
        <mxCell id="-Ki9CwcrcDcazu1pOUVY-100" value="&lt;span style=&quot;color: rgb(64, 64, 64); font-family: &amp;quot;SF Pro Display&amp;quot;, -apple-system, system-ui, &amp;quot;system-ui&amp;quot;, Inter, &amp;quot;Segoe UI&amp;quot;, Roboto, Helvetica, Arial, sans-serif, &amp;quot;Apple Color Emoji&amp;quot;, &amp;quot;Segoe UI Emoji&amp;quot;, &amp;quot;Segoe UI Symbol&amp;quot;; text-align: start; background-color: rgb(255, 255, 255);&quot;&gt;To avoid handling credit card information, companies use hosted credit card pages provided by PSPs&lt;/span&gt;" style="text;html=1;align=center;verticalAlign=middle;whiteSpace=wrap;rounded=0;" parent="1" vertex="1">
          <mxGeometry x="785" y="280" width="155" height="30" as="geometry" />
        </mxCell>
        <mxCell id="-Ki9CwcrcDcazu1pOUVY-102" value="&lt;h1 style=&quot;margin-top: 0px;&quot;&gt;Pay-out flow&lt;/h1&gt;&lt;p&gt;&amp;nbsp;The components of the pay-out flow are very similar to the pay-in flow. One difference is that instead of using PSP to move money from the buyer’s credit card to the e-commerce website’s bank account, the pay-out flow uses a third-party pay-out provider to move money from the e-commerce website’s bank account to the seller’s bank account. Usually, the payment system uses third-party account payable providers like Tipalti [9] to handle pay-outs. There are a lot of bookkeeping and regulatory requirements with pay-outs as well.&lt;/p&gt;" style="text;html=1;whiteSpace=wrap;overflow=hidden;rounded=0;" parent="1" vertex="1">
          <mxGeometry x="-500" y="477.5" width="230" height="222.5" as="geometry" />
        </mxCell>
        <mxCell id="-Ki9CwcrcDcazu1pOUVY-103" value="&lt;ol style=&quot;--tw-border-spacing-x: 0; --tw-border-spacing-y: 0; --tw-translate-x: 0; --tw-translate-y: 0; --tw-rotate: 0; --tw-skew-x: 0; --tw-skew-y: 0; --tw-scale-x: 1; --tw-scale-y: 1; --tw-pan-x: ; --tw-pan-y: ; --tw-pinch-zoom: ; --tw-scroll-snap-strictness: proximity; --tw-gradient-from-position: ; --tw-gradient-via-position: ; --tw-gradient-to-position: ; --tw-ordinal: ; --tw-slashed-zero: ; --tw-numeric-figure: ; --tw-numeric-spacing: ; --tw-numeric-fraction: ; --tw-ring-inset: ; --tw-ring-offset-width: 0px; --tw-ring-offset-color: #fff; --tw-ring-color: rgb(59 130 246 / 0.5); --tw-ring-offset-shadow: 0 0 #0000; --tw-ring-shadow: 0 0 #0000; --tw-shadow: 0 0 #0000; --tw-shadow-colored: 0 0 #0000; --tw-blur: ; --tw-brightness: ; --tw-contrast: ; --tw-grayscale: ; --tw-hue-rotate: ; --tw-invert: ; --tw-saturate: ; --tw-sepia: ; --tw-drop-shadow: ; --tw-backdrop-blur: ; --tw-backdrop-brightness: ; --tw-backdrop-contrast: ; --tw-backdrop-grayscale: ; --tw-backdrop-hue-rotate: ; --tw-backdrop-invert: ; --tw-backdrop-opacity: ; --tw-backdrop-saturate: ; --tw-backdrop-sepia: ; margin-top: 0px; padding: 0px; color: rgb(64, 64, 64); font-family: &amp;quot;SF Pro Display&amp;quot;, -apple-system, system-ui, &amp;quot;system-ui&amp;quot;, Inter, &amp;quot;Segoe UI&amp;quot;, Roboto, Helvetica, Arial, sans-serif, &amp;quot;Apple Color Emoji&amp;quot;, &amp;quot;Segoe UI Emoji&amp;quot;, &amp;quot;Segoe UI Symbol&amp;quot;; text-align: start; background-color: rgb(255, 255, 255);&quot;&gt;&lt;li style=&quot;--tw-border-spacing-x: 0; --tw-border-spacing-y: 0; --tw-translate-x: 0; --tw-translate-y: 0; --tw-rotate: 0; --tw-skew-x: 0; --tw-skew-y: 0; --tw-scale-x: 1; --tw-scale-y: 1; --tw-pan-x: ; --tw-pan-y: ; --tw-pinch-zoom: ; --tw-scroll-snap-strictness: proximity; --tw-gradient-from-position: ; --tw-gradient-via-position: ; --tw-gradient-to-position: ; --tw-ordinal: ; --tw-slashed-zero: ; --tw-numeric-figure: ; --tw-numeric-spacing: ; --tw-numeric-fraction: ; --tw-ring-inset: ; --tw-ring-offset-width: 0px; --tw-ring-offset-color: #fff; --tw-ring-color: rgb(59 130 246 / 0.5); --tw-ring-offset-shadow: 0 0 #0000; --tw-ring-shadow: 0 0 #0000; --tw-shadow: 0 0 #0000; --tw-shadow-colored: 0 0 #0000; --tw-blur: ; --tw-brightness: ; --tw-contrast: ; --tw-grayscale: ; --tw-hue-rotate: ; --tw-invert: ; --tw-saturate: ; --tw-sepia: ; --tw-drop-shadow: ; --tw-backdrop-blur: ; --tw-backdrop-brightness: ; --tw-backdrop-contrast: ; --tw-backdrop-grayscale: ; --tw-backdrop-hue-rotate: ; --tw-backdrop-invert: ; --tw-backdrop-opacity: ; --tw-backdrop-saturate: ; --tw-backdrop-sepia: ; margin: var(--size-8) 0 0 var(--size-32);&quot;&gt;&lt;p style=&quot;--tw-border-spacing-x: 0; --tw-border-spacing-y: 0; --tw-translate-x: 0; --tw-translate-y: 0; --tw-rotate: 0; --tw-skew-x: 0; --tw-skew-y: 0; --tw-scale-x: 1; --tw-scale-y: 1; --tw-pan-x: ; --tw-pan-y: ; --tw-pinch-zoom: ; --tw-scroll-snap-strictness: proximity; --tw-gradient-from-position: ; --tw-gradient-via-position: ; --tw-gradient-to-position: ; --tw-ordinal: ; --tw-slashed-zero: ; --tw-numeric-figure: ; --tw-numeric-spacing: ; --tw-numeric-fraction: ; --tw-ring-inset: ; --tw-ring-offset-width: 0px; --tw-ring-offset-color: #fff; --tw-ring-color: rgb(59 130 246 / 0.5); --tw-ring-offset-shadow: 0 0 #0000; --tw-ring-shadow: 0 0 #0000; --tw-shadow: 0 0 #0000; --tw-shadow-colored: 0 0 #0000; --tw-blur: ; --tw-brightness: ; --tw-contrast: ; --tw-grayscale: ; --tw-hue-rotate: ; --tw-invert: ; --tw-saturate: ; --tw-sepia: ; --tw-drop-shadow: ; --tw-backdrop-blur: ; --tw-backdrop-brightness: ; --tw-backdrop-contrast: ; --tw-backdrop-grayscale: ; --tw-backdrop-hue-rotate: ; --tw-backdrop-invert: ; --tw-backdrop-opacity: ; --tw-backdrop-saturate: ; --tw-backdrop-sepia: ; line-height: 1.6em; margin: 0px; color: var(--print_on_web_bg_color, var(--color-primary)); box-sizing: border-box; padding-left: var(--size-4);&quot;&gt;After the payment executor has successfully processed the payment, the payment service updates the wallet to record how much money a given seller has.&lt;/p&gt;&lt;/li&gt;&lt;li style=&quot;--tw-border-spacing-x: 0; --tw-border-spacing-y: 0; --tw-translate-x: 0; --tw-translate-y: 0; --tw-rotate: 0; --tw-skew-x: 0; --tw-skew-y: 0; --tw-scale-x: 1; --tw-scale-y: 1; --tw-pan-x: ; --tw-pan-y: ; --tw-pinch-zoom: ; --tw-scroll-snap-strictness: proximity; --tw-gradient-from-position: ; --tw-gradient-via-position: ; --tw-gradient-to-position: ; --tw-ordinal: ; --tw-slashed-zero: ; --tw-numeric-figure: ; --tw-numeric-spacing: ; --tw-numeric-fraction: ; --tw-ring-inset: ; --tw-ring-offset-width: 0px; --tw-ring-offset-color: #fff; --tw-ring-color: rgb(59 130 246 / 0.5); --tw-ring-offset-shadow: 0 0 #0000; --tw-ring-shadow: 0 0 #0000; --tw-shadow: 0 0 #0000; --tw-shadow-colored: 0 0 #0000; --tw-blur: ; --tw-brightness: ; --tw-contrast: ; --tw-grayscale: ; --tw-hue-rotate: ; --tw-invert: ; --tw-saturate: ; --tw-sepia: ; --tw-drop-shadow: ; --tw-backdrop-blur: ; --tw-backdrop-brightness: ; --tw-backdrop-contrast: ; --tw-backdrop-grayscale: ; --tw-backdrop-hue-rotate: ; --tw-backdrop-invert: ; --tw-backdrop-opacity: ; --tw-backdrop-saturate: ; --tw-backdrop-sepia: ; margin: var(--size-8) 0 0 var(--size-32);&quot;&gt;&lt;p style=&quot;--tw-border-spacing-x: 0; --tw-border-spacing-y: 0; --tw-translate-x: 0; --tw-translate-y: 0; --tw-rotate: 0; --tw-skew-x: 0; --tw-skew-y: 0; --tw-scale-x: 1; --tw-scale-y: 1; --tw-pan-x: ; --tw-pan-y: ; --tw-pinch-zoom: ; --tw-scroll-snap-strictness: proximity; --tw-gradient-from-position: ; --tw-gradient-via-position: ; --tw-gradient-to-position: ; --tw-ordinal: ; --tw-slashed-zero: ; --tw-numeric-figure: ; --tw-numeric-spacing: ; --tw-numeric-fraction: ; --tw-ring-inset: ; --tw-ring-offset-width: 0px; --tw-ring-offset-color: #fff; --tw-ring-color: rgb(59 130 246 / 0.5); --tw-ring-offset-shadow: 0 0 #0000; --tw-ring-shadow: 0 0 #0000; --tw-shadow: 0 0 #0000; --tw-shadow-colored: 0 0 #0000; --tw-blur: ; --tw-brightness: ; --tw-contrast: ; --tw-grayscale: ; --tw-hue-rotate: ; --tw-invert: ; --tw-saturate: ; --tw-sepia: ; --tw-drop-shadow: ; --tw-backdrop-blur: ; --tw-backdrop-brightness: ; --tw-backdrop-contrast: ; --tw-backdrop-grayscale: ; --tw-backdrop-hue-rotate: ; --tw-backdrop-invert: ; --tw-backdrop-opacity: ; --tw-backdrop-saturate: ; --tw-backdrop-sepia: ; line-height: 1.6em; margin: 0px; color: var(--print_on_web_bg_color, var(--color-primary)); box-sizing: border-box; padding-left: var(--size-4);&quot;&gt;The wallet server stores the updated balance information in the database.&lt;/p&gt;&lt;/li&gt;&lt;li style=&quot;--tw-border-spacing-x: 0; --tw-border-spacing-y: 0; --tw-translate-x: 0; --tw-translate-y: 0; --tw-rotate: 0; --tw-skew-x: 0; --tw-skew-y: 0; --tw-scale-x: 1; --tw-scale-y: 1; --tw-pan-x: ; --tw-pan-y: ; --tw-pinch-zoom: ; --tw-scroll-snap-strictness: proximity; --tw-gradient-from-position: ; --tw-gradient-via-position: ; --tw-gradient-to-position: ; --tw-ordinal: ; --tw-slashed-zero: ; --tw-numeric-figure: ; --tw-numeric-spacing: ; --tw-numeric-fraction: ; --tw-ring-inset: ; --tw-ring-offset-width: 0px; --tw-ring-offset-color: #fff; --tw-ring-color: rgb(59 130 246 / 0.5); --tw-ring-offset-shadow: 0 0 #0000; --tw-ring-shadow: 0 0 #0000; --tw-shadow: 0 0 #0000; --tw-shadow-colored: 0 0 #0000; --tw-blur: ; --tw-brightness: ; --tw-contrast: ; --tw-grayscale: ; --tw-hue-rotate: ; --tw-invert: ; --tw-saturate: ; --tw-sepia: ; --tw-drop-shadow: ; --tw-backdrop-blur: ; --tw-backdrop-brightness: ; --tw-backdrop-contrast: ; --tw-backdrop-grayscale: ; --tw-backdrop-hue-rotate: ; --tw-backdrop-invert: ; --tw-backdrop-opacity: ; --tw-backdrop-saturate: ; --tw-backdrop-sepia: ; margin: var(--size-8) 0 0 var(--size-32);&quot;&gt;&lt;p style=&quot;--tw-border-spacing-x: 0; --tw-border-spacing-y: 0; --tw-translate-x: 0; --tw-translate-y: 0; --tw-rotate: 0; --tw-skew-x: 0; --tw-skew-y: 0; --tw-scale-x: 1; --tw-scale-y: 1; --tw-pan-x: ; --tw-pan-y: ; --tw-pinch-zoom: ; --tw-scroll-snap-strictness: proximity; --tw-gradient-from-position: ; --tw-gradient-via-position: ; --tw-gradient-to-position: ; --tw-ordinal: ; --tw-slashed-zero: ; --tw-numeric-figure: ; --tw-numeric-spacing: ; --tw-numeric-fraction: ; --tw-ring-inset: ; --tw-ring-offset-width: 0px; --tw-ring-offset-color: #fff; --tw-ring-color: rgb(59 130 246 / 0.5); --tw-ring-offset-shadow: 0 0 #0000; --tw-ring-shadow: 0 0 #0000; --tw-shadow: 0 0 #0000; --tw-shadow-colored: 0 0 #0000; --tw-blur: ; --tw-brightness: ; --tw-contrast: ; --tw-grayscale: ; --tw-hue-rotate: ; --tw-invert: ; --tw-saturate: ; --tw-sepia: ; --tw-drop-shadow: ; --tw-backdrop-blur: ; --tw-backdrop-brightness: ; --tw-backdrop-contrast: ; --tw-backdrop-grayscale: ; --tw-backdrop-hue-rotate: ; --tw-backdrop-invert: ; --tw-backdrop-opacity: ; --tw-backdrop-saturate: ; --tw-backdrop-sepia: ; line-height: 1.6em; margin: 0px; color: var(--print_on_web_bg_color, var(--color-primary)); box-sizing: border-box; padding-left: var(--size-4);&quot;&gt;After the wallet service has successfully updated the seller’s balance information, the payment service calls the ledger to update it.&lt;/p&gt;&lt;/li&gt;&lt;li style=&quot;--tw-border-spacing-x: 0; --tw-border-spacing-y: 0; --tw-translate-x: 0; --tw-translate-y: 0; --tw-rotate: 0; --tw-skew-x: 0; --tw-skew-y: 0; --tw-scale-x: 1; --tw-scale-y: 1; --tw-pan-x: ; --tw-pan-y: ; --tw-pinch-zoom: ; --tw-scroll-snap-strictness: proximity; --tw-gradient-from-position: ; --tw-gradient-via-position: ; --tw-gradient-to-position: ; --tw-ordinal: ; --tw-slashed-zero: ; --tw-numeric-figure: ; --tw-numeric-spacing: ; --tw-numeric-fraction: ; --tw-ring-inset: ; --tw-ring-offset-width: 0px; --tw-ring-offset-color: #fff; --tw-ring-color: rgb(59 130 246 / 0.5); --tw-ring-offset-shadow: 0 0 #0000; --tw-ring-shadow: 0 0 #0000; --tw-shadow: 0 0 #0000; --tw-shadow-colored: 0 0 #0000; --tw-blur: ; --tw-brightness: ; --tw-contrast: ; --tw-grayscale: ; --tw-hue-rotate: ; --tw-invert: ; --tw-saturate: ; --tw-sepia: ; --tw-drop-shadow: ; --tw-backdrop-blur: ; --tw-backdrop-brightness: ; --tw-backdrop-contrast: ; --tw-backdrop-grayscale: ; --tw-backdrop-hue-rotate: ; --tw-backdrop-invert: ; --tw-backdrop-opacity: ; --tw-backdrop-saturate: ; --tw-backdrop-sepia: ; margin: var(--size-8) 0 0 var(--size-32);&quot;&gt;&lt;p style=&quot;--tw-border-spacing-x: 0; --tw-border-spacing-y: 0; --tw-translate-x: 0; --tw-translate-y: 0; --tw-rotate: 0; --tw-skew-x: 0; --tw-skew-y: 0; --tw-scale-x: 1; --tw-scale-y: 1; --tw-pan-x: ; --tw-pan-y: ; --tw-pinch-zoom: ; --tw-scroll-snap-strictness: proximity; --tw-gradient-from-position: ; --tw-gradient-via-position: ; --tw-gradient-to-position: ; --tw-ordinal: ; --tw-slashed-zero: ; --tw-numeric-figure: ; --tw-numeric-spacing: ; --tw-numeric-fraction: ; --tw-ring-inset: ; --tw-ring-offset-width: 0px; --tw-ring-offset-color: #fff; --tw-ring-color: rgb(59 130 246 / 0.5); --tw-ring-offset-shadow: 0 0 #0000; --tw-ring-shadow: 0 0 #0000; --tw-shadow: 0 0 #0000; --tw-shadow-colored: 0 0 #0000; --tw-blur: ; --tw-brightness: ; --tw-contrast: ; --tw-grayscale: ; --tw-hue-rotate: ; --tw-invert: ; --tw-saturate: ; --tw-sepia: ; --tw-drop-shadow: ; --tw-backdrop-blur: ; --tw-backdrop-brightness: ; --tw-backdrop-contrast: ; --tw-backdrop-grayscale: ; --tw-backdrop-hue-rotate: ; --tw-backdrop-invert: ; --tw-backdrop-opacity: ; --tw-backdrop-saturate: ; --tw-backdrop-sepia: ; line-height: 1.6em; margin: 0px; color: var(--print_on_web_bg_color, var(--color-primary)); box-sizing: border-box; padding-left: var(--size-4);&quot;&gt;The ledger service appends the new ledger information to the database&lt;/p&gt;&lt;/li&gt;&lt;/ol&gt;" style="text;html=1;align=center;verticalAlign=middle;whiteSpace=wrap;rounded=0;" parent="1" vertex="1">
          <mxGeometry x="-425" y="1045" width="390" height="30" as="geometry" />
        </mxCell>
        <mxCell id="-Ki9CwcrcDcazu1pOUVY-108" style="edgeStyle=orthogonalEdgeStyle;rounded=0;orthogonalLoop=1;jettySize=auto;html=1;" parent="1" source="-Ki9CwcrcDcazu1pOUVY-105" target="-Ki9CwcrcDcazu1pOUVY-106" edge="1">
          <mxGeometry relative="1" as="geometry" />
        </mxCell>
        <mxCell id="-Ki9CwcrcDcazu1pOUVY-105" value="&lt;span style=&quot;font-weight: normal;&quot;&gt;Ledger&lt;/span&gt;" style="rounded=1;whiteSpace=wrap;html=1;fontStyle=1" parent="1" vertex="1">
          <mxGeometry x="100" y="1040" width="120" height="60" as="geometry" />
        </mxCell>
        <mxCell id="-Ki9CwcrcDcazu1pOUVY-106" value="Ledger DB" style="shape=cylinder3;whiteSpace=wrap;html=1;boundedLbl=1;backgroundOutline=1;size=15;" parent="1" vertex="1">
          <mxGeometry x="220" y="1140" width="60" height="80" as="geometry" />
        </mxCell>
        <mxCell id="-Ki9CwcrcDcazu1pOUVY-109" value="&lt;h1 style=&quot;margin-top: 0px;&quot;&gt;Ledger&lt;/h1&gt;&lt;p&gt;The ledger keeps a financial record of the payment transaction. For example, when a user pays the seller $1, we record it as debit $1 from a user and credit $1 to the seller. The ledger system is very important in post-payment analysis, such as calculating the total revenue of the e-commerce website or forecasting future revenue&lt;br&gt;&lt;/p&gt;" style="text;html=1;whiteSpace=wrap;overflow=hidden;rounded=0;" parent="1" vertex="1">
          <mxGeometry x="200" y="1215" width="370" height="140" as="geometry" />
        </mxCell>
        <mxCell id="-Ki9CwcrcDcazu1pOUVY-113" style="edgeStyle=orthogonalEdgeStyle;rounded=0;orthogonalLoop=1;jettySize=auto;html=1;entryX=1;entryY=0.5;entryDx=0;entryDy=0;" parent="1" source="-Ki9CwcrcDcazu1pOUVY-110" target="-Ki9CwcrcDcazu1pOUVY-98" edge="1">
          <mxGeometry relative="1" as="geometry" />
        </mxCell>
        <mxCell id="-Ki9CwcrcDcazu1pOUVY-110" value="" style="shape=image;verticalLabelPosition=bottom;labelBackgroundColor=default;verticalAlign=top;aspect=fixed;imageAspect=0;image=data:image/webp,UklGRgy6AABXRUJQVlA4WAoAAAAIAAAArwUAXgMAVlA4ICy5AACwKAOdASqwBV8DPm00lkkkIqUhIlL5qKANiWlu/E0cMoFhVP9o/Y604Y6x5fT21P/Tf+ifjp73vjv6J/av7V/kf8r/fv+566/i3y/9g/sP+H/zH9t/8X+6+Hn+6/wXjs9N/gv83/dv9T/zf3/+TP439ffu/9o/xv+r/u37d/df9b/vf98/x/+0/t/7w+zf5b+vf4r+0/uJ/jvkF/Hf5J/bf67/j/9D/dv3B913+q/xv5F+MdqH+n/2n+e9gX1c+cf5b+3/5b/tf4H0WP6b/Bf5//2f4H4J/Sv7l/qv8B+9f+P+wD+W/0b/O/3n/If+f/C//////c/+4/6v+m/f/0hPuf+2/8v+s+AL+d/2//s/4X/I/uV9K/8r/2f8n/qP23/////+LP5z/if+//lf9R+2f2E/y3+vf8P/B/6P/3f5T////P7y///7jP3H//v+6/6fymfsz//f+d/1xhAeFlVYoWyqsShr475EgJ3NTi+r1K8IZOcDRM6leEMnOBomdSvCGTnA0TOpXhDJzgaJnUrwhk5wNEzqV4Qyc4GiZ1K8IZOcDRM6iJA/+zOPCyqsULZVWJMol6Fb2k4m1vaTibW9pOJtb2ko+Z6QVhbXuEb/9pSzxEzsaj3uCOOIRsLDD1tuBJPnau/I0D3lga0DuM2NFsnIGoiBR07tx9gfbkBNsrLQjP3xsloniKHMOJtb2k4m1vaTibW9pOJaWneZnIPt4APCyqsULXXIPt4APCyqsULZVWKFriSYSH3Y8mJvJCqVf+bOWYTU2homKTii7/Aa+pmDXDxqyF1FFFrsWt5SDSVURXqFZgenOMt9oQxs4S7FlG7BYmQhhsO6HAHktC2VVihbKqxQtdXSkJLQtlVYoWyqnP1mceFlVYoWyqsULZVWKFssoChbKqxQtlVYoWyqsULZVTmOqcVIPJaFsqrFBN+wB5L3HM8LKqxQtlVYmMD4MmIPLogVVihbKqxQtk8sOceFfpzgqbHDv7SqiFISWhbKqxQtdcg1j926oU0mGMXeoCmgZQp0RyDzTKE45EeAZpRTxwqxeCqTxFdosDyU0lDg8FvK1Z2bD62KFsqrFA94URZ7DbwKUpXCRYAX3bYcKe2iCt1UPlPRd7qjE3BDaHeE0dm4ikgF68Xy3rRDfNeMKT3wvRLOU+KBoXWDmKXwGVjA5BIhVRv8G9sQ2HOYMweykJLQtkml0vaHG3n9L6g0zy6Ua3K/d/DqJy80rlCr8NZX4WMUMfCa7C35q+gV4HjmHVQCc1alsAskodk+xA8KMV5GSo6FTEM4DZ67R50dYyqZgIkdK3qm+O6GPPaUkmssvZkfZoSK/Ghz4MRFileMDW6MVVihbKqxQtlVOfrC4v8dYevhtGG+V/u846qUALLtcTitRBFj1I0OwcwyEfoiKbqv59+FlVYoWuMZsAFd8ZEUpMqdiFQZdLtpGiwKEIaC+akhSW5caU6xIcF4nBm8oeleBBCFc469pgmKAeMC0ggmaYXrFBTfAB4WVUzkjCGQyfWyJJYv1dz7qeXa3xIrQX8yIc3yVM7CR0UEVVL5xjFyMPy8aLhAIWvkjS1rjvI8Xiy0sQdCm0LuXY0Pa4YhASiBQOTEtBtwXholIYD7eADwsqrFCvIYD45yCBHodVb93pZ4S3xJOvn0ymAy+O7r6ybWxhUFt5fSkJLQtlVYkuc2Mq9eXlCLcWGBHU25Z8yktFTk1lQHEkWhbKqxQtlg2oQ2yJ8iKhQ0EVHqDrT+jorAtaEbnIpGcbb0aEYS04jl0FISWhbKqxQtlVOfrM1xLJZd5ICz/JmomfPFg3S+dwhbzu8crA+JChRRCkJLQtlVYkxrd0ltDRgz4NZf+4Em+o7sqbSJXVnt/fJ1x4WVVihbKqxQtcSMEPBIlJZwqqVvUW4UD1kIGGc5vGGSfojKqxKmfqpB5LQtlVYoWuuQbkRO8vaTj8mbZGRQipLIfRWpqKi5tAlN4yuUhJaFsoT3zEQZUkSBwpT+V4vmhiVxnaawYsvZVWKFsqrFC1wD+GsbRtgu9q6Km2jsSU81mPW/czhecDrjZdFrq6UhJaFsqrFC2VU5+sKwVUOe0iAoKl+R6drzTIYcG3VEZ84hB2eFlVYoWzRZP2+1gw7ZtT4NeKZzwan6wNDMufNO4rjwrVLbpjLaKfRVdwjnoy+pEQjINfdbTNjKby0946IsnioXN7hXciAhmsxKXNyk5mzwGOl3TzBufdUZiCuMKqD9Ji+bqxKmfqpB5LQtlVYoWuuQcBte5xzEAuWqxQtlVYo1yAC+BKbv2riFIHxAo94Hw5Jyq7gh2P8kjH8IDTP48MC5d771pxOwQunavFyaXsw9VWGx8LsBtkSEFg6E5Oivv/FpDAfbwAeFlVYoV5C/trOPB4dHA8LKqxQtmmjpCSZGfx12+yYhvSmQsXkJdo35l/5ULcU3ARHHXXfcfwnKTAdhcF0JdHHl1/bfm3uqF0ZCvkEFBYzovqOmv5MKv5j1qlnG+qQjEJb2AdmXSPOPB5q+/8WkMB9vAB4WVVihXkL+2s48Hh0cDwsqrFC2aaOkJJqFPPEZb21u7Z80Ro4UmYJy/LjlVWF4U+eu+PZSW4U7sC/NhuYwRhm8teih2+6WrblvaC0+HZ3sw0FAQSOWbtxOO5nnSO7+xaug9Qf++cJxbnrEs23CABC/9x91NHNRl6Ga/uNSkEflQbAfbwAeFlVYlVQYZSEllTRNyWhbKqxQx1UQpBI1Rg9VS4QSqAzqJLpi51QiRprlIJGamcdrxmsxC1JLQtlVYoWyqsSqoMMpCSypom5LQtlVYoY6qIUgj5NMqk+oj1tZ2O/ABdRDMwYOJqwWG4/L6ChtcbWuynm5LM1zMm4HbpqYZhor9IsqQknd/s8K7D5nGAvkH28AHhZVWKFrrkG3aVYGd9BNpcVjxyWQXv8xaiin8+QEFVISWhbKqxeJ71nKoezwhbQyrTmkeD0sb3Qo8Qmdakbls8yyeA2D864uwSgi0LWzYnDjGJFZlA7/MhueN1AakeQeJCg7SWqv2ZjAfbwAeFlVYoV5DAw1RRa/CxZdzxwsqrFC2VJZe6oR4MOnvJZLztvzkmh//Zqw72BWPPa/S8ZxpCS0LZVWKWSEViKxFWyD7VlGKqxQtlVYoWyqnP1mcdn6FlAoWyqsULZVS4KIxXfkVLGKB/PXLPIUgcIHp4xFi0kDktC2VVihbKqxQtlVOY6pxUg8loWyqsUDEypOqv0Un6D1NM6leEMnOBomdSvCGTnA0TLN0Uxa7r9Ho5bteoJK8GC4Z9hH3cOy20zqV4Lh6XgmlJK/SclBEeQleEMnOBomdSvCGTnA0TOpXhDJzgaHexa46RHt4APCyqsULZVWKFsmYj28AHbcD0PzTkkXRvlPcWjTQgC8Eo86pCSyfIWvr1E44PTpSYbXo1IvqxgVwaJR9gIC4K4NEo+ihbKqxQtlVYoWyqsULZMxHt4AOz4gUPdsXzic5sws9ei2Eu/lUFzKUMwCZR2qVxUg55JmabUBJaFcYAlP4BUhZwyTDNgPt4APCyqsULZVWKFsqrFC2VVihbKqv3UM2A2Rz8ExXcvLyH26PkqJsftCqQktC2VVevwI3UXOPCyXT54au8JrjwsqrFC2VVihbKqxQtlVYoWyqsULZVWKCb9iha6qguHaoawFAPJrmcdtdUV3dW4FTmGhCe4M9RMBu4Dh90uFkVcP686Y7gHdjZnHhZVV8b2ngtEFIRiFPW2U1ISWhbKqxQtlVYoWyqsULZVWKFsqrFC2VU5+szjsfkJIGPZ2MaH1YVgYR3WZ9N+c2y3UpahAAvOJ1IkN4APCyqlcuamVdWKB8wmc2TtPcezD59kqoZNCUEhI6R5+oQD2ZZ+Hn6O+XQfPKqY6a/QYvANXUp2rJQtmGwH28AHhZVWKFsqrFC2VVihbKqxJX+KuIj6OQMNslXn248K5Ft1Rp5EIca8HreFkuDouRWJB9NpgW4wmgsoG5SQIjU0ZxKQeS0LZUo+jJIPJMjfz1hNUgUk4k4rNKoUj4asE0PbPv84q6Sub0u2c4vFNu4Rd8Kkv2bpMhr6i2VVihbKqxQtlVYoWyqsULZVWKFrgbTl37De+ShbASCqbu5MMvhTV3LFUcPn3PickGTFDGyeCnipB5Jiv/X/7e2S+BVsNNTQItMznf4nMnO4l5sBZpCrWVIhCdQ0rCkydKJxiswp7h7VW8MU7g4G0Ep1JEMLuZZOpUQdIWTvDXFSDyWhbKqxQtlVYoWyqsULZVV8d5VeGIWjV/BoPbZEqFM9/FsP50WAretSUpGahadmlM1M3Q5YE+1jeRVVACn0am9CliD8w3lxkwvpBloE6bQqDKGT4EHkzOmJs8fx28AHd9CBDeABv5CpatjZFxaDLtHxESxmLV4Uy7xqgy3F/xk+00iH4+Ig7HZIOePgsjAvs14wHcbI6T+msdbAChEizLEloWyqsULZVWKFsqrFC2VVihbKqxJpXB9bPsgrG8OcGTrf3+vaRx+5YQdOx1jarb8L3KInOBp4dCgpD68WUKgtCxr58IjwUeA1NVf3MwvAg+KsKM/Emk0LTZW+CW6GYZWR2QhXqjslDjo3pWs7051fWZx4WSZ5raC6YdZr9SI0wSsO7zI2UtrlYdjq6aK+04nNgdpN+SS5h/BSMLoWypQlBgrzOPCyqsULZVWKFsqrFC2VVihbKqxK0qSq3AU1c2HnAfI0slMXu6JW9BU0pbGkaeKDT/qPWqnUGwfXISWhbKqZNdoXJ7rbwAJ89Ihqw2+HQoNaoTv7h4+lYisfjyEFsgiAecurzmOIUg8kyqs4kiEgqRaFsqrFC2VVihbKqxQtlVYoWyqsULXHci1OPpFkyPOA2Vuan97AZ07jjH78aYibv5nzqnNAH7m8loWyqr+Z+d/Y49bEe9btQtlVXrRZfaU7YZsB9vAB4WVVihbKqxQtlVYoWyqsUK8hgPtPKuLshKdorYIwLoHrggMlh1Mqyh7AP9ge+0Fa2E5FEGCdwGk669PkJXKLZVWKFsqUTeGe6QEcgeFlSe7TCoDzipB5LQtlVYoWyqsULZVWKFsqrFC2TMR7d9Qq9dYpA1G/J4rcB3HbPaF6Py/fu1VfNzMAkw0uRvbwS2sCLbEwM/A+L8AHhZVWKFriEu0jnqIXhOA+3TcnU7HnhZVWKFsqrFC2VVihbKqxQtlVYoWyZiPbqdoVh0UhJaFsqrFC2VViha3psS3xTkQQuszi1tulcSbM48LKqxQtlVYoWyqsULZVWKFsqrEqqDWTE07RIR53HhZVWKFsqrFC2VVihXPcbmDlDn6+JLQrYj5EgJSEloWyqsULZVWKFsqrFC2VVihbKqc/WDX1iiHSxiISWhbKqxQtlVYoWyqsSh8HeKEjRx0zjs813Xzg6hZVWKFsqrFBD070zxCJd2eEMnOBomdSvCGTnA0TOpXhDJzgaJnT7EWJM70beFc1z+UTPgWzWsDYD7eADwsqrFC2VVigeYLpGsrY2DWszXrzVhLlISWhbKqxJwdg5/N4APCyqsULZVWKFfhQhYMxpCKO9Nk5Ac+Q+UvFcotJ4JeEKOrmv8C538M2aUK1JT3G8fyHhCPOiGT3kkSNVynCnUzFQIfN9gaAoRuloRn0ahDMFzW8PusqEuhDcdBqMLO0R9tiPHJEstMs3EDGgqtESquS128AH9CqUcPPbbivaNO3Vtpk6hbKqxQtlVX0+++TUpCS0LZVWKFsqrFA/dTMe4JQmKtGC9NT58W4EB2PtQHJaBKP6U8asszNoZtdzYGjwhhW9zm70/1ISNYQl+dAwAGiqV2Aqwgw3NKDoDbBeGKqMDQLBSRPx4X3rhz5/mv6pAzOlUayKJ5REUF1rkg8loXDKt2Tc5GdcNiZE7DUT6F0CNazOPCyqsUD5Fck++7swe+tvJsRK2EC8FDP4/dicFVzQPSvMjFb275/pRskLwzjtAtsYVeN2adHVi7NEsN5EJnN/srXZU6bMjP0ohRO5yVtW4V03lPmReAbiYLPr8tT6FZ/a0Ndwz9ojB1am0hJTcO+no2K6wGP5MuquPv9MWYXw/eh740f2AbXIxeqxE5VIzmelKv4GFt0Guk1wjxNzMLGxjNbaFfikoB+/NiWx3MAbwxCzz6rAQEC3FWrE6McFF/6lcGZbE2ST7K2DlcuevoPU0MBNioakHktCuDeW8qFXvlUsLoAZ/lgsSzM2xRC3U76YMxWGpa5JavmOCrspG7ZqN6ij/Cccf+A2YZs4xdZFawvtF832VWCvaNSQNMYRQUUb2+Kwty8ErUinQmsY4wEpMysWRAobU+LyMD3Crh6zUWkhGLQBd2zNwkn2LjnuEhjUMWxOHms3qEL2KSkrR6D7d/3MAvFsgj6RinqUDfYLIBOvMu9tABb9V6vM0O1eaoTDRxC/f67yeRTNCHAnMnjxcYkNWaXeECvu6cZHyBkZzhdsAjT9F/AGrg6Yv9r4W8M2U1QsfUeQwH28AHZ5Fck/XIPjlkPwCsLi1s1ZV6U2VVYTaNDBrJsdRd+hcTGdisfa6Wb3uVa/KkwVhs+8fOPtD5iuVrraemxAPjgMdQv9SBIgGGoy5mfNzY8/qlPiKoy7ocnIdZWMrWUsxoNgPt4wHhZYNFC2VVihbJZhRT/JYaDakAet3Y7szcsEevuWINfhBWqqpbU7qGbAfbvpmp+9NC6r91DMAK84KYV9A2wDzQrsENEy1ypbTzCekCc7F8jH8SqF9C4l+acZJWNvgLe/ORKgX2sCH1wNng1I6SjLNk+UrtO94eDzxJ9i2t2PCQa8LT+sqq99ea31VNtmxNu9jrjjJR835DjCg8loWyqsULZVWKFsqpfPlxbEV6cIqyFoGEHsYAg6zIybUByWhbKqZ8Fg3hEBFhLSoiO0mkHhEHutz/uxffZzpbRLMwpg5saO7UpfnU0J+jTlKPDWXZLJUNVfGkySjt2++rQmfB3XSpvDw9kUX6vyMte4l8cPDOxRB3bT0Q35141Vb77vGJ+vWgmdOEW6Nd4KyUrlWUGAAJeq8p7+M2CSycaF3duJYCx4kvbg6uLtr47jcwMPbSCJaQKln702K27EMfz0SU1eT8Xck9mEP0v/P5xkV6Ja3gYKSZCpMenHxjSpnEsfgCiD0Qof/OeB9dW69W6eoy3wsDGTnfKeebi+r1K8FSFkNiEJLQtlSsGS06UXF1WKFtAr+YykJLQtkusTixY/+XNgkL0q5kqUdIFD5xBcVadpRbt0+thvYGztrNWogZhYG6kTfxizlayFq7eo5jTgqY3F9ZSfnvPP5vDwIfmuHg0/NsacvYMXF5sMvxmjoc63EIem5fyOADYYtIcIfG4ZZLunGEpYKrAfkd5okzJjhak7YK9n9pcKbYYCR3jg4doTT+wbMtST3F+ByTMOekeRMZMM2A+T1HszYIYvZiISWhbKqxQtlSsGS06UWyqsULZVWKFsqrFC2V+GVV0GUyFpTZKvVCB3f9feq6myyf2fjICq8GihbKksQHNdYEUCFcpCS0LZVWKFcG8t5ZItC2Stue6kGw2jV5JFY/bLjiSj0WB7IXS7AU4Oqv6JmJhGS3AaNmENaiS0LW8esy3ihjFPmcB4qaWMLKqxQtlVYoWyqr3Q6ur/+6l0lCWVVihbKqxQtlVM+Cwb0QpCSybzsCCbJBjSci3kD/IBApAw+tR53WusiiblZlMLazxSSrgZV1uMdV62pBp824IsH3I7CfoDolVXbrNMEQuthrSUkSY5gipna1GGEeOSTx6/vNDq7GB3pn5mLZAZ+wphA6P8LKqZexN1n97x0OJgW3j7MNxnhZVWKFsqrFC2VJzKX3/hun//qQP28AHhZVWKFsqrEnCER2U0XrjxfV6leEMnN+21Q2UGSNdVmwpbR8vYbdHy+cz7PmGPl7DheEMnOBomY8pbHPeYY7YED3zZAtIynlTiRG9FAhTSDyWhbKqxQrWX7Nb//9td/kphVWKFsqrFC2VVihbKqxQtlVY3O3gA8coZsB9vAB4WVYRjjoRQzSEx4xx5Ib0der4eZvf2y2augsFPUUZRcN8+e5InlOn8Pqf85LfUTeZvcutXXB4HhqC4royMPBD8BzLrhr0SZi8jrF0pfs/32uT5glyzqqZPvN0fJNBWjJPGHSL/eNzgAHhZVWKFsqrFC2VVihbKqxQtlVYoWyqsULZVWKFsqrFCtl0dhBaL2QyOAidSxCfBwNS2CoGV6ulnK45As361DtwV6XSD9CLrIce2ZbnGowSvd1cKAWzZTtcGjQxL65TyWhbKqxQtlVYoWyqsULZVWKFsqrFC2VVihbKqxQtlVYoVoCS2hx51XZiyqXmZW+uUWNTYVPQhY1VU9VJU44finw8nh41wIlkkcPxpcAXbstLlsbODrzs5ucywOE6ihx2SqmrKqxQtlVYoWyqsULZVWKFsqrFC2VVihbKqxQtlVYoWyqsULZLgxThfKed8IHjukEk6K2nsE1tCJmQRhIdpzBVCOYx4b/YH8joquVgNa3VtFzHRF2Lf9Wf8blKHsw3IlVXvrVg6MUiXGlKOI8uSGAALMbgiEloWyqsULZVWKFsqrFC2VVihbKqxQtlVYoWyqsULZVWKFsqrgD28AHhZVWKFsqrFC2VVihbKqxQtlVKAAP7/uHBzvYdlKQq3Okr0iICf/xuIgmPQw5V/W+MSm4h6BhRvxWk70Mw8vVmfaxe8yYhpraO9DMPL1Zn2sXvKeILAlM2ZC9rECwR6v7u8Y3L/wqAuFSAAAAAC+TMArEWclroVH+AEYHC7n76q3UJTy75IgGcnwyBRdsJjUIL17JUC3/M+/K7uRCuQ+nurNxL6WGxhTaPOdu9xWhQ/vUpH+Ydvgebgt9e0Sy+yGiH5imS4SPHshv0e34R8N8cqUWGyn+Ya9xlWuMdD2R0A5kNyq6STjqfW29rqz5QXaAYWidMjcjgXAYRTYvdW0iUeyeyV/jPN8EpNHLpRlNSUvs/dv5jY/3Eg81Pton0N4tul5vEJMBMi+VtSrfkpsTiDGUV5cPbesNArVaFzLb9AuOIJ4MeE6kz+Gvxvh2Fhm0tPU4vTsYAeBglOB52JrT39ifPRbsuYtLAMG2hvXT9SXgqFpGx8EC348OyTU5a8lRA9P2YkRFQ/kwnD/fgA1CXdpdDU68GtrVG4+sgYuRrqOR+giePcxM2CNDQ5H7aTk6nWZwoY/L+NgFrX3e+JEj9ppk/5LvR/8qSIbiKgExzAif86wRffLTcKisBn6VGTQaLPygmnILA4TJGzfTsi/qbd5/6B641QVt7sB1gDllQ+nxtUPCYNrX9I7I+UqWUgu9YQ06EU8MNy0U/1tlcRqRM5DUnchyWaXui9rXQZIWc/Ir3n+KMsZXKytPI53lOy2q/stEoPICOIXOmInDpMpVAUbVBhOSl/S6Ycz6y+Sm6XxbwIKrxfuYpuQEm3Thkxbs9Nj4dNYvSY76LNgZ6I+/vO9c8i2Kkbb+a7odL2aU9mcJTWuovLHsooUcRN8g+M4vJCKmUWsV7rR/zQ9fghLJRbAD/rKqZDU221OYtIOLEZS+RYT+JIZ+ceiV4YlHP1thNMLn32qJglC4G8rT1TUj6jIcsKuBezzBum7AHCBJrz97rkTp87qCw7o7WR/j0v+nh7BeU9ODsvEVNlLPf+MJhI5+IzTjJhkjdu1l+Zw5pYYiGkJpmxJCHmJylARSkXSwyjTg3x/zfQR7I0UDbAfHsdmTtLmD9xNPP/Ev5PsBJ81ilX2sLy5NXxwuVZdtAJfeNc8LOirJEAAAC8yABpVwnuZzXaXjKP6AS7TP2p+bNBC0H0uvvi2M6lFSKtokX8sC/sns0QPdr27A14swo8ydzagj44csiUfhufntF6B7qoPxg/mAUNre6fBm7rYgzAkKHVg4lk92Fx5Sjl2N+3cBadENi+0C+MKkCxrpCiEnlFHNKzF79vp1Dpvy9av2KjqW2Lr5CN46P2qUz1yM3TTAlBiBtJ59WjqjzJn/jQfo2lgl3IGzZJ9iAxM1Td7A3RpiS0ni5S16LKG9RCkPJWHfgM/0BzEeKgtAGiDzBxRtktKzLR7K+E4G+NnQS7GM5C1akOAQeHgubVpDOPesp3RV4WdQ6cZXcFKJ87qUOzGsvKgYXQ+MQSROMiubRbcoSgBl+xVOVxyU3/cIhif0spFDg041+GLosfgobaCa8zoB9wfADYD29aeQnn4uDJvEMnj/rhsD5yeNH3sD3lw2MWMWSoLATFID9lpUkw26xdZwOS6/lNjFTJ6l6NoQwFMdIxrNmw4huWX/CElzIFMx9wOf1ix2ow3FmikCF6eiFBFv50sD2jZyZrwn7UG24NyUAfYxEkxylScqiBZmXmbWKQXXxpOw1Na7J/HhHSdLds1cIhExX0wSfbkZFPi3vmj3zcVWf4fnPpIkMvRVyP3DYSXAcyqPC9x3JkESzrJzoHqHimPDSt49hfRim4FFNseelKqGbDc/cQEbHlJgHSgtaw2nfzNwP5nzZ4EREBM4JimP3F26k38hcCas2pcXuzhkjPHRcSMExBn5OPH/4+qP/kBrqKIY0Ilunb7MxX3dIoZ9xFeCiMbUko4x3xEYxHNfmtbGU+BqgZxxcZVghTHSMerCrAAAAAAAAg7qKGgBHtowJKwCHJzImKLa9BgmZZkBfmZZmvC4P5x8BsjCHsFGUeHL7LzNc6TYJo33LyAktNwU6L9nwlG0OyPNf5j8aYFbh9QEMhPchsJlYPUA7EwScHfWy4c7gUydxPXjgWdt9aqjSjpyo/XUfQnUrivpzbi/r0XJFsRvWytbTYX4u6J4ylFboJO1Vh6tfodj+VihOAn/8FO9U2fwkN+/wsSRw29xA3yPXEF19uAVPKYxh+ZGScXZB9GEPYe98TlElYcqFJYWQte5PIXEUjwgFVxXOprpi6agmkFDjovXxmknHnix+lk/Vj+jlyPcciVwm6DMjRtEw5HDBTTIN9tM8mEmrTEibyE7ilyd0bbVtUOhxPHO+IBpXxQEz4jyNLXMcmalSvdWP73L95m/JnvQ5mQfOXhgK/d2uj7VF7VpGvAACMzHgvHEfF96WUnA0ADgvGrAAjlKvb8OI5ryBnZa68KFPhFDFfEU69Pdl537QWcwcxO51SJaeJEV5bg83hsJr+Fxc1gm1xI/SHyjQdCSg+a1Va7AjxOnWibASV7mhRsv0TnQTJls9H4mAynFiLO7NxlIX4DS6/xTvTgqcXp8HnCxMRiSNPowV0wCeLgOj9KJcdgHj8UlPQk5HYrX+6hJ/XWJ8uVOChGTmMtXkX5TptMOR+slbMatGx+duunZS3gef303jiCKaZhIIEmXW1Wd+83XC/6z1K/iRtCjmBoMKsxuRoNyI/61PKVjnVvLx1Uy8vl6iukrpg+JFZdc9Hbmxt7/jzUqIw7eITHIO3yuAi3szrLyS5MBZ+jXvpqtfo19D1fNUlQOGlFa6rm0iUUSdVvCGo/FtLrg5/zFVCjohdG9EuvryEN1QpPBu107J1g0w3Ku4em+kHIfCYpnT41FMwJgstURWuJphnrCHenDLFaIgSg3yg1RVNEOaGP6jRMgjI3qpOzkxYV+Nbyt8J9CJdDk4vtfNMLCXi494bGVHxt/JmDnxEUj+hDGlNCL9IOg6yGJLfAtmZCgecYs5thtiA4jIR4y0Iozt0B3+FaMJZXZTAYCN9jHNHOu7EJjWwEfNbKiC4n9P9j1zCudAE5DHcOvivOAeUiV7nBb2FDOdYpH3Sch/vxynjXRMx7bTm8+5G9v/6IAUgdl7jg0m3gyP2csoocz6c/b0rOuiI7QaLWcY6lkhh6qOw/Ig6MOz8JX9bBN57TeZNTLyn9I6wsp+6sq9CFEL+5iHJw0gkNsZx5qB+/TymZGkDc/npMPqriETikKmHCEXWWhTmhknEFN0XiPm05xnD2GaXaFX7mBFfmAzaGAjoHZGTlz6TBgoBWwtby+CyRm/WZxjBeRqwb1R3RaZs/KNoxk9ThHGkSVv0oAQRfgpLSvytcjA/fngI1iFi0n4xya9D4zJ2kbzRlivJlafKO5OfFEl/sfcymbm8UP2iDHrcjKF915nbzeh34hEBqSllo66+Qbc7gfJUk4ef+WF7OBsU3xfp5Br4jYIhoTgCoU06SZCEJqhm7WRsjjSAT2FtExkSUvGw9elHOo9NvZiKnWnYUcNdw7SDnbsdb+G/G/ihJXYbwG/Y2RHWFZWMVxjeoVWpGdU8bJey+6+TDujJEAXP7/8hO3b+nbc3pZZnmg2GkyGMfbQDydlYv63fvzxcvRklLd44pe9lBPlW5z4zNIaouTSz/oZMcdmv2MJJUnAdA0oU0YyD5ljijsCKFmtYeYPRWXqVFNhvxRyZXMEisRqV5cROc8fDst1ax9ElvYgjXwj0OV6IMZOJleZPy3NG+0vNuAKmXBaj3ppjfL2I/CcMsGf1ESEWm0eZbWz2502I9x9NDTL0EKrW44kOpldHVbTZMcEeiUNKZnq6VgC04JxqCEnB6LVkbDDRNIbQ5P/6W9i4V+XuKWK4TdBmRo2cAFinFTk6W/U1Q7tvEjsg5bH+6zgYxwxLeFZJclMGFUxIfGd3LWpN0Y7RXfQCRPOJzkEdoOJHgGiO4Zbd020CfgudGHkJZ+/c1sdJuaUdps6Kd/A+bXBJb3+Xo/4+JNrC+MRaqaCRp6P/iP9BQBhoTrnHy6nhQFZq6m4qHodUAi9pZPT2NvGIOrLjCu6V9bNWnzjoytj+8j5DZTmcVZ7RVFxxO4Upo9I04NohHZHnxQmt2+kV+uOWZbmEprS1qlMlqwszA1XEFrdh6ZYQNNDE1KXqUWwWrYIiXL8GDqvDeF5dr03Yzmra/Mwv8HUdhdy3ALeA36IW0dIxrs4r6lhQo1ieXgxw2Wf9u3DJ3EH0oBTQAk1fbXAVUfM5UdqvGpxQsQPK17F8ap6sx9a8MSYeW6cW68ivNrTJTuo6zcaphx1TCOnJF1e5n/lNPdHHvFFE8V/IEtNFKh9G6GDKjBHPvCQsHyW/PbvC8Db5Dl29jyiE8zhvFtuqTDx+cphzvychyLgi/8l72R7ECV9rExfV4HCjOxQa4GrvJHww5888ySCnMrrL9gXl136crG5p+Ru/7sjHQ9uEkq1kWZTropJoBqnsrBQGYRa1komIOe9QFhPhdK/W/e4VHp0DRlRhS5nXDGjqdfaxT5GMeE8hbrNMpeifniHtHodDOmVSksOPKLAF5RC4YMSn4D2jzPahQHXj2DjJGjG7dqlAhmn79z6MlPtcCIEWkur3tf2TJLmPcmNbX2KZBcm196yz4+pVscqcNP/Ez5lQuvZs1dJktFhGZP0tcvoOs9VioRrdyJQjaP4LVNzJr2NlBw9R/kGEdvDjs7fGSfY8/jJ83lwX1DyW9uQn7Y7/5MEFdHbk8Lg7A0U+2SNW6cHqlo5/VgWehVElBrJQpzdWoM4gguZSebP19qPCxkl9tDA/63WOlz9uV9YaJZ4CzL+LB1uKncV76W3c2Cn/yuOaO/8CDS+O8Yhn8LXPh5v4ofHUuMykvEzyf7YhPFfFC+Jz3uzzQrQ44FftiJfsRZ4yjLV9MCrO7lGoE/fPWqiYNeMRddE4/pqLk4i7IpEzjP17eyc5Pj2dandCibRLQlQvFT0no0jcuN89BCfVHwW8kYgGntnVDqfO7ktiDYXzdrT63lS6JT0aLSGATFPV9pU/y1DalF+yamzSZxg9C9XBWVTQeKPyXIwrPG0USXQAtofIEy0QnQsL4j1ERMMHKOYxBXG3YV7Y/wYvLINmQ/srd13msJ7vziuHr3lNVgC2tZUITcJGWlNH4w9dG40e+1mFWFgtFy+yXa7qidKswS8VfuWe7YolV4iB8tN1vdLpc73ALq1w6KEBRRGgjwSfyMNIDMT21c75Jbg1SLmGMd7zar1j8FamftvpTHaxH/gcmbFoAZLSJiylOe/mNAGxWqjGcoCXZw0xYm+zqaBpobURzufz0mHySOKAWbOEP06/CApTdLx+IixCRW8ih97D8Pvr17Vm26/5hwadj/tRDB7Mn/9LBmF4kDE0xXHzSaHXYmbVYMiuAcSEFe5fFecbFKaKXeOZPPwWbnTLznRVB43ei24YWNgi5bliVtrRNbIwYRqHz7M5i12A5JO8dpjV5u1mkJZC0bqgazNr73L/V0DxoZ9cls2URupCxSeRFRoadGUPHAYq0FbQLPbO1FSVoobjSA3WZmxnlqGfKVkppisAH4Bvxvvb+/tjIsx54FgBNB10Ay6Oz6+T1iMyNKjFynTOMFMhwZrqrg6pRIW1Is60qETHDvdnsjCtr3p2d3SkGxcgjx6W2APamp6ulJ4H0Xsodmfk+473HxdjjNYeGL+ANuh8cbC2AnoEUcIqSTZyZ5xoZorFJ8PkeGWD9G7gDiDBtJFfPeLL76Hx/oul9n+GNt8dFafy5FWtSjzlaWb00npHETworERCrR24av/gzjOCSPdtlaM/3oZbCcJneTJ1h4rvUhLasITAojDx9S4cQH9J+jaw8HXk0yYR+VtU55aFpuEIOyrMEa6yi1eOU3D3RXzQ1fkW3YdaYUOCw6R46STb4Pwmyu0HLO8X9Xk/K8VNCvw+5B9slfzztarf8h9LmrwCURBq1mBbY+c8MiTq420YFel65CRNcVBRpkzFcaF9m1xbKt1yTAKC7CIAmBBWFlwlXm1EgdE1k4RAjCByrJR3FDbSDFGB4mgjRniE8vDGfb0LUhWT4Lr8Qqr7gB+YioI3yZAQ55GxIgx9K7dBa7mbj8DOGHddV6x0MHezJz2fPJtOc/kHfBVedGvPcRvy5xLkncslN+bM/i+smClggrbhxg287fbBnyC2USTaYGzm6t9cq/z+Qg3m2tLbJTZSCM3i1uxVVvL9AsSLTdE1Qk/CRs1O4t1TnMFC8SRLKfkghJ+JmoHXOp/rYpuZ/qEk2m7/0Y/0Rr+0yC/yuA0ReAWFN+L680+nExfjaZ7gLRH7bYO525L6wtOu6PsIYETRFmEnAWZwG+F5RISkcap6jI0s6SL9Eg0Mff3wPW9/NbFhacamss6kkhHYNms7VSEeRstnohO1U903t4aUy7LwyLGeWHt3j3s/+ziZM92eY7/u5IZm6E/g+0j7t8586oUZM3cL916ru4/sjdJny6loXGA4v7o1pzDMMjh8LwzyU/Ig64Plv1eL9NVs0X6RajmCDKD9Z1QU8zm0kSS2rr22jJD3cTtmb3+oJVfMkvEdoHbC5BwdIZAdFaVCk8YlDyAZGWJcMjT/JqHIitu/T56pD/Mh2q6ttgYtYn7Kr4C9yDnY2EU6M5PVBxoLYNUGzc991JSXfBW+F4DDriBiFCR/zQFWFMRGx/xedJ8HCSc9cK/tJy/9aglU9Z/yqzlCexRjj7uxQokzya/cZBKLkP1QjgwIy4w3mCA6UkDzm1pnjO3MLcKs3kFA4++oB0wDOWkwFdy40TAgd0i6QJW4oKk2gXcuw8ar7iLEFf5hQZJzEuL6Syhg/ObxWUlFlAwU/r+OLdyRYVgRfhtoFpcv1Dd+EwjzlY8cXOML0k/uic1GmKWxL9B/w9vVGyvCa5V0XGW03p+JH/VVxSaLzGWYZ0GZp0tlw8vX1hp0kkOpldiEDHeFeG8h/euLVur/NA9Bz5hYuXKdTOQVjmCnqL4UcKAIEC/64s3sLVKOvpp8x+g4gSrZcjgsWFLy2KdDlgENuIpXr83YMZZZeKm/0zQObSsLPocyFWy7tLGoaCNHRfiYpqRnC2bReaXVInLr+Z4M9UTD/9wmAN+JGxeLp3bka6yi1eOU5HT4PX+Kbnw4Zl6ICVmTbdywfSQVN4Aj2HsUsZitrENvqTzFkVuYiSkBne1PIbS6WDRSbFRenilQA+VyCpfAEKn4KWvz4+hElgzLnga0sAM3rQsbX94u8HaV2RNK7cwG9K6nTugwsfoKQ6g2GdpKfBNAphBRT0yXXicU94RvdP/ml0MqMv+iJnOBD5ZTYZAfHJb4EiIvRdCPgRb1mJWqr+zoijegmVEg+wIGYajkkaZRwUBcctcWpEA40cMTKOQ6oVYWfLBU5SylDp5cTmwP8gSnF1HOfjuN0CwX/iXMY1CZZga5wyAMuC16Ck0HmTP8yOHEEI/iwlPVa77TRhlkX1TCs8KsxLDwffGa2XHzEtD9UbJnuUhhtn9qEJhg1+/xWx2tOAwhyn+aC9wPeWChFqHPE2BkE8cogKQLJKxI8+4b4Ws0mL+9GgWafV8UNYRV6nUgbJ3J5rcx1OkYAH1IkUHt4C6FMUL7iPbFw5H1CcJsIJhOqecErX9lV1K2tzLH4daTObzDC5ZL4QARlFIbAcgtDyj3JMeEjucGdA/VYZkGP6t+G6ZnR5oEOyTHR32ivXKcxaghaEP97HjfXMV6HcbtVB7AXEec+ED0Y82HUqe2a3utJmgedTOd8CVPXorTiP7hw7jpI/3N6ef8HiXVDXuMG/L4a+aQ4CwgET/em74FwI1sD95vk8X3uLyL7jgcezdM9nXTZoJ+m1i+gZLLQn/oK96PKGtbaLE0u6DVL5FxD+VjTJ1ImyrzkzoQTBTIMPQCgzlumH9b9ehP2cXAv6fDChGSuOg52MO3CANb5AMZ7zHmlDrhGF4bOnXkyY9khAqI6NqvLp5wGRtE7LaRwOfN8nmq3F0+fovr/CnKATSP4329n9SOBqqdgWQ+gYkTtToutTqSP2Smw3yk+VMDFAS9ErlRwEMx3FRnLC1yBfQP8bUwtNFS+lHgnZ1V68leFzh0+8h9arNqbwn3Sbx39IhuQ78lyGxHweo400R4MS7l1RDjkY8C2aticIhjmAoLCccHEm/762fI0MKBOYnMSrDq+KvTX4cvMQCFmW3+ly+wPhD6F4fTwr7P487C8eFEY5F/bcU+GkwmgsOYrZNAofr21g0YRTbP+jkLJyG2HqXT5sFnGtiVkiTANNpWki4+gCbPZ9zkYmatnL53EJ5lzpAkH5VyllyAwnizHyNzqyFdQ5a/m1h7C1LKY/rxH1IEssnkG7DYDt/Mvq+aXNYg5pN+VW6q4SmGsNpm2L00cm55EJEqz96mDSGij2v2GF3+T2J3gixJ0vqaQquCibk5aH0k2RyKritKYvhtB8iwE+jaM0E8xzmehzQ4EpHqMOQPM5Bf1UeQw16JM7TRyFGa2EX+Sd4iudq4cnqENPrJpxy8OX/knuwKJNqST/1GVvaYNOEfzDY0PbvAN5fxsO405M5zSkkAaYRIQ+U7aD0fklcXPAjcInJCzNzAVKcRFFmdjpDyh2NZ7I/Ymt5lbWRIAJOv3elQE5zyPs+eePk7x/52VtZpImr3bNEvN151CGT2XQncVrCaMjuVg8dOCk7YWwVryBdWmsJkzCmtzUpAEeA6BKHnYySOYx7fQX/06CtWf6WjPTFHyCZfP3LYmMJLAVBJCnSkdGVvqGnHi7SCuiZ3aHYFpdDTW5gJCl2FF6oWuV6v5PB+fO3PBW6/tC973LI1d783BsMHYi5GzaacCieFddF9dV9n3k+E2n8/nsn3wmwc5dW3a0Gz/nJu3p7w0lMROmyItwpJaReyeKIZ2TBP6ZFcBdqkntgCiVhPT5ertrrk21lTXJNAY0ZnJl0jFSeYuQjcHilpnCpa/RwCc4OT7Ic32T5QDwqIpE4FJj6IFCwNO3w1ukNsADyKKsLZIwIAajV2D7M0uaPkK9nwxlVX9sVbjvaMW8sOaK7JU5Ph5+Rz2Zp9829E5daaduCVlPpzhMuiAQDrPPGcBzpWZdxvPpueueJkufBo6AOAs5czs77BtWBnVDm1UPWvtysEIxnN9iFSMHR/zTVfFZt5bkmX/3camjq1t9wMETZioWRUetzkxgBBmt5Vsjv26D5YT1Zt0xkq0EVEmPLyYQ6LdylodK20qdon6/1E83vg9afIuvd9Qfhue+yzadXT63eL4yfsWkJnfxpcvnnIsyyigBgLcRYMUOv3vTO2E3lt9/8GregoU/gQMIBNAp+KoRJFcoTSDPAMrdazxA1GQyyMj1Mmyrkyg9daO/Bp/7zRF4yTToy+4xIyaObsZCUQ3xXo32ZYNkqVjSg1wNHke1aVVDNHDO4q7g4yueSuCKzJRTjYab7XPeaFlgXRAMdRgvpw7PH0qdzgL5taB7LumcQimr3/l+Tq497bZDVLp8t6djoD0LhZ3mMOmcRBTozXclb03KSZ95KAtk+N+JAuJZb24XQR1QXiF/R5DXSWzNoAAapxRDmbu/Q6JvQIeaKqopDhhIF7yxrVX6l/9pQV62vHG+0YE0EiugkaTwbff8qcVhBrdpXhOCyc1y4lcY6cqVDR8u0ciRqkMSvK0lMYB3F3vu2qTJltdrSNq/1Fa/bnlPzPodHuEfJKN7ximF8pkNbmtSEhgsbaO/A1eSVKc0wQbXKhrlBEaEnbRe/uKPt0f/DCCZfOBQrEk2rMH3b3oI6UWp0NTsaCJWnMqndOLuP0uAD0xWIb3A+XNOTXi/2atFOSdGzqNemPmRZ8q3Bzk720Hh7bj3rieNL1u6lggrkZ31HuIqiyRaIBUcCk0zub2yJp4tCzgBkMMIScbaVySAYJkE2F0BzIZLdqVlyN0AddIkVotD1USJYerKvGJX7bromPB1WSXbMQZ3Ep5yTRf6xX/thXC7mHTwOhumsxJbxEoqutcmKrfmZUlqFPjlGwZ2RG4YKNF50noj/luDcN2XmD7Rqqgz9YcPbQp3VPPj4oPPCF0aQQDntynbYlBVA8bMNjoJU76dC+tumY3u7NPpGHvOc8v9yT76eGb67D31DBIiiFN5U6ftrO7qGGisyE/V7NrhJQPNENh7hcte4Y8NDaq3FUdwxkTzPxo/aWM7FhzePqh8eKQQFRrj8+eKWgFR4CopAeawgUtVPBwun1zp0iJHnYDja7FhK+MC9ZKSQZhWjT5Z8XVdAibA1Le6joBYDu59IT5LGyj8z0P7oTiuYoBIb3es1b4DMXM6BqWifMhBNB8t/Oe860FUCTis9f/t7jkErFHXB75qDiH5QfQoj3fVHpdixsxR7GT9vXNoFFhDI+MuQf3u6Hkzw19LElbJcCe3i1yiN8iNtfvW93IZmnF503jGUOinI4tNVrTdZ8tV39ThUpsAm3lQ4MxiKs5Ba8emLY/G5mjneX0ylmqXnzncCF0/6S5C9kdZj5YNuARTIkmaEB9uiMRWamypoCFdn+WtExghCWY9P8F21DOBXW0BZVJgHuoKSJ7NHoBTn78XOiga7lIMDL5Q7tPtL7A3sGrX4ck9sIz2FUNiMnxiM/q6eIr79oAdj7mR3QzQfva/EFQhDQFzqXHFHbpycljfQT0SImn1YJ6Xw71rEZ9tKxD5cC4tG+2zwMpL7q8aEFz4uASy2soPu7+8zdaV5JVkN6K9FQ6mi7q/584BBe/WbW3ESZdEFxq/4jBg8fbg3jYrtnxGWqlANU06melti9gjvpflNcE7haJKVkWTJP8Z0eh6DNfiER803rYj+9xdMXXhgEuzdLl+YLelYQjYdKkZRA8MhPuCbpRE0nEfOyW1r+8GlsiBQY8VPfa/s3Zllzn/jwg0RLcvirFjzsvx4vMurn9NLTDyLchQnAwlfBWGQ2QzW0bM91F359S2kxoAoH/fe/5nohsT6NpAgs95nfrWqZThgj8Ex3CR16fmnHNkEp/gM1CMkX96CUFQuKKzDYewm7GaB3nONwFziermoLP0Ju/kCEcSjNOAT9Cbsx8+Fm57I0GEKAzxQwCD2tHd1idYXw1iValJlBs2F9r5IaozGLde6C6qkpZr+9+/WKnDUIEbE57cwHFWGFN5F1HG9PfCS+IWeok55yrk3RSk4xNNs4wIv0Xk6nrd+cd2tTkNiz3/zHbpmLB9W63X33vaJE3oyGE1xLxX+7BALK0rPZcSQfcTqCE2j23Yu16QqavlcOqUJ4HnPVQ/5HvWk2fKvmHgHsduimWzmQfk8ATgp13/NSHJT/aVqxs4v7drhGXecwvIcp4A4hUqq7PwfiqALTNwnP8ssLD9c2iya6axCQNu9UCvoGjILnOtqrmvbVqA1YDdcH9GhbsQ1u/kamTzVjrg1cu2YT62Sv+7Z5A3hfUsVNndAZWP5BcobJUqrtpRfNdn/o05p0Lh1YvLswrsEcNxtSfVJAUdBFBrdMPP8DAR/ie6P+IupY1P1Z5yyXcpPJTJp9hwUefkAgXxLoGEcwh96OFfSjOtnKwv4t9gbpiKUVNkZ9XK67dS1kCLzLto/G1TpHKkYlOI4JpJUtsr9v243aJXgMCNTyqvmq0KeD4LagFY/LgXEnIsGENlOLZYddaLEzrnP3mubL81Cxl80b/XSgEBNLDqJ4ZXatEjPz+jpjpCpR+ylztseRkGq21d1PuQxIOn1d7x8RSzaZiNISkIPDv851YSXahHq8L73L8MYh2RmMhzIfhkkyjH0e/H4ACfv99bW1Q9a+Z6+mJe7Ko0X4UQYeJVyhHcSuujy+tzbbqosluj5/p28xQgpj+xW76puLtv/scnJobtRsluMCoVR/jAKmkmYIBDHmhcSNAo8nlh/8HwJ8CO6Hm4JjC2uk62tSYkHkAe6VZL1BOXSxKywRxKoH/Bk6j564OEjqndxgD23Fl2XiIQERC2dq/9soBgIuuGyyELrapq+IEvJRM5bDXpbCcY0PsB91WF1CLqqSjTRaQxbAQlQUe2vjLB4cL6QePdkyhjjm7guJiht1cbZHINqtKJkqeopKIY8+MGNgdzZLVDaX5MKZBy0jV+fbYCm2FL0HO60cerbiaLA59CN6kuAfbPs8HLb/iXO8PEUvuRByyvZRr3ug2hr9TyEawrQHMBRPN+Z6jbL4EwFTdOpQjH42CZf4eOPM8uYtsKSFJJVjkb4R5n58Qkl4wVNraBBVbxyO6ZQWova83LFHy8jvANxqkFaxXj020BcqDlil0Oy4TLTdH0JVX2leiMVpQJTTydc6zkegYjvb+nKpHzO4BOSjvqpDle2ZqA1xXxzAXHeIg4LhZe88Ch6NnPd5XIifLTMjuLd3TkC03TCbtVXdWJKFRHxwXnCjPCYDyBaOZkzKGh69ciduYyy9NxSOzFtdTZq20Y7AaRVbpfwY0vb1vGw/uBxNT2GIP3uAkNNkie5r0ocyfgLduhT951EFC+9uuoCAWq6kuPePrBSZ/E8cLLTOkATsHHF8HbClS9yVXq36dhe4gXBCzMvjdzkO83S3eY6HMhf1zhdCTIJtrmmeA18uN5PqNNFyZ/9C2WLUF1u2cGo1u04FJqs5/z7XahSYFdXWpK59Mo/dfOzYAPaONsOdC8yLZCbApxvM0CjFvTFcMou1o64+6baHwBZEHBUerhqDpD1Ih/9mP40TdNQhbm02PnUS+KhK3/89Z3vcz4LknA0nIRYKn3mdhigu61cxm+nIF+ZaissE9s+ccyAMx6qpdFdD1FdcH5BSgQ34t2fFlRQ5MNsl8zhcQ+cTbEXDTdq5teSbOUSN9jOUPo6Or9P5XZcFrn+cDm8LB2mjw4xOMEV6kousfQ82Qw6DJPM348gdde1VlUWp/QawK5+1bBm7IXTPtALbBavItUB2N//TfdLE/u35lKMk9WqNDoph0y53TKfsrFiP4Oc5FwpshmGafpR8hwR3E1BjRxNYy+ob0u4zmUYTBZJR3yODtR/bX/sG8hFvrkW9zqdloQb65Cj8Z/a80w6MevMLMsT0qwwu8ZOmPyS/thKoVV4wwQgm7EJZJitXr1IZSClVempl7FzTB85pZdqaca79kd3bdmjixnwz6yJ84jMio8+qEPNxdiYvL449q4KXc56HjoC8Gw+Kp57pAy8FwU82jRs8jEbDRC5baTMDJC7zD/+G3++6TalI45poDvpZ+jdhutamWDNsYN8fr3vBdVNQTA4G9NfAcuE8AW8resq8iPoMBr5m63uXm0nzElZ/3P56w2WFABi08W9LIbymc31Lz1r1yuDRFo2V2b037yk1xdOBtaGgNMh5ZEFObeV6P8vjWCaUaJot9ooLnXZsHNIu6WTRsz6qP5qRxdEa3XoGNp1F2xFxE8Jy6Hawp9XVSgajQ/XGgzYoe0PL1tZOArUT+6+rEfQ2S15Gn0BFp0bV46XXBYK0QKpOUA/NwQLphnonLAstBsgL5XTbLnBEVDfHYfcnfu3jl082MxREhAe8NHKUmzbf59nDaLabCq0GYZlgtzjN4ys7iHnTtORLZWNp09Utj1zgK+NlXMW5CUXpP0iph4+KSa2ITNx/rMQ2ll4OF2yABxz3pPDE3EyoFcPFw7nFq5cLNogi+HLDF63TnzQyL0s8hJs1htCP6cQ6lmsfdBcKO56hLTcuxc6DmcW5AbBKytf4xUUrvJhe9iR45J/A4/e2M85Z/D6h/W1PF0BJsW7GJfgt5rwR6/xiUNiq9PHz5sx6yhZFYHgDOrBTbWSm185FPQ84l/C9U//cgFAH/v1NzhdgYuvGhYlT9LrLF+xx6lLocVeerfXzBSNRblBp4/SmZk1O2MgVX2OnPz35z1hZvF8UVpTdlNgJzu5qTK8jdxQ70w5ysIc9KNoC4cxWiH1FKSVzmmYvTr1paGnCoROOLZUX6ylVDSN7ku3bd+njjJDBeEISv6NZtV3D/Hgd1nxVacM5dM56uOrbmKOCyz59RTfV+/LHMcclUoXwcSJg3cCED2GNh69lCCNbxVenVmZgPFAL14szL26cEMdNUvFPEgZZrLyFsgXjTD94z/0ssWtL948u5bueiGjF9nzBw29Q2QcCAy3IFpygZOyr4ixQrUMPmN/ictGt8+qnwCHkPBPs7lD/x6v0XBRzq3b4e0qekysZpJpzZFVs0m5Mg0hAxd8URWSx3A0OzhZEQ8v07n33WLY0A7h4uTxl39M5EzkhtT01rtfmI93KY9kr9Rsj4CQqeAGldI6M/YdyoZhNrTJhWAdcoVIjOgTsxjlmJ3bOellWr6Gyfdl8kbdGaHK6+ZKe1/jTIualmLa6fNDJRBxBiVqx8tXM5PW5uyfq6DvWTx4MyMhym/12yEhe9ZCnVY/PYxnF5+CBtwG3Xvlqlbc9bKVcqFR1CU+HJdVW6el5OV1OZVoQXijlDeinf8Ey2ZkQM9uAZ0+LAZ5zuP5bd8b5rS8KvIpfMbrZ1qw7dffigI8S9qrEMNFTKw2oBExRtTWWXMtVmFbRcbxGkWcqOfDfPHWCpGUHBjXlU8Y9bqlWn9Dw0g0ggS+GNCot+24C1H4qiogYzNM9I+elodlx7ZRchaQDgHlySkxXJzLVo1LJi5GKmk/FyI7l00YcRFSh1do1Janu77lPzN7WTe6w8M1SjZC4V3ybQ/KkBAoJzIX7iIPPgYxDaTFA1H6f6oGJS1Z7RtisuSoD/HX34Kxl5GadVJ5HNHwnOm4tlmB/auA4ynh7HFc77yi9/gwWHO/RdGZZ7rfAtpvP6lgZ+Yj9lOcN2neShX43oyaIWwVzXjq77xUI0GqVu6sr9qu8Ay4Rmd5qXfNcBUqAFDbg0FkT3mdfOHqJo0kafLSoj+Xx02TlXNYIxb0pp6x4hpb0zN2Pk5VrT3iD1iJf8uNnlOVQuba5MYvGE1nbiO5f53zLMKB8zh9vIrENY+RJ+Z3rV5A3D0zJ8uK3MaRWFjEFpBy+1RuyCZY32y3VxUyaBYIOq2Fn2iutUWhljQEtKcF094xXADseeF+gIzprSKjkGGMwrr6f6wcNon+OFkpN5qsKQAWeT2luYRdDnhj6bYg+RZ7PrKCavwfRriDAPVCbaYL6JIDWQdFtciEvbx6kP8mq/lvoM5Ol0RfJjcXO+owYDoST0Rwpx1aPjlwhAbVYmK+puFR6RZHpmLjbvOplojDzI6nQxin6cSlpNWndVW6OGfNf4MuCt3g7scFr7NuUDLFw/I+p5UlZGEVQ56mOQzm5M9hFP6pjeCHs3WhU124f3RmBtLMG2+wxDB9BVNaS3y0GehKc85CKtnlAi6tS8HoCWOiOL4m0P91FUTELZsAE+JgtVTdiVcBxFBnAXL95nIEbHHuP8hwIRpkVTt1ah4sYMG0mTQlshVBI8Q/xaUMFZuAESNUEup8XU6zovyvcGRuk66AEWlLqo7xs5DOw+fQv+rK/sIJ8vUEhRTZU8DAUrfu9Yh3yzrKoMHcgdXisAiIRKMkTojCs9FNhWcGAtRBfrz6Q06+6iPDOccdcpL8UVyOc8jY0I8a7PZhnjTkiaKEQHF85OKA60+pCRF8gaaQ4KcZH/szTXw4xbnSBbliiZJRNuDJBzDq9Qx7ktZDFXocDXDLh0aI8UgeGNWGl7VHdsll4fAHkh22ii2CkiYftZDeOYXPgWoCVLvsOEZ7WPqkrcMBY6cJ8fGvK5L5qhLILMKuGAfsE91aMB2wyEEedO4sDC7/zi79+SX4NoczSbLPNOjf9PLPcQANwAM9nfixGzdShtJb7cyksYC2h9A5CNfHABWQaIpIo2Rf2RA80uo9KF9WsWD5O5dJzIjMIubDtV+LaBCTAQ56zqLe4xIlBdfhIhDNLEqE5dZu5JQJ/VT+fGvUNk5KA/e3s1/9WZQoERUUeh1CKileU3RNUX1sTZqxrPw2BadP6nFcx6vd/dIi4LDajxdMxm6wF0RLDG6UxgKwjwhUBdKjcT5Mov57qzOTkFMKnaSzmaoR3xsDxMjYNWM9ASz1Ar4pBGPZ6f+YclQKtT8V1x5yGQM3HpWqA3IImHBDnBVBHHXrQW6VCymaPLQDtyKQJ3dpEAACyL3v7/i5Y/EOLCW/q2f8bU8aeCBervHXunLjlccPp4HenD5RduQtbBjzY5Nv4n1ahcR4xD+Wck0k4or2vFWLQNha6x9Hzjyj7FbFM6txbgW7q/+y3xgQDJAECPsiP++Z+7EuaB+/ufiudAEgOWXSrVaOVgzjZBJRvrFIDwplXZIPCfra4Vda8qXxAVXHxp+MM2E4cJiYXOJhCl4leHrjRzkq5V+fcWASrd2ZLJsuOYtPyCDGTZEdDm71FDunCGSjX5ocO7G6eZJ38CUi0AQoji8n9nF19/uwKF1XN7LIRCKmWYnTDXhNNY8Oqv8yFJusXEC7xbJaDxEizn+pzx2wYfiXB7Dbsa/edJbSUuv6NDQBeCNrs0hY0EAo/xAb8H2vWqgGNlN6QTwV01+pfunJffAkgyDPKdmfppjGk447Hhnm4KwqcE905LvtYa+dvIW3Sr71Yie+4bgnGPoNR4zqkhAtgeElILoB499SlR4pGmquQ1hMJo+gGGChhaqtu0TwVsRUoc9CnZBc3yccNstuwtwAauadJEQtEN3u11ekRtfMACi5X0MTizBlJ7COq+uJQHJLEv1ZXdRdI5m/wxLnb2dJAKOSA2zpY2bA4K065eJyYpWQwPyYi9dHQUiW5SvVKGjRaHXzAtt8Let7LM1ePz2mTntHEPbb7RuRl4HkWSJJ88XCSdWiR/SNOG2AsA2ESmENHaDeMJ7ykir5LS6Gdvy3Gh6vY8N/Usy3T5nvwQfQqJ4R0g/5hXKs/Rjv22+N+Tz8J3n3RqRxlizghN9N2GLxw2Esc2gAVap3Iv8icH8ZE+fKdlWbFez6re4yXRNCHrSO1OdrHoG8KevSUSfIL2kn6fA5mS4Y3jfUjBcsP9nKEVV/OHXjrDe6jwRoInQI3GGFZ+7XR4PswBFTUojNPimPOHj3IYIdeU3Ja9GVBOEeC5ruEoJlFfShE0zz06Hp1At3NrH+qpHlzUFHIHTPLoS0PPoAh8FlrtgAAAACKndLLPPakSdBY4hkxJ1QZvmVNjcHeD1ltmjMQsoYo4sdV4YU5uQlJAYD05MYYqOG9aG1YrOu2gDfaZUJR141c05QQHGRnfae7gST9slOXpaIEF3vFsP/0ejsE+XunBtIrtSXqMBxO9R/W/k6xR80OoJ9r24CG9/BSPsWt9TzVA8WZ4ixKYdXgR/8YbjT9WP3eBBDm968I08qEy3y4vBCepdBRjRx1p7spHMej+dKtW7hdtktNsVPqRPrh2fTSHJw4gF9T79eYCitshDHAeDotMXZt3IcI76zOA30N1M29qQEwHGQ6Jhh9KHSzPgQ593KozVhAYMRA4Vx/288lnVbMEBPycACPCwNGm49fHlzXhBTS7kai4A/jVkBL5SyRNGBx23vCJgtqBofSJyfYDFLx2SXnyDQmYRK5hC2mBOTFiQ2bi3XhwaFJ2n2g7HTSe49vIqvtPrzt/1CAQcpeNTyD+nHZPTTAALxKbEITeyc0R0rqT0uDRY3Zk/CcS7CRiWdUu8WSP+y2p1bcgIU05VXyfdwzyK3so93hvWc/HmUIKZbxp/cOSOBRJB4hxywC6PGtTG+h8wfIJauiOfEeAhafrQhPyuFCOVzi7h/Kc3yp2yBEyqgZzWnTZ0Zb224acwVwLTwwZLlx0F2P5CcuaOc+t7mYdskQjJ3IVMYYPai0CcAp5wKTejnyVzY930BvZ8u6jMGlGUQyCXj4BRCH4hnGpvRYP6dKY8rmbjP2eKC4IVuu1lyCGlfFja0arPovoe1XzUiTeXec8YyF9cRgHgi+1oNaKTz8AdAEAdgOmt1igSR3vX5IGBLP/Az67cNfJvdvniLhPpT77cciurO9qkz0iYeKfhkpLprLcLkn2765kLRBUYMFuRA37ww2U1np4JlbdXYopQURiLfbD5K1mGQAUuQqFpcWvDp3nFu2cDk6BBHZT4V/yPO88RqK3TtuJeGNTzqOhzi4pLBDALtE4H1IcuPusqUzZ1U1mEJ7SbumniN2O+9tML/78OI6Rb6nPRk21nHVQF+imIjlG/WGpRWwfvaNbrelq+19DA90/lrmHw/Qj2PIOTsBRnNvJ3dK0uJkpJmAji455r3eGsn1h9XNagf45msgiKp0Rw47BLUUFVAPgGlhIWZgHaI5U78xqU1R+vtfmOvZZF+d9mGIZ3QA6lixpS04W5BEQcVyoKN6zTJoh9D63xYY0je3Klld5PDPaBMiY0G3L4zd/iAFoH8r2nQoC0W22c5xj6VvIofzV86+4WOfR0YN0ll4vplr77FC17khVpZEUO4bHfKBOOaOL8uJkQPhqHECx9lVtSPA/WSwWMIshW+JRXQoiZSGRvrHvMKcUDdPIL4pGl2YkjkY4hFkNd4uY2IBsyVVGtTt9gx4XC2B0RM7W5/+tgfOQ1fy8x1cpbnynBt4/C6SAjKJQoJur6z8/hQY+zTLTCwvBs5DPf2xAOmiozzwLYb7q5sw0zCYqE/z8nedKTPtj/hsj+mMS1KbRikqbGbj+haWHlXfu2azaMgGVPORNfMlBRTD+1pEFdvvCM9i6qlL1J6kMpPflqZ6L6c+bWUvKAInrlbgYzHqNEm5kk1dU+AGDdhmqvgtlcv7jwJGoBBIIQAd3srhbewwl1bIlsdcBY/zvoCELgvSsOtFY05+RkB0RjGEM+yGHGVQB3HRKYCX18g/1E590nPHUGylmgeHFh60Ih9umVUu/Er/rPmyo3IldSYk84uY2pj74SKw258+dYynqWB3CzNpRVc5wZYGZpaJ6YGoqZbEI44WoRMIg7g2XBQUEmEiYOcJjOCHMRFT+huVj32gpqzej7b5P0epr5/vOPcA6CI36nxs+PBzOW/dtm2NxaRKdSqG90+RCvsqPXRakyk/N8yud4HteNLBIr9O1m6jwHxxwKcf8CWrbOhkXrixAHFvNHKeQLbOecXa1io67n79rVVLJIne3M9rsIsvXmvvj9FdZ7gEBFaCXmK+PHxorrFuNaPSxOvlMdpCFL7LlfgTtSYrlY6l1swhdH90R5cK628AAXKxFZLWGuW1n5+ntShtHZfN17K9N7mSEn3hvpc15g8Bq8bNtvGBnm/ZQbdVLT2AaHlMdMhnONGSQLpBDbIK7aV9abUDroyAVr//5cizlI7WTJRlLKc7j6lfFlRRQEyZPtnluDW/MEVROx9EC9j4oPtlHT7CF4NISAtUm0SgHuFiLjs5OWfU3pfUXWhpVXha3Xzr0ZtDwjf4uqPt3JWQawNsdofRbHHfE1qhdllmcBfRq8d8lD7hRHMzaSO4sUM0kXuH7BvKWQQdvATfCMyPIGZy9SpaydNR/ZuimeUxRrTmvyP56PzDQPR9HSsWjYYZieO6K7o3y3LgPVRQ83NHJDKu0OlA1q85hCac0EUpbMN8iX+wQawYoLqeRiJ+1xz8sBzTeYEV3xsK9FJ3Qk7dZRSCVSUHGz2PPc8BtTSjJlEJqV/scwysq9N7vdPnqCZqttlAceolMu/z6ogvpDgN/7f2xVOmWw/pmiWnY6bAFFmwieJPXtvKTon7fhqosn5KL1aQ3XN2OWMs0pNVW7fJyxifWmeQ52g0MSkF5W2+fJ3cu1se4kqpkV6mlChcH23Hp+T14VE4Cz94nfPnXPwW3w/nhEDLS7dNVIoU53X052xk66boIkw3FW9ATJIQLa0MkY1NYh+bZrH6KrCxb6bQaMlSMNfqzdWxb7R00yCZsN7rSpUgliO+nQ+/LP6gvWsef9Lchdyfz8Cg0kwWAAsRlU00nDgpuD5E/DGVARd2wvcM/1PVPPimH9+tTS6UKLG1V9q+Ua/48BJAkGMQiPeBLLfB4n6wMJ4qlgcwObQ23My7qE//ZUPEI/mx/yQvtyXTk+vseWNkEyMDvEYcuoI++Qv2vXjylvPLi5y+zBpOCNczn/5EDFrYm0tyu3HJ0yc6w1kf72KORCsy5m/zmnAIJ8TSD1my8SBcrAr2wzgHD0xO7jG+o7jDLk0Igmrpd71ZvNdCwccUYp8zg4zCQvKfqKK1yBpcYnsN1OVVqvAYKWm9tvD7kVNmB4BHKLnlmXKmYcawDTHgGqf/TnSOeWcQsgCWv7fJVKxSnHzM/j7/ee8MNuW7agV/R+l0K+XXOjy6SixTokNluSwdPHJ70oEDTAe63e5ObOPO2q7BDB/7Nl90jIiQVDBSybJQ5kDCiy9aw6suwluvd1DzUVFlFlt+8BuNal+3p5eaelfYwN0Usv9s2plz5CypHQACDdDgKrQ5wxbhpijTeFF9e7XpjxfNlfGQExozSPRSwPrCFWpF4bU/N78OrmtQtRsnQMMSl4c4hXTYhkjeqHutzSeUBAacBYJ+PocZ3l4ct9giYlHlOjKkg2Hx8OptcxQsy9inZpIM+zprzzhXMsff6yHZriuqc0nOcOSdExlWJAXusMly1vJC9IJnQyWhLVV9ulxr6uIQ3QfzBCrzcwWz6TfBNH6WQHG6Si8bZ9TxIxgs5p6c34CC9L0PPNSIJJ5QJubPjYWQmvlq4/ZVDwCTz/0mdykHO7Pbx6mO/HpN7vLYmcmKAcuihqf3QSJbAB3GYzelL+gGYLcXEn4L2nl7FTbPpkVahWxPI0oY80yhR6IN93uT+iSSGGuQvlzdcZ63LlwUH7NnQwLhO/iO/6dqBT5pobJHNUuC4Ocvsj6XiiUhq6AUVvYctsHqoX1nAT7A4qb3pMQ2L+vo9oFPdoojUxXQFsLE/95mxIJoJS0uFnrs3bp4V+PJerLV9MSfM5oCN1P4s1zo5gqh8AFFA9f7JxdB1u520u789ZYi5eMgoXwjN8ic+5yS9Pxg2Nlgc1EhnD6J3nEhW8CdGISmvLNXIf74YEFE0z/DoHBpqOLE0ZFObArMmDDMUuE9ObQT+ghrEeXUdWeANQMI69tez7xoT/Z7UZ+vfbfOP0xg0wiqsATmUPW+hMPLksrL4Dv/QGkFmUqxJFk4YscXvDofYwS+dv5w8iVRfca29VcBZIMqqt77fIZGjmGcXaB1zLlkIjP6oBwIo7NlyrEybyy/3v/2WgIIaKutjeplVm1Ie5CwESaPIiOjNl/0fE91zx/iET848J7HbXP4PFGySvlEP6qVQTQ2O7BVd9zo8dVGhm5oT0iaPGarz/qhQ9ysYcmFRoNH1/TyJ8fBS9eOoEhgFMYE+1kNU0lCD4wn/8kLNvNOJPJ42lRA6EuwxhNaS/EC3EnGG/sWXe9RiUuc6TidE3DQHWpyULhU4GzStG2kfWYhjztzVLFrwxC9SFZilN69R07GrEyyUH0Q0HQyvTL4s77xtc1Zmms6qNStyGpcB5El+eNyJxGYg4YhAjc/Ino5EaGABORtdnScCj9YWz1wKYLDlzYpZw9tFUUnxHxOSYfq44m5TSNgEfNCpUee95H8iUHMk/sSTDz2ebW8CmngiWDmsPuD547YDZuWh776wzCtJm4TRm6cApw9B4Xa6Z1diBhOmVYJf8q4v0zrWMs2BMsWIZck3cMWA9ro4dTTrm3reBojZ4b8FuxLgUMUr6dDMmnn2eLjjsJsYA8FmvO256TBIimt0lZelIVEJoe7yJxy1+OpU1EUucyVjTnhrQINukscYFgUy0nr/zmpP9fRm5jUl6ihLt+iMMifzIVcNk0rhzaNjmrxO+kTg1p6vnxpP8rGo9zAs8qDS+Xxi6i8YGBvGdAO0ZAPvbegBWFkE/uCbzLyaL1ckNIGCY2ExytI1YyUfJaBfuUZNhcZjNyKjy/MUHNszsNPogpLmAkdQuBhPoWHQRWlQDQhtKje9e7BNLtajd/R8GaQRrqCQt7DRoCQz2wCKGo6B8HFmJv9AYMoWtvDREbBifM99yDUlBZJlo+0Gj7qzlKg8AR1cDHUq0JOiOqWy+WDgG6hlSmz+mIQbfd1AxEOLZKB159D2sehQ1DALrCRREUu/PR67QfN3clNdhkSry/RIv2KzlYsV1pfzVnsJ3EOBK6IN0LM4P5uWhi7frNTi9GT5EGu/K2EYKJzjF4g8yvtINleM0QjJVHW4TDwhcx4OncwaGd/hiwv5qSkzz/omOkyClwX/yo8efkNCy9WJ+ISQKjKzflv7xWG9YhsLcrvJYBKgImHUeZrrztaoMgX4GGGqfBal5D9mEsaN5M+Oj0GfH83Fs3QBlpTk5Db3mLdCRRnq/jGOzXiLKu28tGICIdq/qN7irHEzZ5kCxIFkyDlHYzsYqLOS6w7Ycc+zCpm1GlOi3LV9sZOvqKVgzjSW44Lyo6dYcChvU1aALo76Ajgoly8KH2yFUgZPuVC1SkmhSteVDzd8YlKnbUUzY80z4FJyhZDYhHIFkO9HdYPYqHdk4qA1P5mo9bxqK05M79kNH4eKKfoPODcFcBxpvErtYnkZP9dDgLtCpjgGQK2sLV1JFvtibz9BGFXMM1D2spSmF410g5dbDKmho3AbXQmFibgoZWtCYxekxLMbBgBoIJulpd1hrfiLjreG44QHksuKABz0J2Sd4PT//izQHStvh5zoFQzOUyd4hw9UKvPQpryDpASTMZGITbAfktup7JUPLeE6ElCmEDlFOtUrWcq/knYbUe7amcKh+qLSGFHklYCNXygw4Gv6zd6JLcJXOP43mNZjvA/Z2IAUjbfZfQ3ERIBGv9VUycDwPoYVr9cd8+R6z1sxfTRtr9HgGzpKRaV3B+jfIZNS+lvxCqyNpTKqdigPhJp1qVoNyKM5iCrXYBWkRuGGHZKj/m59wPQaYT9UdYgAiLO3aSnaBlVuIaQ5dJj5+Hm5OVDHWbKrpvviV+zYn0N0a0X14bkNP4fmoBeHq+lcve8P7PXyhXGpZS0hwTclVZqaxZHCVHdME884Nap6iBSrJJP/7KDeGEBC0NEnwzSNnlRRCPtc7MaHx+sVBlJn0dz3XUGn8c7zXpGflzUzpJyBxG8UI7ff6xwM39T6yn84sSUu5T/86vCfxBfgFlEGQA/qVL7YyZACIX7pukkBQSVwqfHv0/kH/1ZrGbTpGLTr54MOlIGK+NyuEr9W7AB2TVxsEj+5ygRl/UtpgRIN0k5gWp9Cri8yPDL9M7AVa2ykWFq6cZSiDCdg+G32fVx33Szg4M9RNmDB/epkqCqwsIc2/IPqxAe5bgrVZbQrUFb3BNd63Vqid3CUaMr388zrzqhaDWnDJDViL5GXv3t+hbYnJf3UJCF/q2FTLjJAeDzRdemg0KQNA0qSg7+UYYwbrVkAoUPwnSfK/2jroSW92xxj08ff/HPAM7byKM5WN/Tj02ElCQf3Ep1iArW+NaSAUStg1OYP4rz3/H/gpc20b47lSUZuQuq6T6ec3KaJ5B60mmEbSarGrzlgGE1KBhDnVJvWiyQuDRWCQrPOhgHQtzIGrDhEbvDOFR8Pzhmt/z3ppvoxJm4aj0TpXYiB0eRrzRr3Abicp0Zxldm3m76s17AwBaOeM0/+RsTEIvs5zhv9bKGgctROIIJPKmykAjcYUcVWohpbqsXscPbywvENzsFDEOqJNXtIUp0hfGg57OFDMBmGgeAA8nYiZ7jg0r3GdLqgwz/VpENai79TX1mlLO/5OH+wIfLQSQdIkIkwhgNbkhOy9qOGIPGwkIHlWJi/qTbGY+66YnJn+l+ZeFuNAuicW6QtceMXBO4PFoJ1lKq6/5shSboYNoAiqgiYe5zfgq5ZC5S7UtVCqp6xguWe4KxkyVhgQS5EOerqQLrAT3Mln0YhHG67yUxQy6quY4xWMlG8R17KrdcpLh0rGdv4USNEELpwrM2+X/1gTJxzfevoTQP+dWlKAdzcdKEpZtKe/CWoDGC8bYeL5shlcZTtiudQUCMD2o7HJ72T8ppDZ3rS9GruN19SEokUctC6y8WIxMdoCuXWZly0HMEakRJfAvWa1a6Fn+xi0hqUbMrjmYrNlD7CPdeBEXB/Emzxc4IM+tZ9h2mBsbqwzCRaCPBwWfJHUSx7xkM4/kSbIWzG8ZB7N86A4UmRE2+mD2PFr9+ZuUsxS3RXk21z4GuQqJm4eDoHO2Ar3CFCiMJfT5uDwqV1LEZJCosECwYqmdiqj5fu+GETdswrkcYOsXRk4bKkvJ2Oz485Egrnt9+u/op382uaAoVa2HmOwBb28XNyM1f8Zxcwd+LU8FYS42RXyigt141Hi9vukjEE/OI2QQvMF8W3Glb4B4N0fAN5J6oKO6svfcKXsqQ0g/Scov/hV0J7+1kCJjsaHDcj0DAcCmpSccY9f3rmfcdHZMoe9IJz8Gof9EaB/6CknW86dxXQEyBJnQGaEbCLPoYtuXW2uWyNjwMaegD+9u1XJkm53LrMHmHLVceA8Hae0FBrtoqktb0HIyCirJMVqx0KeeF1AAjxKRulQM5uhbviezvXpBhB2hEhDGKxCdSpJoLAwmst/dG+74x5gwvh2buN/uxnczBKRJE9jqQVQ33uSLSBfUwb15KTOkpnXjCUT2YsIJ+434LUlDaxgUN7Vk5OtzC0/sU2GJHuY7bvHtMATY2jeqhPd4+TwvtqdFnTBJfrgKeA2ht0fLOKIRSzvTkJZc/L362pAwN4eF4KYefOGCbkDZJhDyMx658XKiY7vs5rqsnY4ekajGnfsuRSbjiIxgW9slihVo6AT3whZ0N7WDtqnn6zUHWhbvywckURuT8Dvt4hLjF2J3/DCBHL5V7BMBwfRoktNNb+Q6tZ0OXXRydoXHfQwE/4TYFDYOphFOU751N9yhTdrbKKRbJIDSHYrKu8txyTuzKE1ZUnDpSLoCZiKBElQnaWKDrFBB+ENOpwBZ8M8KQu2VNYA1WoNnf0fpMmq7e/oH1MUEVnJ0niOerJ3pXqB1hjIJmvuizCPxqzH0VoAvH+5a82laGENr5RRSw3MbV5akD3+/74PuZVfo/OtH5G9U04RIGd4CUwZx5z+MG2BV2PBcmKzIZjjRVCOprGpPTRgFvSi3i+zRNSJsVby3T9N3zzh4zO1ut8QZ9RoDyoR88ji/hILY/pZL/F3tYXA3cJjDf241f3s1i4HID42dVuD0ESX+DJT9mw036CcM2qBuPorvviXI1iVQk8aYw+kT+3ce/tEnlXg+O2+sSsiqaEwKp8PCmc9tsXA+hSqktPJMo9GWXs4REV+zEkt/jYRyNcq7ZRLzAzdSJFs6BB/w7w05TebDD44PGv080t+lQaq82IIjKf0HqdVSES7xceBj47+PDhwuy/oqDfNDhOio8z+BcEa5QVk6S1rt8bYIkPBukH7SxWVqaUOV6vDYgVV2EQmDONGB20Tct9WjKPigh8TxvnGrhKdho6PRqXymfsthQ/ZD2j1+e+SxxyjgAsiCMjoK6CxVgcADoQg0j2gSsHjthRJcTfAnNOmO55Sn+3uoV3nmByzq5W03X3IRQMZpZlP1sMUWD8LpDCKhlENB4L6bS5B0VYIct8cJzxUnetkD2brJ9wg8Ohiz0sBNUhN3BJy1oQp/lmH76AAuLmWZ6XwAwzlQPGi7YYatXFeUoM/3AGAK7xjkZhi+vrBjO5wjibYXPFPAEKiRaRb0Kj64ZPvsjoKcSPqTIc0j58oVyEUOpLS6makO0JNqFlp9sbP3zQ/8bj/A6YcHNc9IVMVs89YlL8wdl8a6iwp8JIak5Y2cGG5eCZtAZwMhbp1VliAGubdkiF1QnAVRYL+DUvN5eykBykXA2vBL/VF2jozry/gJM0JiRjisgpA7V7zmLsCI1A5ssTdMTSWzrkUZAaIhcp1/jaQKsULnmyk5+Kpq0k27nxSavqvecX3kuU26uvsjQROyHh0XEJXAZ0Vy/vYa5g582hUaQ7spDl8/nXkEeW+EQwfH6MRIIbznYtqRJ6aGj9aPCt/ogtu2assn9AT0GsG6p1bDTs+5NQ2pRRaZWq/leflObrtM1OJSY8tLkIYsPe1uL3OF8aZcQmim4fNr7ham4p4RaSWXWfN0eIrnUUo5WI9YvvX6ni8BA1geQb5HeWSvcelzsN9nDinUa/NIuHoqm3QLrsN3iKutcndXUBNQvrrlUgU+VnHD9CnzrCPW3mQduGc5JnglfRz8aYNvDZ3sTJdkEaFPkEPFb+HwSRNFVagVdBf7597v0AmZCGeGRcGzTTLy+CQgU0fngnE8yEjJlm/5ckh3ZOFNLWbnlmAaOOLtzIv4qGqF3LXPjDEREwlULmpYXLt4Dri+kUpmUqNjgiRrd679fsBaVyA5gjQf26x2W03UnBdHUnAydLGkKlhK2fDn1UvCckGL4PwvQjNM5vxipSxnhDNL0cHKdE7Tf1hvTMWObzX+eKNjZUxyU56qFs+xsPs5oSN5g4b/jHDng0PIuNCr6n+AkDMUwXCaUWM9mbTcD/piWVdyJEL8jRUENQsfbXPSn89NNZwAIDC0tVGJWeF17StblHMjuYM5sBrrUILfVO04F2/0g54bcsSjrhxqDgFFCvHpT1SoGQ7hWjYtK/uBrlbf+n7adAd09MTglEFixvqBp8c7EjL3UC+0CFtKIGZ+XxSYgaMOswJWm8HWDRYk+kJTHF/7DA3AdIrz0MSkFHEiZhf4OSMs8h6VQxCQdcWQC2N2kc8LNAy/oWs+tNOj2t0ynqWZjFYq2GPDBoizH2kDetfsRqTzmBngHDSvh6H+k574kIWxPgDNx7ADbVjZYHUbis+lxFWRgYQIM4lq09uokvrzuVzR91Jqr5fV8emLkD2UCjqxRSRO1WMCLYBswrBw/C00QcJakcSv7jqePpp6TAXC6JLEzExtwT/1k/RDx8ym+2SgYDJtFlaTPo4b2dGJZ1eRr80wzXpRI6vbEWp3WJ4Fw2BKxii1kIAp7tK+crissDstS+xya8N0bLXw3hxxOJspCDbMaSa+UVd7KwFUDyvZirQ2I2VBPpHvqIixGonMd4U713qm74tVgejrBePknOv/p9clEzsUOSterwDl8aUYnz/Psu9vzVezV2IhiwLQdy9CLDiRTekWlrLTRtydh+U6my/vX75r+dzbhSfVxl7WCkxopaATrfplqgnDN/X8yTaVtob444Kf0dvtez5Z/BjKpS4iYMt3JasNRf1WSwzArAaB1XlP3DxK2HZQj8ymjRQdtYHTN+ExmpnJQuv1HzFg1i0jWQ+KKWFDoXbIeu0x8j6c2NBTcsPmGk1VhMmJp8+sj9u/eEiuXGgbviExAcRUguOExzTTYgOHsYPRDatTvVqbWgG/2C5ti4iMuJXGJlBpYUJDvFcgyrT6rij5a5FxTmPuuPnSFygczU7ad6rpqlCFf9bvEZNmg5kaDNzpB+cFIJR5BgfsFD3B8+8eZskXUq2JlRjMS4iMIlM4lYFH41IWvD8VcxldQKQDDV50OtxmyP4unUEcKr7LV8UWXUK+76jbdW2ETKzdyWnOVvqHa4z3QANJdHU56Fkc+BmXQRm2HIlbAOhBxOtQQdYuIQ7Ox9WdtHPgcvw0sTFAKaOsyXUebZFzMMSOfYTpvuofTl9Lwe/bq7PXUORZ1UA2jQoo4aqa3tZX93Rr/b0neXG2sbW0AIBPOYRkApbWGbODw7OHWUAw7IOz9H8l2Sc3MdbWaGcQ9QUC5Nr7x7Hf9XRa637nbeLSmSyKWNkk847WB2FjV5Jc/f8qWqnswireb3qyS8n18I995+k2TqnBAdoACQuxDSj9qDlD46U94c/t7cWmXED+et8D2mHuQ/Se4VMvSLY+QWXtNBlgWJhr0zU1DYlxmfACevn0VlJP+FLGEjQj6xBR/Pzv6RsS3J/R4pJVrX7cbwK8BtNqMEZtav0lIp4fWqQeXTDEd1j/rfIkOQmIdD/gBrBB9WbNmHafCNPageVR3NCz7LxEmDsXbzg8naanNO2IusPHwhrt+UQsRMJFcMFW41V5awlv5tpTmCdaVrK6p7prEr6ciOPVs3nk3qI6Mwl+ccmFBTA1d+qAbkViwwzfNW1cBrQKonTLQbs3iV3t2JJzxHOJpRKGDDl+rIeQZQBtCBI4aeN2gdqglnd3mJZIEJAXhs8xpTlaupKsBSu+f0Dripxn4MhvTbKY1Q+p6pLSr9MyHn+g8KsquLQQYUzmC2+lVL3/uSh2Oc4bY9qaXauvmyTaBNQanvpLPRF92L+f9i40xIsirGgzP/oLrtJ6lyfVjxJmL20kvCO+g0Iu1K+pDpTgKuNLoORFMMjIn+P/tV+T7wjUXxDL6V+1Xo2kMseV2nI88OysLRnzYrpctBUiRZHo3+yV/jhg1D8vpr1L+GvP5Td8zEmE/iERIdBhklcYhYuZt3Wutl7B4Y9iJ4vYaDe57oN92thRes1PaYxDXKg3WDWrO70srHZvCFEGY/NvtdyCbThw54yivxlQt+zm8kl11GpwrOwDWAw5Qd2ezysjW7c/ILzW7T7Blr0RMt3P2LpSgSb2tHmp4lKCgloF8PRqVaWH1TrUasIlrK7jro1ODXiMEpW9lMRJQtcKZGqPN7a5NdepQ5dtgdsCppsafGgcN5WP66zymh23OpsUs6VDPqK+ycde50m05IhAQoA47q+pTuOtMTknik3aonkWablvYt1055xZR+OwtKoI1wl5Vz8neR4RvtcxUbBirOcTMhrFXFZk2f4hQzx3Jqzoc5V5mesf36Qffjr1bT+q+vtD/5ZZzUVjG3yT/rZD7jZ9HW2kGuQAzJVD+T7KMiWCi8ToOK938gNAhjFN9ic+kgZqICpR2nqJhXRioh9NcluDe+9QX1YsG7boyNEN/KgkFwgCi5sjOdQ+XRWGfWEh2gWo6HU7kLmKC9Jgft/LGwJYjuvOCLcvoJ8qkVcdH4duKJ0d/B3nKGTeMNZcqzAH4FZMKPc1zAScKGKk64/pUIPSNiRdLjnl+z5VioC+/JU7982aV921nmY6FrO5tlNmZjo71DoMfY+6MY391iIB9naBx7lPpMKuaBcyEyjoQt6JBei1Ul7CzU3OV/FUpE/L/cKIMsCd0LXL8SYgLg4GFug2M8F8bm65HwkHH2zo8kLdSJ07gKkjvRAAz9rc072xcMEsdMLBXLrKvqrMUM3iFmcQ8YK9KaIAegDkPz5zLYE5OXWiqkxMjFAB7uBz/nWVBBtclfmmJHd9XwuGrjWcq0hbc128ehGRSmibEh+bV25JZ2cCLcirqMrRfOPrvt1FDSVPTRIwbNDsfxQW4OOBf7Wtvt4vRYs4Tlzz0MkkUxae3l4+W+B9zSWHy4e/apaTgwl4xKo8yCn4eoE8nr8980WMhLmL759ovoxSVcs4OCMtFsV4jfXXGxAIMzoX7dpS1mXw0mviRFJwLW+4Usrsobul4FHCQ6Rf9LRzI1wOd8PhFzbSm/MZzQbZqaLgVJWKNacJOzWogqIsZvLzUwhRE9MtUHGAHt/y2jZRroKSGMJWPQCZ7hSI6ptKhcqqtKXBZZxUQK2fwSU1zpM8mT21pN3iqGEa3kNvXJA/2uACCoHg07oP1ObkT8sQEliqXLDr8n7TxNnDW9RIGFZnFnIHqNEENj1k2THlqNtHKonyK8R7bp+1P5VVyok0Uuv7dkSlKPHmPFo83OIu61Ns4FJjhGlUEA+xs9kBUtG3mNEzIgGmjEOo0R905r3NdsLY+KphTUj/bvMUriV0YvABxg7U6aju5pgfxkHMM+derzeY+G7X5+63qQRJvcs6CcfesVT7pDxiKPcIOKp8ar8IfNveEao5XAGC4FXGMb84LH08sMvlvOpJttXTaKl6Zi2BVSwcM/TSEShHr25POc2LeO+sRIdPqYEiTtaBEmg7uK5jSW/2LZoC+sKBexBYdUzESUx8YILj5djn4NRi05Qiy1VxTqDYBMuyXl5uLJgBZoF5H7Lxxvia9Bqbyzq8QO7Er9gmqOcJoH1utlqZzPbll725gO1L46LEYtB0Q7Ea+ciI7IZFJmBEALuGshVwpLOpeLW3z0xz7DhTTTwTLMyoMNNsSVILfzGJx8zxMg2+bBnXcp7ToGSrFfeGnDptLlrn0s39GGZuK9Y+YCdj5xLAAC8vtBMxykv9MIWUBwI7ET69RMwaCJ9trcJ+FknAxYPilISe/6uWruT8i164+LFegO3JwSjIvk9dIZJuU4xuqlP6/ZHGW7Uc62iaORDnzana4TPG1Ua7jle/kH2uxXqis/gEvHNZSi5YWn3fXQF8HptGSGSXEMAkznd7h1WKMtil1xhHQeoKGWOUegPUlQiQbsT/6RFLv0fdo99t8F/plyNK/OlZnMl1GQGHRRl3JpkNCw+jyi2C9oEazjgu8EN8aOklDr9D24eIImG5m4eaGQVaEdxBjrPGShBMYxwLisgoTuIw8hpYpoqAsCmoUl5ehE7WCCwAm1FWjYNw6a3pqV/w5Gl8yPdFMrJGqUcfXHT7KJFceHoAlTiowyPXR8L4lODP9nSWwj0x1Iuy99X/QDjY8FivQGOAY4CT5+6C7NMbvxQ5VOp3gBiUx125emlzF2r6msO1iA36awbZB8QS6f9YcD0V+aVrMLxzV4oeEQQGsACir8SDuwbE7R0tEKrfloG5ubZ+qj34YLomhD1PJtGyDdZvG1q5KpNKGr8QGDV9qvB8oaeDCWEB/810ZlroBDVhsx3R2lQfH0oLfwP2pCryj8sLeKoETkIVIradetq1tuSf4budjAQd5iDRayA8v+QjgEsmN4BZBI9kyOgDJly2tpEB/txDz1YVNAlZvBUj3e9iNSKuzuAiR/GtYarAoKdWNgC5/r9CIpWtSM9k4v1JoXUmUWM1Xw/PWfYu7Gn27bKQFCh45X5820ew1e9d8AqDqNUd6hoV23v4n3NFWZMsS0DC6y7bpYHTSWnaUxF3oHDIsY9kE+zH1M6hKbKqoQmuFzD/mrBQui5DoauqTbveEttDI14iKd9ecq6xzzFlxGqW28SGX6QnDyeQymNIugPii/stDPaiCwwtNxS9KNAh2GtTvLIymNGpT5sQRRKgDCvYCb0jTJ8e9ybL1MDBTW22RKuuzxNO3MdiMIXANSEYL8VCBUa7zqnAzya9IszFkiv/BpE2Hff1X+a27Wa5rip56N/Ainr0PeP/HyshALgWv1UIolZCHzk5uc/ZqGDxFsRKKxGMMejV60hOxCYzM+8IM2hicrN0EWnD2A6THv9BkIGBYOLGWN0EeX5yy2SAbTPTzBIyT0gCgNt4R9jBJ7BF5Th7+jIXmVihYVNEOzAdOB+w9NWvNMja15d+fd+VtpvXyD9v83syIA9i6ElSiIGZo74Klh5J28u04T80zpKWIng+nn1JdnySRlmpPgVwpp6LyNQzXcaAF2LoXja2K2Fmu+K3ZpPaJxLN3GcKWMMnBJSkmK1lkiVOilDJymclTpgDCy8ao/2GUBPx8o6vlUNaZA5YSz3W8icgnEjM8I2rYLuur9Z2fJSc/ImORlvQmCqVSmWUX28yfUH69B2pt/fqwW1aID2DULOouShuJT8CoAUUMGUpWKxCzm457tYz8ymuLZnDbMiFavAjpn3TeqgRANK8IUIp8xscWsgOQZhwI1Wam9ht4AiY+z2etaSu3Vs9nGg6Fx1k69f5AC6wsXq9BSGs0z6TRR/gix3a7c4F+6Hyab9DIKbumTNqFkSDLrEr33U6Oejoo3F6fgW/afBxPXN6YiEKW4AVYg8nKyDIHaJJVA3OYSD6VyN2SSLBvVNyOOOX6jWUQkl+ZryJ//AG6tQckG1+CRZ0r3qyzQHMYR3+1g9W3nKbtrZY+88aWPmJ3BnqEyUPvmPSEoJo86SS/j2xcWE0YMtjK3e3HkkhoBcciw+uLN3jk8l8ADuu6tisdr63JmwBtOe/WIOXohbSfiFLNvQWXAsgbNrDHeqOVy50obIt6go8govWZkYU7TUwurhkf7vBg6aaMcfwqU09g1a0WjRa6wOaJskJdofPLNKCIsyc8nVu6wCvVMabq7iGdqzZVqSam+L+3HTnZQuMCn4JCxd6cZeKn17Wx/Nqq6nD8ptlL/DBSjJT1DswpZhhCStRBpt+43z28JddAprj2nkawyR9KblyjS6xCdKWy60hLfdP+f2JBl8f0wM3Rhyh14xs42gi06VPXY9HPJnUaGvFf1Pdstf3cEQ4M6lHUldCeccH2ZRmUeaBoRyQZxDT4s9EjO/tvrWXSjSfpenipmf2YDODZcVl/P6Uqs+x9ZXOA3/ehxotbD1139PBYZqa9Uwc0IxhDEXA+hmFUWlsPhiQAtGbZ8fYsG+bZMhX3YDYJjBcZpc1A5IXL8xzkKEz8oEZkOlZL38j+R0zQubfMzz7kSQm/FcalBXUsAJ7QyOOyawZIbOZtbfNTxGiNhllHx+j9pLKpr02z8sUaWuswjI/2ckMlUcJ9ynYrC8Efa5Q6JYYxcY5ZC3G8mFK7CMEnQllkzDfe0bmhRMzeKKv3mPWDDTVooYSFkzEBcioncgl58hmR1nIVADb6nD0OSjgPOk5NkA2jo1TapaeHgcP50ArOourcHSkZEhlhgFg83TlLiRtbP4GinL6Od4F8ECPNBNwoBrOat+M1Fvlt0tdLFzOPd7seTNUWyYlZXkk573UVYHUQf2aUULNMcqaAg3KGP8PISMn0sMjmN/cXs9jDkw3DN5Oq3K7x2p60rr20yrywbZldWYpEgxCA0mhOBg2KIrUm9EtPznjg8bz8ORWzBDDu0bIY5UpJQb7b5CF6Pp/G6K1ekL4LPAS0zdz8M4JrEIqgAFyTb6VBp98C1hiSZzOgVImcEczRaG8A/lQlfJu05mdlXRY3dCjRCsZ9UOEbr16qcoBRd6I4ZFmISnU8EYDyHfWIhKMMmJKp13t2540RAwTYNPWAIsCUqiyBMR7X2ru04C7D5zYxl0AWtr9iDfuu91m2CcF/uhTrrAeYBrHnDNp27Ii2o1D2tEFsfSCEWu63AZ73+qzPTBgmt4tG4SJv97pwUPD7nZthhhlgvt55+27vcG0V6q3QbGYwl5D86oExNJXmdUp18fPMIbpb6LRIc0OaGjNr6J1JP6We3bFWUcyBNfQXNRULh2hTJtB4QCwbu8uMlHchEFULFnB1KyZoHsAgJNWnN3pL52wyHock9xgJ5Vcbv5AT5arkMFdOtH4SlHZgKtmrayTU5Cekia5kv8AH6REJebqngmQ7aIm4QIxscb5DRghpCT2rQkQiqcAQIRI0pUczmzITvPvwRGBbV3+4dC4WQ0uLQFrJI0GLB6Ebqhsexs/62TiI6+5MIOMDdliGw4uR2TgoIoRvLwC5YHbz8xmpzD/9Rw15frEKrhhHUSesRxg8Oky3uNwobZ1zdEWRFDUdyLKTGIhLjnXL2LFkd61uBjYSSRTdhUolU+HkfrTrH1hhpZ3IkkTFOZZhW7i+Figl/w91gyAto5qkNMA2qwRTbem1reUC5eTKUUP5Oa7pJ7HbYjHz+Px192VogoZMOEHkZ/6l28nH6SCUXlgGgCUPgBaZgtqxrzeJvZ4Ng2qHz8drEkuzrt7bZpRj8Y/q8FAAl6cp5eIS8+eHboK88zrbGPc9sROWtiQGtvPJGn23CBbVoI9czvsEJoqOgNt1yO0XctsM9+QeIVQnOIjTvJklbN2bMHpLCX0FdXnlO8KSjeVH8g//FAoUuWmUNpnv80AXG1xOzB1Vmp6yglZEBpau0q1H4zVBX6iUOnYXI8Cv313flZIisYGfVBahdP4UizONdJxop4RFvvHrPUHukVoxwsbKKRpHmmYNzRtYR94OQhd7eAvuWOSE768wCdBCXoC9J2xr2BM8hQTpelzMvn6klmSh5Z8x2jh5JLQlNmJWNh0GGPw3KlbwoTJjF3G/BKs15lkDIBGBdfPj7BtADss0e34Zzy02CeDfqfRZqtXesdtSMfSXpdAJ4Q1x0VwZO4KAVuqP38JH0ugoRAz7z39zKoBOAZ5lECZEtpH1IH2WVSZbngssevgKGqEblnRynRPwL1721p4HB90NdIn3+Kpo1QpEz0YlLZZNhpvqGvWCmkqVWC9r4CKjBgwrCaTtWr6aOCDxj8+h1ypuYnaHGTqkfqgkBmBCWnyKkBGo2qtxkkY5z5Wc/f7yKRKRKWxNsQUyZ9oPHgUcfW5ZkWpGM+yDjFk6qzhre58IlMToUjsiVMxhq5J9Pt4bLOwYRFa3d9dcQ6TrQ2XD9a9te5P/6/7uX6XG/Nf361noy7YcwltAJnT9JcUfjv6O4b1fvx1A8TK9Y0LPjBTrOzTFqzZvJTxIKroYHhZXMyCywIwACVrKBrn0KRYoU1oXtRErkd9QTApTmPEs7sGMKacxMtb+bQ9Ciyki9XIll6tzjTaY7Q8f/J3GdQJEQ+sAlypLUrMFCFjw5zh7zD72QmjnIct7Xxt+MI0mJl72S/c7/wi/WFlWoud8BTq7eJjE0sgIEY36MywOp9CxrscQK23gVA4iLyup8CfxtKwrKhPnTUibiE2ckjUK4MlyLY8iNpeYrKnR6bDAz0MGzkisa2zlDFE+MoQbeDD+LEgFjHuIulnR+x6Iq3EBRZAoA3KVcgYYsBWQpfsAHVFVdAUFQFY+FyJGymtM2KRR/SHh5dq6iBmNWjUtBXVCEFsPB7gjz2fPEEUc/O9BW7DEoX4qdmFZfh2aDqagQslCK4oNLDgdwC/Cp+cN6YYtzSfRIMaKzhipXKEb3yd9AFdEKsepKyyUAPpNuWUpJbRQXUwKW0DMmp9zpSdMm1RDfTAeCF25X/rmOZB1cTwUsVo63tx15jYnKEQUNsVe8Uy2iwzZ25uBVN6ynTs1zuFnvBXlkRHosdvmP7YX0qWRehkXhXNpSAuTHfqN7jtExok4+04s5miRxIpzH0TF9My1vl1lTL4G4b5ajMoZUIMxpUcJblT5WKN0dwRHfIBo3LKlroah7rpGvGm9KnNcovF8rH7BNAS0y6NJQ9JMGBZ9gwnJRyw0/kVWN6V5HbeeZfh8NqtEoGJbWPLZkhWnEvomS+whAQFn/lquhKL1CXMwhRFd41drzgNRZRm/AvMJIlY5CDFXwB0fKpoY9i7dH9NFeBRB/3BxpbMhdedXjt1nzpeCFN5hyoNXWMCkuo5O7jappQBoo/MVFnAgqJ8L4+0hQN5Sf5j5MES3muuCgH/UyRGr/t21U+engPz5D15DOx0myL9F7x3pkEcAGxPlL2eWrz+2AFNXRxbTuFnkrbpfd89Os03m4W2VAUQPFia6wU5aOlcfKBXF4rpSBxsiT++1vy5CcmUVDyJx3/PwVm09RLRp+dS5JM88h0HqxOKEcNj3EUspW+F/iBlhlZQHILFElAgsLrjY2A//lzwe6Fd0rWl8cTdYg8WMDAcvRWfNkLhEQWlUS/abMczgmUq3CxIKlQQgpJNm0gC938YUT4txqY5Ejxl47re37pS/n2/lL9jcUsq41skRWNNe4hMWyassU/srevtrnw65oOKEbhPtZkqak00rGHwzgHZJzh9ozG1LCMeDRtx2gHF+c2ySlsO3bDY1eMn9I3Ds5Ryy5VHw7u0eeQfqa7dYTju97AGBKquRFlHKhuNjaLwVMRx4AiKXFVyA4f1/JOB5ALUcGurYquXBpGU/hA8m3VkSAi9bFowFfrbwwsepk7CaH2roLtEDQgx0cmWJQSTlwh9YE+6Q233C39sbyQTuOQfMj2wq6Qb3oFDRjw6Iy6W5VaNEPsSnadytXh5YaBvRmQH5BzkiZvnNIFgPFr1WXvU3IZC3SluhQQWOR614869058QYY0ZcADFGbsa8NEJsC0DoT9zLOASzUfoFHXPTkWnL8Lj+qmFlbjT1KLvMClrP+UL5fBwBIxkAznk0htFBrY5M+HxZikuwPhrfuLpAecpT5SfrwwPENBRKdTP8YCoow3AhbJquMW/3RAa5gZu7CBPLWzpzmSphyY5j2cziv3sOZsNozhE+2ajZ68BQnJG5ULA5C5UAhk4M7XY+kKUPj/nn8R3xKq33KrgBW2OjvNw0J/IqJavWDcAOVGTlG8zagppROZC14/GYfJPX5Ju1suIANVt01r0v5Nx9jd4P83BvUsFVjbbf1Bwp7QNBLa9p24p++5WqvhpwE0B8xzrvxM8xffP9hVitHi65fpQD5N0sSYZ2sl2bmC9EUzHQVzucMtegp/kGp55RjKG8HsNWDNAEfEVHX8NHibd724p60SAnLwfDGIqEdZzmN4re8uYOlNG7E6ULfiURAaDgdyc0kT9WfkBgtWHSb2xwvrFEnp4UP6hUDS11Wb0o/g9nomucPZnLglI7wDdq6uqa5Gdk3qow0qrf3f524xmCZ3nrhtVEtVLp02hmcm++FUc9NvQ5G1hzDlla4w5i5IOoLmTn7b8CuLa/XgodKA42ojugHe0VptsZWoe3Y6kLtNzGLrB8b4Pr1yz6hhM8bcipth/clojPs3VaO4Ryjrtqvz4+hem2BWWJX+PI6Fe7aWNs+JhxW4gYfyyZVOCdgxLR6FkQw+QHOowmjPxhTw1LHBx3sPlQYKqTHThUiQW923El7kJYxMY72ZwncAHWh7eL36EjQUTEeESj21dX25+1ZfDuY2JoKO6sZhDRPmk6JQzqvyO2TP6wzw8kapf3j0mkNzMcrUFs6mI635ElS5S5ENAFeMiKKX4nICF1q2vlkJzQSzNoHbuWYf91FpHuykaVy7oUFrzw3Hm6je4hS00jFyDGg9VIBqxUxblhhJkYzQ4HiEpZoIwgr6ooP9N7WDcKGGeGZRYQZFNKxNEt/gXMvvHM3LEpYavXjTmgw437bW5acQbMtQdNAncAWmty0fPiNTiuFVB0Y9iaqCcVEauRH5axsyF6LPs+2O4SsEovKclndtVaT1wNihCv+Q36T0HnEPruM9Oq14CnHtoQn+iqY4lcUnsUACZ17Ne5lmoVFKrefB1tVPud8sgGExmW8g9e/0EMLTeiqi9bYOPfDsvvhZzqj5aPTySGCSk5VtuznkHqINAjEow/XFvptS4xPQ/XJeJyF/wHsO91nlAbF5LH5FHYLoQNamnenbLYKHUOy9ExAdM3vpcV3lNlQjvqskAnkciS7LeGe/yQ2+EezRfKa6Btc1im4KCmXuN/r7VbiAo3L9MQkk2VghGDrUX1TVUosez0N0d5VspAg+cp1Okv32FAT6c8nSN29Hc1qbNJBGrWmkgp4ek8WDUAblSEygsg8faayCdHit/8PClzbgHcHeM4SH2QKPkxE1xdFkAYYBP2GFiIlIUzdXdsZKV/0dGSIyG7TonbFI9W0MhCos5NLxGBvp6NTLefdOyt+oJiRQpQu7yr2zoWIWHX6CrxtsJX6Te+h8DPT432Ka5halZSMBx3uTeEZZkVuqqPCeQ9OrqjS5YD0ZlQ7DXYChAiz1S9R7XMvMwyoO8zaxE3Q7xZMMknWmx2ujhj8Uo0Vv2o4cXi9eWxHCf62kARlivoN+2nZmVI9YsSgYcbe4FEPMKvOwMWUSPLdHshT/XBGtQ0f21W8BM1bR+EHwv10ZM4p8U0TQahV8CoXTX8xarQTCprbqYg+RAF21Q9ar90iM7G6tlVpXMpTLkBoJDQ7TApTsWMc4oCsb41vsMzyaQpR3KnN5eDPS9ug/PTr05PNwW4vtJf/r167azndEY8i0qEDG8x05/gfKg2e7bF9QDBbVsmlPWQbPOc3C8TiWvXRfDl+ylOUl8qFhHNdZcFhrSLxnG34sGrHhGO5yrIizCZ+IlObhPKF+6lwh9wgSmWOBEqSpZjbPFu8GezF4OkxSbt8QwiT4saOt8hPTs4V9HYB4Gnc6vJMSZa/HMcvrEUmGLfNa0Vlp52047Pc6DGHJW3B/xgikvHoXX2cO4sUUjMmt4PhbT8hlSwnr+50YRCDt+eYcD1sv8NkIcc19cv7+v4VeUUCvyjSiNbsduApH1LRB7K2ybuCBethA4CGiYAxlVkog2rOwRsAcDWAIosipe4FO+IV5CKKlTuVYcMiuHNqHO5Rmde79e8aZBr0fWCX6OVs3KWr44PIK/xrS5UZE2sZQhW5xZsxgsMXDdReDrE3Sl1L/CDgEZ/LhCWD1ZcYDPdOYLPBqknjiLDjrBQAJCrMMNE5qEk2fMwP75gjExF1MOKg8bk9WTSJNvOHterRw97DqccgENP0veQ5AUhtbUP+8CWhMgjIjv+4d42lgjuj4ZmABDOhjFXF74jzPmpg5qXBlA7SYQikvEryYrBKq31hywXb2aL6uRW1e0gaW9mR6qVfeJ0Gae0DCY/q3chFOTMTcSytUHHXc6sr0B6ufhsfNeKMu4HgWY7uMauHJ4AizG1q7zoTXagigk+9vt71eW5NIDlnPKN1t41Fle90kOc2wD/ixSQREMlb6g6116EUpX1hupE1PqkUkzYJmUs+0ehY7Rfrp+uGNIjcaBW/gGEAhgBpStimmv2A49k4YeqA4AvQJNQ/lr+coIBBS2vscUhBI6CbxRUnGwPJOg3S2ojOeRfmS3s6V/Qb4848eNpBg1OW4C08VHLob63GxWOwTcn8ssP94aCe7WKa7YNNht635S/2oaFgKy5xThtOJFhv97EJsky+UMu6KlhgkN2VxmenAr6WsQihwYGDC4PZfC4uL1xL5t5SEu192uJ9Z3sITv1VnIGyPMGxTcKPzDu1AdmzkEyyHW8zZnOjQghNHB6FctcVClUQ/Vn+h6shWdi60BvhSE+AOf4rwzMtpv+hoNWcEc+Co4KIF1WRVFDeC6WriB+JMAIPsO3Ge6MeVB7+96J7I/5ncr8oFhaTf86y/wCig6EVIJ5QTUrzbMZeukPCMDQBOdDveq8w1jZ6LpOOULYoxAkKoqF926FJ2IZC5UBsQ7nmKjEqWguMTySies0AprwkYei5M+pk39QNCP0IPebjAB/r3897YUERW53h2CCS+3QLahAedDb6GRdmNV+TFOUM7YsYIe98InEX4nuTxs/pwo+ZGV3K9q8bnctnX9Q3TO3cFbxzUVXRBUKdlKuWsVBYZtjewrnY/UlUfRI5aPW+WNf8Gl7ge1FIgaEUpuA7+FIkUZXOY0r5GoqxvHgzdZebNlDc7HKEakkP41pvtLsdste0s+Or7ePUhlxRZPQlwJCyEKjtm4+/2cszvNJmSK0PGudKRiFD8fAiWxv0dlC0+9PJ+wngBU8lGBCVRwrQ0kpna5k4fSKskzqVDTNjmosowFB+t49l4FRhP8HxtNMXNlnf4a0PuWmoDrLJJlNjTgbqBPp0pJFpvw+fWSqPgU5hFx5pta371MA35jY29ZkOQw3VkO2KeH0+UPWNMqVPV8ayDmc/+9tVvXjVfIPuxSmSjJisbB46LSkffy4dQTLU+sX6dx3/UYrRRrcm3bUwdEalbpxoGdrZ5whlMtmkqu+Q+83OyRVJUm7io7eJExTJG0vIK51EtSvnTEQ+snrGy3JkrUHD7qEYFz2aEqtlkCtOQD6LqIrSPwh5P2lL1n9kGPy/9tVhmH3gc9KfPlkyMyP9kCp8n5MXULzG2Y0i06K/7RpiphJhiaAZpc0IEgcdKDcSuLj5heu3uw3UfyjiRTwzed8LdMxlaKf2clXJNxARh0Ol3KvSpdWcuL3BWzmzfy44EwzAb3mV95r5y6NnTbeWs2aJSpeMTxciz7yS40PfyhLh4J/vOMVdUJKhZAGUrc6rI2OmtPf1/mNvEzAgDO+bFZvWs22cahYCysHvIRkT8HzKNxrNe9gW+ayGqbCMAmHrwj2vVIKd/0wTOVt+vEslbmlyHuBjz8toHtWi24CZdW+RjecZIVTyzL/bcfqYIqpITj6W4zWQdNFRcrWdXxQ1xFDDqPG5wzTSqYtUQaN10OgK4qh6WrMgIR8aYVRcFn95TfwSRnMn8rB1oXHMr0kGcFMORD3Jw58YS5gt1rD+wPky8dGGxzeYpoxIM54SGurJGy5bD2cBCpYaOPlrfzpJMAp2u4KYAJEdhADB4dyev6HY5zlaM/1IftX+j+D9OtO6VuIDPMigrbEV4MXIx2qV4zlEmiEOQ6IuG+llk2zBB3GU14yKD7vpIGtXDUXXF6AML1flgzH940hlNph74s5H9xbMNVDACJAjhwC4qToB6kbn+Ypojjs8oEQX1TNrrizLlnCBkDMwPgTYUHJ/RQC/PTsK+5eWJc+I3mz48zVRkHCtZ6c2xLlsDWFvinTSetGnF1Pf+tlEN/p4HA3aAJa60wpnpWZWgfGzlYxYJ0jPtZSkhH1X39Ht+yyvvEhsYfHfeyL1BE41KG5FUUYbxVClYEAtq6UU4i3F2O6U3/5/s/E7H4cS6BEZuDTYwOuhaPxZIam1Uiw5Qc0gs7CTJi4tN95IX5G6fuA+wPM7xIa4SXL5NO1NsEkMn3HoHgllLT/2WQVDa2zpbxCa2flisQM14aQ9DLDGKVYQixix/19GJfd5KVOH14WjI63Mp6ordSHdaxNebJ6swz47CdR/Y7YtvlARf1utviJl8DCM4NGl9tanuCMVbaBy4sW5V4SEMhd9RRQEQlNAalCBEwrx7H6MUMll9D+MonKXfnK1GRtmJK5jYxKIsGw5D1nsChPZpcIL6VgLHldmHsDLblQ+gGjykAn5dUl9tganje4JeJ82f6acvYYrbYQ4BCkLuTwWUuYnezqPWZcVlZPteghqncnXUV84tgxbKxicfaQHT2GgwIHpmhUzACTWPHDtkx3pMNP3+zwSDa6U4CDNaWrCkgeuRYngsNXQGk1CsSxFrc/myA4BpXKNHOxSbMVPBfGNPxelUEJqJekNSwpqvU5Ormitx4nWCJEeUUI+GxYXi03ZfPYqYumhK4nOZrjJ2CekNTlqWZEP6HIe5efANr7dHQ6oUuCYu9gbJiGq9XHScYqvN0hYH7FnM4VaS6IS++Fc/u2Liq0ossq6BWQF9tMt1jOUrz7+ntt8XgFSCL/3mFkZZ/ejDJmRiwH+kuQ8nuEz5CAEnQ2msW0IxiwtosrFgQ2q6QDTGHWm9QL5koyXIVFB+T2FDKRzkxm8pyFVyF/Qcpwa1JMOfeLkht2Ufx+OQ6mizpP3JGzL1SpibdDoq9ylpjA/zVEa++lUG4DVIvNK9K6MAaPd5MTDok38H4zK1V/ivkQeZe7JDNE6lyiHR1cnivrSyp7SNG/oHguPJBEY135iuoB3zp04+W77lZMOkb33rXfdbNo6V6kq0jqcw30VfUdr3K04yZLGSP6IvlVRiHRt0fe9d33vQTlrK9zLHhfyPV7M+vGPsTb1PRv0C89GZ9FPP7qYylH+7Uh5Ygp3Pq9mnoc2jAAg8Du+/3bXOGxmiewQs6Yy7wh0aGVq1xFwQfMs+V8VIihrljw/of3pV8+YldcZRIweqQ8OSkltRqJB/ymIehXrRUo25JevkLcmXG4eF12aC6aRjJjgUMIgTOuiQeQqS1kvFJNJJEI/1x7s3iv2TLV5tzfp4Am4KlR7wmgdapxiHOFE4LLbxmLTGU+QygsuySHi2YZhv6BPpvHvAXL8QsEgrAyFLItnBmgOcJhFIPbJugc954wWV5ll8cqyyXIKZRGyc5QKAHywenXarQArDWm+hMcLZi0wcijYur7UYmw9B496WyH/yn4czIPLJBQouZRGXOigHn40Aj/dsLavcAHMkVXuW/8WhSmRVPXiDiY4nJWgoBzA2GktIifb6Hs2zFhMO4o7qzT7TtkyiqvFjuv/jBMNJBKfrQNc9biowrFk3lwZe7LMyJlClZP7zxuILNmNii9go5M+JBl1o3Bq98EgzvQ0v43pvcakTgslOtIBWlbM4LxekSnO1QWfSLIz3ktZyzgQ3SEGKUZdzYvToIpL05NPozCDTM9GXpTztqXpqRkUEFQSnoJISRfINXNjvIMrA/Q2uKg5HPmiWqbqXDEWZAz+68S2uAyduhLGwdoeYhS6zlmfaM9Oo7B4B+IJ3sSvOB1Mr1+76T9hKU7GU+avT7qIezFAOqcR9o8a5bBjog2zuWKxwrM+RTCoKArtBY9A+pkOMx1ourGLC2pu+hODEyGh0eXWGb5fg9lmJ7eds87WKkzi4NSAwzdnPPXF+fVdALBpAfQ8qvRZEG5iRKhoTL2yqrE8/u/dz7ECe39TJR+SbP3YG1kztcgvVC48/FskJj+d6ve0kBLgYoMWGL8r9geLULOoZXtVwdoNDbOcLpRa3cTgYnIADhVs5l5jLG04PBm6Ln3lawyoJOjNN4M6GD8IqU6bqJWdBrwAQKRIhQGx2MVjVb7CJyECAA6J0dryoXtG3qZG1P7ryKceF4DXWsLMb4mGxzwoxV07+HGHAzgLXfFiU/5ura0WkLZBCv8Xl3kuK0ljjUu0tDCLvT3ggVmWxik6OaXtQ0Hl4odoKcDH+yXEbaATOmGzbwSSrMuNGYn1RiKKfOHPhnbH3+B/Ljl17S9j8VxfIOS5Dc8vs/I2M9iLdzCRTHv1giyaQ2aKmyl9UbwuZJuNimR6O6YxYfO9iFoWozmbQwWPfAq2OAEAU5GPKaijNME3Wtwy6scJUF6g/MO7ukl/dS+y5ema+nJOS1imrVeG9/YrRcwxChJKQl1jGIxGcS7O5PgS98uyB9fGsAP6We8dIl8n0BAvAoRVV8aQqgOfHSMz+pB6UYcxp4A+Kio7BFxYjSGZcig3AJrNSKh7NlJITplv7K70c0tIf7T7w5oRh8Un7xWIL4qBq/+qFJSiXq0Q0hy+6pGhS9B1R02ZvphW3hI0FyUM7hFtsy9sWy8+tUl+EMhHvM+NOWH4S4njexQl+SF6CBCO1HkhUQCBIkohlyXTgEPjxcmFezGKwRHY4YovdMCTZIDPbo6jbXLbXRte4wHlbklsYiH4kY+Al+3ClhJr3yvYusR7xuVXAapT2LCu2b2FGy+kJ2F02BMCggdEc62nYdDKn8KRSWVu+DqZYjUG0FW/fTvPOHY2YFFGHhMy1pI2UWAJY4u2jPyCMbidoC0H+qSG+vKK21avcs2XL3eteJpEGl6PtW7JxanSqf5oMABc1lU2b1fnPyETNVIS9l6u4bAtb2VdRUnQ172jorsJuPzMmhkdvekRJaHEFMZ5d9vd7RXTtdpoZEXF1hVVUtfSF87Y4tQ0xTwA49GhCL0kYOZZ4NYI4dR3qTWxcxI/anLvsDMA0U/6Khs3CmvbORG9Hf0u1NNy++Tm1dq2lMjOSy0alqkHl3Htcni/dGlThJYTnoj3CDt2dtpzYX9/GrDfod5Ye7ezgEEJU0o4YAFvMZpe0f3toYAL3cFnkDVtUGBJTcED35Dvu2a5uCdcD4hBYeY1Y4Mf+N3ikMdjSChKXcRXjl4rbz9ADsZ7wUczMD94TA85wZVnOq6PlIbT+pVs5Be3j8MEILN4L1r9MM86+lgNsdgv3pZpV6wnPv+jChWjRvh3r6KeJH/z/0cE1uRV85LMMfAQoUhpa1N2wlNVZ/orUuYIBL4mOUXzHt7phVnyc5Zpmvjt77UgEoljC5y2pTKutFLOtu0ezW7K2qaPNN8gCJ8P8SUYNikJcqIZAJgvRbtwgIwhmOLpfe7W4Nr4ZMIjqwjwMnkJdbB9VbiFg51KbzSjopEjsPQgD7d2oOvKd1O/0BFh6AvHodU0pDUma4GMbPnqSIBQtPLTOgX15n/8hvBaR8hcGpS3baDIRPJ4rzdtEfeHAHNL8CdRCeYh4M583FnS5g4w4EcWZ2O72VhX07HgtEhx+K2Xm+IaCKXM+mAcpUlvII0Me38MSZsJWAJbWrbwa1MwU5F47MF3lk2X4A/tV6HSknQmb7b/0dvQCTozSt1kjr0t3+jr3ACkQkiWdEssOyrYk+NeuCxI7/AwYv5zGia5k02cJu7F1dZ0tLefkzrGYsC59iMaYzZBtVU7XZrqDS6ipnjCe5PGV5UCIRYNBrhnUiILlWljEexlAzM8XfX7U4CkwdvYBQOBLgfqsWFINkDo1W4qwvTHJYiVWDZ7aiDPc4XvZ8LftIiAvxU0uLmJGukJ1g6iIOfRo7gVtSllZy/Uiw7E0Hg1Vuk+vLkU6gdPSIJfae/F8mS0Qb4PAqi3T0VWF2UATMgugUvFOSYQw6b7vxYtCYxzHrnbnbXM2sAHDl+t7QYAF4B8R5jMPLxngS9LJHixeIdua4oJHs9FRtps2VQG+Ix+iY4VmWcUUPYeVZkW9EgabZStKoCeOllpClZWO1+zozEoioDGJzAA4z/6/H/YYiEkov2LskE1mF4fXMfsUQOPsB8+AVNxCJKkNMl3Aapf99bE/r1c4avxPbQqEF5288r8cNm3z6/PpsdUsXvv5p8gi0t+QEOtWnZnMPAz1VMfxfZ35q3QIRoKL8jyLFKRgj5BXlNC7KMqQCe4fvoSascksSjXT5RpXNcqMY5y59blobRK6STMr07sOzX/+Aqg5XRFz95CLmMXTvZCn55+cZbr7zbXz5BAg404qTXcmW1853Vb604sI9ricwLo1Thm3C++FpQTT3RP7rQncDdHwNwc4IbdAaLWx0jq9yG0RX2qXN97pF8QAd0KbNEpGdI3/rrr9r5GhXh4QFTUL+QI/FlcAL+LIVriZ2ZRuXgy8mbO57F96qRJfG+uKaMlmxWyIxnhdCiHC3caEmb3xeGgu9ufWKMvLxtwbZV244ERPndypz24rJvAIpFh3DPDO4P2WaRqmry5bRS7tSiaIUM1xhMyzhG1vF7DW1BaVgqY6Ynfyln3y/43IWIazWa1kOF/O61X3ybSC9eK0KU1P9btNFIMcqMhF6KclEu4/VcyJLwF/CA3Fh4QHRpM/AKNq7l3B0CLsC5T6CKoiUrYSBJbwmhY3iuLeugYevrP0iZ9cVWKqryKawcToZA50iQpsUKem7+TFNHoGi0yPXcsI2ZpWemRmUXDPsM/Gyaoz9312RG/DSEn0Gp4k+fSk8Fwj+FY4MjyKhyRgze9VMpBnooWIve5GC8DqDLcHefzD9UHMD0ggnxitosHIbCRge2spe321ftao+KEIPP+7TGlXYflDQP/+KGOmkSK43zJOY+bvfX1B7Fj75DKtIw2ws8yPRw5tWKWYZIAyY4ccvT+vcZq3IrSINcOGK+0z9UTCVmWOFiHrdaaUkbfS0Qt7bjuu7pXdVUBpNGv0clx/OXwLG17f2+0R6cmwUakwB1kr/Ygz+6IF1y0wu5Q4jFchn5Mak6hbOzat21H2/eULgV0xJrf71huXL12QWEr/iJohT4faYQII5KddF2vYgh43fn2aA6QbVkXIRalJB1GoTeBkE/EZKFQtQtasVdKr23NBJ1lqvt151rqh29MO3/H5VHyYzkU23ieA1VwjV4Wle7ENogkQyuEOlHIfVhJXmxslYquQvuF/79PoqT3PY3v8N6A0IFgsS9zRE8OBAq0SK7XLXhx5XjdTt0TvlEmtrlYvri2WPXcSwGPVrME2z6xYU8oE87i7pEXZlRN3ey1RT3/5riN++ZVlhU2dLB/1W6sVobIDkg89vjlmMf4pDmNldGaFcpsVz2Lu2OzQyqbQMch4q1qOmRjrsoJwMQxu4Y5aMVOc1kSgDGjHxEHl6VllrINjk2yBpm9rHAMc9Eu5/+cUJ0sLc7LYL9zLKMzbdXS/T4NsFofqjxQTgvgWn5Y+E7muuaqmsDrdgT4TOV0lm9bHqBnZR5HHLrPPHMFX5yfPTzWD1/Bowc6grZ2vCoNAN4FVKz6JM1cO2JUb4Yax3keAZwABGhdBKeKr/B6nlW+JBQAEyqUgxNMj5fRcOeli9Z8rQBQkJqjk6s0wgQfbzYhUgcZ778gnRmFTFaKKOdO9F0QrNXxrXXGfD6ZkbbaF35NZxoQORRKgPtlCdCrwnYU5WlcQJDw5nTAGb0xPjggS0GIGgK8Rx8M/EaOlcNRG1p4BuohA5maJWfAzjf+og2BL5kYtqT9yHY5IIyaSdEM4YaOzDQIHV3QsB8h4RhfSbYkJo0Qsn9Mm9WqZPKkE3xTGV3HuBotSsSfoRzoxvREY+Tq82KUyOc1LsiqzfWO9a4Mx5FMtdRke8Hz+mxS6Rr4+N+cVi/I6l9DpeZOXE8AVhradEgo5Wd1YmBmPuzS6Ucm6kBfmi54cQpTTMmcZPM3OgjQUx1nK2tQ+3LBbjQU5/BpTpdMvvXcA9ng8RwlbiFnzjijz7OS69OYdHcnNfAWqGM/X5gn48IZgnYKgS95WHphXXVte6WhkZmPUn3WGEeLKPpn8VK3yhAnulhLMG8E4HuchlDyqaKj8u8BS3quBuZT3p1lUPmLDavVlF2SqWgJq0QmmjjHVWcS/+OWiCH450Z4ohhJV4XDO21yPsjZuy2JiXUQyaBHMe8ARVFuQLS+gqAV6evxjB/xeXcsrgURfYPXjN5uXoDVQmPoBB8LHO1uoJzjg7/q+6jt7/exGBDZsjOpIvb+xulM0jZSlT/Y6B+Cq2u94+ui4GV6/zRXWyLXLPR2kAE7gX9aztH2KE1yUsKXl/Fhiio8RghxGU4DOTkcUzczW8o9VHlpfQuljbk8LuS46aVUcqwfTl4JHXYOQZFQnva8AAAEHQBorprPbgTwiXgoOpXMLhZKsIMpFMCnBTZRuQEJz5ihjzvfvoCnCSYv67IpzQHRPJoJKobk1PVWOGQLNFHG/HzfmZJMFAWxpNHRdcHxNBSVnKBigjUDsABiQAPEJnqVqfvrc/cH2T355gEsVgALr0PHas/7DhtkYQtqc1Rw3UDqjlo2CA3pP6QlQNLHFBM1+hk1bcJhv9f/k4UdReoUiqQhKxwJuYWAfdMaVoPj4dwlgkB9n2st5Wplxtfif/4NfJAxX+7Gpfyn1J/2WblYGOD5OXP5jMcaJmpmKrd3W0ZpfdknhQtYjmCFngbmkRUC+WOP2xMjqhsvwADq8ZEy8vB2mt0u+oaLE6kOeyjB9IsE1loVcOFUq25fWyNAcmhvqchQT1Dg7m3jvY4O2eBFuag/NP3i0Y+m6jYsoUPcE+2K6sWp+Y6vF9/diAGy4brmjgDKIpfUSXMUfGBR4ucMwprhr7zXNFQDJqWtxaO8Gez1/Mz4h3wtL3d3uiyqGmh9X1Wc9awKTvCm0m+8MPSA6bYt/Vhd5Z1uGzhevh9lEhscLEm8VqQn1SUT8rIT/csWfpPgJ2NglaG+Pr9AcyDoJ1Gvo2Bwm3Qa6ne8LP0cQOlHbDvqtmPy+i6xl9x8Ck3AD+qcMfn3S7wDGklXq0Z54Nm73PHLEHq+rg4w+vu0qAfXuHIFNVAmuyOABGXswc1EQVBrecyprEoPN2AG35ovGf5CON3KI4D3bAUYtXmOMF+R0Xme/R4A+nePMJjo4rhn6sdYN4OOh75Mqad0SSMA93TFevG7oRqf7tUNghs3meTrpuQG49Rp0+DGOP2XSB7min/cnEtTVWannDg7yCgIia6ewmjk/qwmzSjFrzQduGIKWP0Ase378ZUmgFO2RVWxsc5N+8UcvlozeIXwJx3+31uqqgYYTqAeAazQ5if0wOYStGfevAVeaLjNHZmFy3ejsDtX+bPTQYtSTojtmS5w0L1syQ+UOgU6Vev4GG9xtDFYDEdSHeP3fs9NSSTE4P71zp+EWM0MVFsA4vldz06mKWJ+P0gKYWmQtxxrdlbJLpQgJIe6xQ3Cu19tlHmjcznY6XbPltPnuptCsLqXXgqAGy5/1aRP8wjCMoT2hyHvvlKLiue3uLhlgJVId/OEZkbq6VRzG55BLnvbTlR9xM4oymijhk4xKPIdyHh1CRYon53oBE9yE4KihbArkSZquLaSB94pPUv/mW4THX9+FyiPKOqguZ6H26SriYPOkA21mDgHnq+hSqYn02pm522VFtMxpDzKLcCyhuKq/dtS0Q38JAfP9K2YEv+9XDDHzctCTQavZuPTsLajDHt4rsOxw3cs2WknT7KyOHy57Y/w8rZGZ3c/nUAs/LkA2qjxxTNtvSCwI+XOZBN67FPMG9ZWnFwguiizXUaP2mqQtNvBrRSSciMfwe6CM5GjyAodV+BfLptImjlJnl0Ig5M3U5FAvHaBo6VtE4sTE/RF362QJR9pl/7MeT+k3DPzENkYWkSPkPjExMlHuLo/WaIOC3UCrqkANwW2EhdCNDmF/xzhX7GYEP44PVWFpIt/H/p1OpsMsWIUiC0QbbNe0Q1Ghaf+WtLbGg2egpllK6clqO4nkV+46KQ61I50AiZbZb4ja1rqf66o/ekX08D4159V1hnXwN9lHvBV/RKIb0g67Iz9XiGl2UCmFbnqF5Ct05plk32N8229F+RCgUpPid4F1YZ8sWnPtuk82cMCbibkZXIKuKp3RLrRp8SIZMpfciD6AOMQ/QAb8t2+tUm5qiFEByHZYP/ZYvVOk2P6kk2gPDz9ql6z0tky6KGtzYec9xWgJfXvpOA1MWb2yk8rbxguE3P4B88IxGNyspiCB7nPzTUoRNZKoGP2GHmWKgiO4ytYHaz0AomjPoDoKIsZvOwR02VshR+nJ3r1PPeSJS7Jn3eo+ps4ew2HP6vxiE1eGLNAWtvUd33AwVjzNTGPr2oI05mSt4huLrrQimXncK6xmxiXPSvl/TsuI2bqPN5SHW8te3uhPvM+4Ugwq8fz6vAkAvkXxrtJ9aW67RGazadRzC1/3vPomdLnpi1UC5gulmfWyUgAJX5j/heO9fw5LB4iebKX7ztYyIUgVCBVJeOiyIAKRyWP3NgyHRL7II4JSLuVR71am8sq6Xzoh3B6ij7uIj1ss0+rebARWJfi1sc0XgX+NP8R1SPMq8MaDigsocz8CSt8S3AoskqvWGjf067W8h292vxDHQt9MJZ3dW7hLd5QkXX68w1gEMImoQec6H5Br9DRcP8WHj9RSCDD2KjbSVvtFMLP7kyt+gqrtgLjMrUEx0CKjbvs+ywy0ma/WTcqDWGbenTo0/M/EVX+OerbOB8tMXLRh+JnBi/wfPh+ncymj/mVczD/cMDbUs4suu8q/H+bBXRdS+VZNlm9SNp5s7JHrmBVQ9j4+n1llN7ULYuZvEHll1S5Dfw1Ul1N/T/UL6z5hyC4jkHz2zV1/32EcJuJxx7DWkXY1JIB/0MYOdGeItr90OyCng7xmZtzbl1wApRHub23wW4LtfZMSzmkfDwueXbou/gDbTuWf5XEqyGDnKNQsGdP2my4EIGsI93myk3Uioe6wiDLjnF5uFpgzaD15bR4qWSqW7ReHLBCccPpPMnMg+66m/CH9fDYucf1KVZZkzboh+eoUsMV4rcbq7835gbZ78oIpT6K9wzps0CoU/wweRe5L8uZtlHlOST1uetzzwFM+6jslxb3FPi2S1V3YPdLvysV4QBt2p24jFTiIhPayNay2KEsk1RfIlJmtQdsmBeNGKV/RIk45asSstRlv0ZanYjjLddQPMT4dRDehB8VlSmmSuzhLE9eTdQGbFnvr8nTD/9fvsswtAb527Ep4IXqg3mZgr2fcqVc2j2Jd/zV581eM9sGvo7ATeRaajC0ZI3DPOUuG8L6bFjlkmewQ5Qy0cDVo/I4SE5FqyzefiFN29oZXEQ2v1veWpOI7QVAtzurNW8J+qPQf4FSXXvevegWfaF5sgERPfZQB/zUfFYxhX6p08+4jYKNFcaJqqN1SM2QhiOmhR3JKIGCrXKMTyUCik14IodwCk6sdaAh2Y+ayeyhnnXg8dwtIV+ozu+hiGN+V4r797ELQR6EFAKoBqoFk2QpvmYsFUnxh7JTPEdAJ9wjeZIOgSYspomh/K8V9+9yXBOFBz14mPUYtvYJliOlV9AQDgipSbGCI1JCrtq11lmzrvek066S6RTwjStKY9MJoBIcz38lRhQDBgUIkr5WfCPeoyu+DW28Pr3Crco6hJDAJVyef5nazBzT+Dz4ptbxrbqe1c6CCOujqO3/PzvKQjSlpBYnWkdwAhDws+44NKLZLNZIgchlzcwE/TaZ2Am8zfD/ntGm4X0UjqpK76yYYk7L2Mxr8A+ZauRzBVms0tznn0JQ1eviUraLrMRDWVCItUlSLN/4lX/i+K5qYTzldckPMYr/xeXuZyNRuAZbU8FUeZXLFRBGlsXr1hlfaiYuxR7koSPLMA682ZUAc/4MpNVmlUt4SZc/EeDM1ONpmq1Lj6oDLdDY7aYEoSGY1q0017KZFGK2XNAa3eV8kTx46mJmtJunGiojPU06Nl3ImDRWygLeP+kCgIg9cs2holQ4EA8g6NugUPvexF2ZI2/geAAAABmmGYz5UBDWyzOOEg7489mpgElff745QnTxDdiUAd+xoLvQCSXDXSzHQd9m2l9f9SNh/4HL+8UjH8X3Pb0cEk2CXzSKFlfmQylrNmHbpSdel6ZdOAcfwhF1WxpvGxUevOCj+VdsxQQpMsdW8sxVZMl/4HEWDaOae4NBEUcKQVKCVxmyZ9lYzuMExgXY+YKUDAdOE5dqtBLZYBXxUJBH89DFWsw9qOlqRLrHSQKVOhEJHG37ymH36ZmqrAGwb59Ut4yBaSBb+0uRaUW+kkb1ibwy40KYUCcQNj/44WuJFY/nBUO/qIN/JpdpqcOLBaEOSPFzTFj830y/cV48T2JNTJRf+QV4R/TI0/4aMj7bhdhJ+Tp8TS5z1iOMXb4XO8tDtntQrzvYO37kPowxAArfXyYgdVHlB9Kk1df7YNtZxkuUlHmtSMlEXvNfDiQ/w+7dar2fGCFOaG9j3zeb7AOULB8rZfMtGDktfkt5qo/rpCaFuQdB+q3X07H0ngrPlsy+n6ot48ZUEAE4//42AlEvMj61FQbD9V/ReXVx5OnMn4FEpTqZL7M96h28nfLDq3J63dO4fJqDDyBgfqwQvDaUM5LQ8nHjmX41Wttb7omisH5En6B/XrfbF/xlQHD8upMpYwf9Lcrtq5FcpfcauAsgCiLFuRwyetgsNia8FlXiLWUTpKbea57bvCm/0REoqYiDUw3lHuqGgeLQs0glVloq7EvIyorSZXDsqyvBNpTq5xJNUSc5gXEDpqw3Ix26ZNMTPsHZQ8oHIzfqxv7qB3h2REfy5S0onNipDuNFT0vbn133a4AuyNQulgLN9nCXm1P7yWpKlD0Y4WlxLdOpWbq+uphRcZ3BCrq+g79w0QmJqiughsb35LuMfwUEv66ax8FwGar31rW/FOih0tS9vA1uMwUS2At6GKpXhJ4/7McVgeruywb8JMccw/cG1fX4XCNz+rtkUTT1j227svyJye+jABfZvQgmGrhQ5nl0q+Iv9tYbSE4+dDRPsHBgmPXrIakMKojTj4dHz9lAyJbusg51pbHWQylKJvBZ/pPYMzqIpH/55/k1Bwp2FtYwGYkxS1daUb6sWY7LpubAG6f9TP3eRxv93Ii+Tw/hlevhQEDLjWln0+f0/witrAN8KYPaeKZMU+1cHWHvlmKYgYfFkIalayF1qllcHozRlHJFCdetkJtJwzA1YdsnwmqOqCSBdlWjsoz7bzW2lo49bxHdiGdGvNqIFnNqgn0/TeeKdUKuEOJWJ/gAvOgW+t/HYoq+923irhXvtgE5qFn4vPbIkNwZxqh4JfE4occtLiArt2VX3NPmOm/ItFugEC2KrvrTtmycqmhCn27ddrir8zlVY12mGGpCmFMHSyeKel21aIlye/TrRkybixR6fbQA+4ZY1J/fheYdUV8a/C0j628gfOH+QHC4cn/zFVMpIR8N6knZcatU0fAwcunKtKbhLfB4t225hIBZa0TtO3jVpo4NEKt77iT+iz3bWfekRZa0CbyZ7AmRy7MKxpSFgt+moXLT+9PbcS666+V3YQEwDWm8Y8qWXyt5nHoXKG4m1ZgRgz6LIkRMS/SpfQvzqVWfcGfEyfCr/oHMswMlgjgewHMLhvJUHDTexPa8RoXspB37DvDGie38hqtnP624lla5dp9OlF8IOj5jN2kGwEV8x7QZq4079gdavwAPooAJ8XBCRW3qEZUSDiFETM5JG+GTHFHtfvrIevW/XD8ZlUdAPEJ4zEsHVxmCfcBORChZEv7gAdAfhzZmrPa78vtA0TY+PP0UG8SrFQ3Q9zxgF79I3AdQxk1NVj1Q97IpsKwntECWUg7gCG8Q45ziZYe9I+yKRcJQjfR2ydV57WQ3cDlEsB02uMo2CIiBBYDnM3VWPO/P++K4oWjfQBXqovZB3dqI4UF/34gq61WbT+mLVtkpQATHYb2rCeZJtMvlAmJoXnk5EaVWx0zBoVT0LWC55c2SKhLdNF/2b4Af7e3c19MSNBIuEhXjKSnIQojrMDqeOY9DxfUhR3DRtxZgOGhv/buOU3rlE+lv2od+8w4MWaeSssBUWeKZ0Pozd8j1RazNAGzHY0t7EJR9BqfqeH7xAdNQr/NB36zT3qIAfw0DDieFaT9FhYgo/z0L6VNZ4pRXd+atzoqbxa5IvZPsFSG5xEChRtGOfxC2VO/pBV+D5P8V6UMmLc3R59a1jdgmp7s6h3WAELdJxGHcohsVnhpf4onV+VrX3JlhaQ/pHte4K+4GG83zTCrHhNw8rPFt+8Y7loIf/bxO4rn0SpwwehFfq7OvPAemTn23OS9iY69quzrzw2RUwd55WJxMmxXjyj2hMNrDgk7PcMZtMNGGtQQ4Yvuu0e8z7rIRu7iIfkWlF+DkJl1bhc9JB1qMEOhSieDhmdaPc3YXkwFAYknsGeJq5/UuRpNKzKJgt/1n7mFZSalTFK0tdnDuMIATmA/9qLYnoUDqVlbLL90fLxNjrI2x4uLOn4TeXskAAC3hDQto9assyxa/+aMEBXKgLPFAezDluHGWcw0kOr1OMm7Yd/34Pv65B/JJDIvmdgM85qm4afVfDKRTZOB0+wmwby32POGN8yVPaWm49Q3Ok82C5BW0/knOlr828o8RUmCJoiL7iYUu54KHp40/undn8744PFJnjuSd5rUZGqosGXOlCy07+VeqIeO0XQBvaFiHi3iuMG4W4ITozgQE4B4pi5wUyImDhMfVFvk0uNUwj5zLX2DAvj80lktEqnurPs1/r7AytNhtdY6EHPbItm1CZWGRKuZJXoUbB6jPLT7sSOdVJF09PLGux1yXHIyhIddLrfF6FLwrzTbeS5Jd1IaQ4gcYao4avwF9B1BEzrqrwidQ/dLtxUb3+LokwfFF0kPAs39LaI9Wne7lqfEAAXoCB3y7G5RRAOkmXtstkxVN+VjxGvSghJYrwV8z8TaNLlX/0XzrKDQnMcllf/b8ihpwEtQ+B5D1k+65JX8xTGky5Z1U3QYlqim4iTy+UJETU0POPctePh1IU5vPkMviG81fFIxRhdZEDGYtEwGCHXiyuS2yxWqLCsFR0N2m/RUlkuQHbPcS3ih/Pvdx2VWU/PL9w4h5XGjQx59GGqTM6+RbZhLw5AQeyhtJTGQFNDorZKH/2pHCfyUap8idsaf8st6BTVqBdE6hbBq6CjsHkD2ofU7/9L9AqD8NuvXXuh6yhftJy9F1KFDRZ7/1EUR3kzsAo7mQumDOyG8CipCmoEI5kNOsTZH2+Fzg6D9gf2Og7dVC0tnsBkKPlkFXlfDIw4oqIEbEgMQTUljqIF7qAqs/fMkPl9mJzzO4O2elCeJIHPW6rPJ+ishfFv8w73wM6e6UFGat4svgerqNTNVXobWBgt2kp9xlw0Y2k14GYHGo/qvw31pEBCzRRVs78fqhjJZAsA0Y1ip2lmVej14Fxh4z8/H+89rhyCI5dKEI5XIOD7F65ADGTMEZDdMIUHSOZvI5GwX/lPRcXne89tYz9P9AjMw/q8xOHLTQuZ7x5q2bmLEnFpQhT6rO2u2+d6lA4/Nbc68QmjBWWvXa1YdpAAGdymk2dk+ChOHblGk4ophJzyG9S1Q+jerZmJvA3JrrX2YzcErNCT+sIJRDUI8S2dpbHHAZqQ0/dh6etelTL49irM9ahVqI3W1BP/JqugELbWw7Zf7MxLnJzSzryjGfGETSg1CbyexXozI01y+3GFn0p2pB6ozEGAFMblXmAR8IBGof+qAfVgeMNlegy3kx/1B4C1cNd/i+2oQCnnWvdgwHOHBonfMyZXbzljri8TmAy/2MZUI1MLPZCjNGHG/xO6uwRQ2G2/Y3j1zjMvtWYkENTi2RohnWa0HtS7G7icJinODUWBYq0x/Qd4sTQ/DCaF5ujMctgkFU+8AYiYU3JjcHkVPrJociG6x5QkVQ1hYMigvDKyJCeOLHMFuzpyuQjVd3fvzRP73DL7+ioXks/wpzZKfCo2zNqzwVeNEfeeRIzklt0OD4QWkkN9itS74DDp/BAaaDFQZeIAqQ4CIVHPJfQ/67AMifLXWT/kyB9XZJDSWcuYVxBCVvFrqZGN/V3hVqoDta2cJLNPsaUrU0qj/TH898CC2PNij7lo7XPBVNc82FJFXZ//IoTH4XNUs8endpHtWtu/r9fsRwUsLFIIq0DxXYWXxN3pqnzU4/oJZEwiSRrR8a8w8r+KIfRAmmslhiU0do8GvC4Di8Ar7yOL+18aQWpo92k08XAi3e/auMLs54b6NRy97FgHJE5Y7dvWBESuoYcgyIRUuynkjEPiQPdmScZhddHjGhKY2f/UAa2umO4eu2MzRa+OFnhP6f2S8SWKfj+1pGi1aBNkIfmnVWlbvXxNg7gGTXsonxfmrMusgtL3C+LSVmuFvHgeCJY8fqZJSN0DnlRu8hao5wmFCdko2beYstniqKAm3F04tmjfHSD8xD7AfTTdlvzugBDrvcMTMawiKVGYDF6CuUdf6aHE2m93NAQMkHueSEctSqe/eo9rBZA3hyq06M+k39BQpoYHkYWi0fByGwJNTUPVlyPj7kT3xG8qQkm/xG5qtUVDYwGlXcgKeBP+HtgAAAAAAAAAARVhJRroAAABFeGlmAABJSSoACAAAAAYAEgEDAAEAAAABAAAAGgEFAAEAAABWAAAAGwEFAAEAAABeAAAAKAEDAAEAAAACAAAAEwIDAAEAAAABAAAAaYcEAAEAAABmAAAAAAAAAEgAAAABAAAASAAAAAEAAAAGAACQBwAEAAAAMDIxMAGRBwAEAAAAAQIDAACgBwAEAAAAMDEwMAGgAwABAAAA//8AAAKgBAABAAAAsAUAAAOgBAABAAAAXwMAAAAAAAA=;" parent="1" vertex="1">
          <mxGeometry x="1150" y="389.36" width="406" height="240.64" as="geometry" />
        </mxCell>
        <mxCell id="-Ki9CwcrcDcazu1pOUVY-112" value="Webhook or public queue and return token confirming status (success/failure)" style="text;html=1;align=center;verticalAlign=middle;whiteSpace=wrap;rounded=0;" parent="1" vertex="1">
          <mxGeometry x="820" y="865" width="140" height="30" as="geometry" />
        </mxCell>
        <mxCell id="-Ki9CwcrcDcazu1pOUVY-114" value="&lt;span style=&quot;font-weight: normal;&quot;&gt;Reconsilation Service&lt;/span&gt;" style="rounded=1;whiteSpace=wrap;html=1;fontStyle=1" parent="1" vertex="1">
          <mxGeometry x="715" y="1120" width="120" height="60" as="geometry" />
        </mxCell>
        <mxCell id="-Ki9CwcrcDcazu1pOUVY-116" style="edgeStyle=orthogonalEdgeStyle;rounded=0;orthogonalLoop=1;jettySize=auto;html=1;" parent="1" source="-Ki9CwcrcDcazu1pOUVY-114" target="-Ki9CwcrcDcazu1pOUVY-106" edge="1">
          <mxGeometry relative="1" as="geometry" />
        </mxCell>
        <mxCell id="-Ki9CwcrcDcazu1pOUVY-117" value="&lt;span style=&quot;color: rgb(64, 64, 64); font-family: &amp;quot;SF Pro Display&amp;quot;, -apple-system, system-ui, &amp;quot;system-ui&amp;quot;, Inter, &amp;quot;Segoe UI&amp;quot;, Roboto, Helvetica, Arial, sans-serif, &amp;quot;Apple Color Emoji&amp;quot;, &amp;quot;Segoe UI Emoji&amp;quot;, &amp;quot;Segoe UI Symbol&amp;quot;; text-align: start; background-color: rgb(255, 255, 255);&quot;&gt;&lt;font style=&quot;font-size: 12px;&quot;&gt;Every night the PSP or banks send a settlement file to their clients. The settlement file contains the balance of the bank account, together with all the transactions that took place on this bank account during the day. The reconciliation system parses the settlement file and compares the details with the ledger system&lt;/font&gt;&lt;/span&gt;" style="text;html=1;align=center;verticalAlign=middle;whiteSpace=wrap;rounded=0;" parent="1" vertex="1">
          <mxGeometry x="760" y="1200" width="320" height="100" as="geometry" />
        </mxCell>
        <mxCell id="dV_AB-seOL8tdD8_W4cZ-52" value="7" style="edgeStyle=orthogonalEdgeStyle;rounded=0;orthogonalLoop=1;jettySize=auto;html=1;entryX=1;entryY=0.5;entryDx=0;entryDy=0;exitX=0;exitY=0.5;exitDx=0;exitDy=0;" parent="1" source="-Ki9CwcrcDcazu1pOUVY-53" target="dV_AB-seOL8tdD8_W4cZ-47" edge="1">
          <mxGeometry relative="1" as="geometry">
            <mxPoint x="510" y="1130" as="targetPoint" />
            <Array as="points">
              <mxPoint x="500" y="910" />
              <mxPoint x="500" y="1080" />
            </Array>
            <mxPoint x="530" y="910" as="sourcePoint" />
          </mxGeometry>
        </mxCell>
        <mxCell id="NAz6f2yrbp-KyvQjCLRv-6" value="7.a" style="edgeLabel;html=1;align=center;verticalAlign=middle;resizable=0;points=[];fontStyle=1" vertex="1" connectable="0" parent="dV_AB-seOL8tdD8_W4cZ-52">
          <mxGeometry x="-0.7009" y="-3" relative="1" as="geometry">
            <mxPoint as="offset" />
          </mxGeometry>
        </mxCell>
        <mxCell id="dV_AB-seOL8tdD8_W4cZ-1" value="Payment Service" style="rounded=1;whiteSpace=wrap;html=1;fontStyle=0" parent="1" vertex="1">
          <mxGeometry x="450" y="580" width="120" height="60" as="geometry" />
        </mxCell>
        <mxCell id="dV_AB-seOL8tdD8_W4cZ-31" style="edgeStyle=orthogonalEdgeStyle;rounded=0;orthogonalLoop=1;jettySize=auto;html=1;entryX=1;entryY=0.5;entryDx=0;entryDy=0;" parent="1" source="dV_AB-seOL8tdD8_W4cZ-3" target="dV_AB-seOL8tdD8_W4cZ-37" edge="1">
          <mxGeometry relative="1" as="geometry">
            <mxPoint x="-230" y="760" as="targetPoint" />
          </mxGeometry>
        </mxCell>
        <mxCell id="dV_AB-seOL8tdD8_W4cZ-3" value="FraudDetection Service" style="rounded=1;whiteSpace=wrap;html=1;fontStyle=0" parent="1" vertex="1">
          <mxGeometry x="10" y="700" width="120" height="60" as="geometry" />
        </mxCell>
        <mxCell id="dV_AB-seOL8tdD8_W4cZ-4" value="PaymentExecutor" style="rounded=1;whiteSpace=wrap;html=1;fontStyle=0" parent="1" vertex="1">
          <mxGeometry x="570" y="755" width="120" height="60" as="geometry" />
        </mxCell>
        <mxCell id="dV_AB-seOL8tdD8_W4cZ-5" value="" style="endArrow=classic;html=1;rounded=0;exitX=0;exitY=0;exitDx=185;exitDy=140;exitPerimeter=0;" parent="1" source="-Ki9CwcrcDcazu1pOUVY-59" target="-Ki9CwcrcDcazu1pOUVY-46" edge="1">
          <mxGeometry width="50" height="50" relative="1" as="geometry">
            <mxPoint x="630" y="640" as="sourcePoint" />
            <mxPoint x="680" y="590" as="targetPoint" />
          </mxGeometry>
        </mxCell>
        <mxCell id="dV_AB-seOL8tdD8_W4cZ-32" style="edgeStyle=orthogonalEdgeStyle;rounded=0;orthogonalLoop=1;jettySize=auto;html=1;" parent="1" source="dV_AB-seOL8tdD8_W4cZ-6" target="dV_AB-seOL8tdD8_W4cZ-29" edge="1">
          <mxGeometry relative="1" as="geometry" />
        </mxCell>
        <mxCell id="dV_AB-seOL8tdD8_W4cZ-6" value="&lt;span style=&quot;font-weight: normal;&quot;&gt;Wallet Service&lt;/span&gt;" style="rounded=1;whiteSpace=wrap;html=1;fontStyle=1" parent="1" vertex="1">
          <mxGeometry x="210" y="890" width="125" height="60" as="geometry" />
        </mxCell>
        <mxCell id="dV_AB-seOL8tdD8_W4cZ-55" style="edgeStyle=orthogonalEdgeStyle;rounded=0;orthogonalLoop=1;jettySize=auto;html=1;entryX=1;entryY=0.5;entryDx=0;entryDy=0;" parent="1" source="dV_AB-seOL8tdD8_W4cZ-7" target="-Ki9CwcrcDcazu1pOUVY-114" edge="1">
          <mxGeometry relative="1" as="geometry">
            <Array as="points">
              <mxPoint x="1340" y="1150" />
            </Array>
          </mxGeometry>
        </mxCell>
        <mxCell id="dV_AB-seOL8tdD8_W4cZ-7" value="PSP (Payment Service Provider)" style="rounded=1;whiteSpace=wrap;html=1;fontStyle=0" parent="1" vertex="1">
          <mxGeometry x="1285" y="810" width="120" height="60" as="geometry" />
        </mxCell>
        <mxCell id="dV_AB-seOL8tdD8_W4cZ-28" style="edgeStyle=orthogonalEdgeStyle;rounded=0;orthogonalLoop=1;jettySize=auto;html=1;" parent="1" source="dV_AB-seOL8tdD8_W4cZ-8" target="dV_AB-seOL8tdD8_W4cZ-27" edge="1">
          <mxGeometry relative="1" as="geometry" />
        </mxCell>
        <mxCell id="dV_AB-seOL8tdD8_W4cZ-8" value="&lt;span style=&quot;font-weight: normal;&quot;&gt;Notification Service&lt;/span&gt;" style="rounded=1;whiteSpace=wrap;html=1;fontStyle=1" parent="1" vertex="1">
          <mxGeometry x="555" y="1015" width="120" height="60" as="geometry" />
        </mxCell>
        <mxCell id="dV_AB-seOL8tdD8_W4cZ-9" value="&lt;span style=&quot;font-weight: normal;&quot;&gt;Email&lt;/span&gt;" style="rounded=1;whiteSpace=wrap;html=1;fontStyle=1" parent="1" vertex="1">
          <mxGeometry x="845" y="1070" width="55" height="30" as="geometry" />
        </mxCell>
        <mxCell id="dV_AB-seOL8tdD8_W4cZ-21" style="edgeStyle=orthogonalEdgeStyle;rounded=0;orthogonalLoop=1;jettySize=auto;html=1;" parent="1" source="dV_AB-seOL8tdD8_W4cZ-12" target="dV_AB-seOL8tdD8_W4cZ-16" edge="1">
          <mxGeometry relative="1" as="geometry" />
        </mxCell>
        <mxCell id="dV_AB-seOL8tdD8_W4cZ-12" value="&lt;span style=&quot;font-weight: normal;&quot;&gt;APP&lt;/span&gt;" style="rounded=1;whiteSpace=wrap;html=1;fontStyle=1" parent="1" vertex="1">
          <mxGeometry x="845" y="1015" width="55" height="30" as="geometry" />
        </mxCell>
        <mxCell id="dV_AB-seOL8tdD8_W4cZ-18" style="edgeStyle=orthogonalEdgeStyle;rounded=0;orthogonalLoop=1;jettySize=auto;html=1;" parent="1" source="dV_AB-seOL8tdD8_W4cZ-13" target="dV_AB-seOL8tdD8_W4cZ-16" edge="1">
          <mxGeometry relative="1" as="geometry" />
        </mxCell>
        <mxCell id="dV_AB-seOL8tdD8_W4cZ-13" value="&lt;span style=&quot;font-weight: normal;&quot;&gt;SMS&lt;/span&gt;" style="rounded=1;whiteSpace=wrap;html=1;fontStyle=1" parent="1" vertex="1">
          <mxGeometry x="845" y="945" width="55" height="40" as="geometry" />
        </mxCell>
        <mxCell id="dV_AB-seOL8tdD8_W4cZ-16" value="Buyer&lt;div&gt;&lt;br&gt;&lt;/div&gt;" style="shape=umlActor;verticalLabelPosition=bottom;verticalAlign=top;html=1;outlineConnect=0;" parent="1" vertex="1">
          <mxGeometry x="1125" y="980" width="30" height="60" as="geometry" />
        </mxCell>
        <mxCell id="dV_AB-seOL8tdD8_W4cZ-26" style="edgeStyle=orthogonalEdgeStyle;rounded=0;orthogonalLoop=1;jettySize=auto;html=1;entryX=0;entryY=0.3333333333333333;entryDx=0;entryDy=0;entryPerimeter=0;" parent="1" source="dV_AB-seOL8tdD8_W4cZ-9" target="dV_AB-seOL8tdD8_W4cZ-16" edge="1">
          <mxGeometry relative="1" as="geometry">
            <Array as="points">
              <mxPoint x="1013" y="1085" />
              <mxPoint x="1013" y="1010" />
              <mxPoint x="1125" y="1010" />
            </Array>
          </mxGeometry>
        </mxCell>
        <mxCell id="dV_AB-seOL8tdD8_W4cZ-27" value="Notification preference for Seller" style="shape=cylinder3;whiteSpace=wrap;html=1;boundedLbl=1;backgroundOutline=1;size=15;" parent="1" vertex="1">
          <mxGeometry x="650" y="1320" width="60" height="80" as="geometry" />
        </mxCell>
        <mxCell id="dV_AB-seOL8tdD8_W4cZ-29" value="Wallet DB seller balances" style="shape=cylinder3;whiteSpace=wrap;html=1;boundedLbl=1;backgroundOutline=1;size=15;" parent="1" vertex="1">
          <mxGeometry x="20" y="925" width="60" height="80" as="geometry" />
        </mxCell>
        <mxCell id="dV_AB-seOL8tdD8_W4cZ-33" value="" style="endArrow=classic;html=1;rounded=0;entryX=0.056;entryY=1.05;entryDx=0;entryDy=0;entryPerimeter=0;exitX=1;exitY=1;exitDx=0;exitDy=0;" parent="1" source="-Ki9CwcrcDcazu1pOUVY-103" target="-Ki9CwcrcDcazu1pOUVY-68" edge="1">
          <mxGeometry width="50" height="50" relative="1" as="geometry">
            <mxPoint x="10" y="1090" as="sourcePoint" />
            <mxPoint x="60" y="1040" as="targetPoint" />
          </mxGeometry>
        </mxCell>
        <mxCell id="dV_AB-seOL8tdD8_W4cZ-34" style="edgeStyle=orthogonalEdgeStyle;rounded=0;orthogonalLoop=1;jettySize=auto;html=1;entryX=0.433;entryY=0.975;entryDx=0;entryDy=0;entryPerimeter=0;" parent="1" source="dV_AB-seOL8tdD8_W4cZ-6" target="dV_AB-seOL8tdD8_W4cZ-37" edge="1">
          <mxGeometry relative="1" as="geometry">
            <mxPoint x="-260" y="815" as="targetPoint" />
          </mxGeometry>
        </mxCell>
        <mxCell id="dV_AB-seOL8tdD8_W4cZ-35" style="edgeStyle=orthogonalEdgeStyle;rounded=0;orthogonalLoop=1;jettySize=auto;html=1;entryX=0.6;entryY=0.975;entryDx=0;entryDy=0;entryPerimeter=0;" parent="1" source="dV_AB-seOL8tdD8_W4cZ-4" target="dV_AB-seOL8tdD8_W4cZ-37" edge="1">
          <mxGeometry relative="1" as="geometry">
            <mxPoint x="-238.69999999999982" y="810.6500000000001" as="targetPoint" />
            <Array as="points">
              <mxPoint x="630" y="860" />
              <mxPoint x="-239" y="860" />
            </Array>
          </mxGeometry>
        </mxCell>
        <mxCell id="dV_AB-seOL8tdD8_W4cZ-36" value="Transaction MySQL" style="shape=cylinder3;whiteSpace=wrap;html=1;boundedLbl=1;backgroundOutline=1;size=15;" parent="1" vertex="1">
          <mxGeometry x="-440" y="750" width="60" height="80" as="geometry" />
        </mxCell>
        <mxCell id="dV_AB-seOL8tdD8_W4cZ-37" value="Trans. Status Update service" style="rounded=0;whiteSpace=wrap;html=1;" parent="1" vertex="1">
          <mxGeometry x="-310" y="745" width="120" height="60" as="geometry" />
        </mxCell>
        <mxCell id="dV_AB-seOL8tdD8_W4cZ-39" style="edgeStyle=orthogonalEdgeStyle;rounded=0;orthogonalLoop=1;jettySize=auto;html=1;entryX=1;entryY=0;entryDx=0;entryDy=27.5;entryPerimeter=0;" parent="1" source="dV_AB-seOL8tdD8_W4cZ-37" target="dV_AB-seOL8tdD8_W4cZ-36" edge="1">
          <mxGeometry relative="1" as="geometry" />
        </mxCell>
        <mxCell id="dV_AB-seOL8tdD8_W4cZ-40" value="Trans. Status Update service" style="rounded=0;whiteSpace=wrap;html=1;" parent="1" vertex="1">
          <mxGeometry x="-300" y="755" width="120" height="60" as="geometry" />
        </mxCell>
        <mxCell id="dV_AB-seOL8tdD8_W4cZ-41" value="Transaction MySQL" style="shape=cylinder3;whiteSpace=wrap;html=1;boundedLbl=1;backgroundOutline=1;size=15;" parent="1" vertex="1">
          <mxGeometry x="-430" y="760" width="60" height="80" as="geometry" />
        </mxCell>
        <mxCell id="dV_AB-seOL8tdD8_W4cZ-42" value="Transaction MySQL" style="shape=cylinder3;whiteSpace=wrap;html=1;boundedLbl=1;backgroundOutline=1;size=15;" parent="1" vertex="1">
          <mxGeometry x="-560" y="745" width="60" height="80" as="geometry" />
        </mxCell>
        <mxCell id="dV_AB-seOL8tdD8_W4cZ-43" value="Transaction MySQL" style="shape=cylinder3;whiteSpace=wrap;html=1;boundedLbl=1;backgroundOutline=1;size=15;" parent="1" vertex="1">
          <mxGeometry x="-550" y="755" width="60" height="80" as="geometry" />
        </mxCell>
        <mxCell id="dV_AB-seOL8tdD8_W4cZ-44" value="Sharding for old data" style="text;html=1;align=center;verticalAlign=middle;whiteSpace=wrap;rounded=0;" parent="1" vertex="1">
          <mxGeometry x="-570" y="725" width="90" height="30" as="geometry" />
        </mxCell>
        <mxCell id="dV_AB-seOL8tdD8_W4cZ-45" value="Live for recent data" style="text;html=1;align=center;verticalAlign=middle;whiteSpace=wrap;rounded=0;" parent="1" vertex="1">
          <mxGeometry x="-445" y="730" width="90" height="30" as="geometry" />
        </mxCell>
        <mxCell id="dV_AB-seOL8tdD8_W4cZ-46" value="" style="endArrow=none;dashed=1;html=1;dashPattern=1 3;strokeWidth=2;rounded=0;exitX=0.833;exitY=0.563;exitDx=0;exitDy=0;exitPerimeter=0;" parent="1" source="dV_AB-seOL8tdD8_W4cZ-43" target="dV_AB-seOL8tdD8_W4cZ-41" edge="1">
          <mxGeometry width="50" height="50" relative="1" as="geometry">
            <mxPoint x="-480" y="850" as="sourcePoint" />
            <mxPoint x="-430" y="800" as="targetPoint" />
          </mxGeometry>
        </mxCell>
        <mxCell id="dV_AB-seOL8tdD8_W4cZ-47" value="&lt;span style=&quot;font-weight: normal;&quot;&gt;Ledger&lt;/span&gt;" style="rounded=1;whiteSpace=wrap;html=1;fontStyle=1" parent="1" vertex="1">
          <mxGeometry x="110" y="1050" width="120" height="60" as="geometry" />
        </mxCell>
        <mxCell id="dV_AB-seOL8tdD8_W4cZ-50" style="edgeStyle=orthogonalEdgeStyle;rounded=0;orthogonalLoop=1;jettySize=auto;html=1;" parent="1" source="dV_AB-seOL8tdD8_W4cZ-49" target="-Ki9CwcrcDcazu1pOUVY-106" edge="1">
          <mxGeometry relative="1" as="geometry" />
        </mxCell>
        <mxCell id="dV_AB-seOL8tdD8_W4cZ-49" value="Revenue Service" style="rounded=1;whiteSpace=wrap;html=1;fontStyle=0" parent="1" vertex="1">
          <mxGeometry x="15" y="1180" width="110" height="40" as="geometry" />
        </mxCell>
        <mxCell id="dV_AB-seOL8tdD8_W4cZ-51" value="Revenue Service" style="rounded=1;whiteSpace=wrap;html=1;fontStyle=0" parent="1" vertex="1">
          <mxGeometry x="25" y="1190" width="110" height="40" as="geometry" />
        </mxCell>
        <mxCell id="dV_AB-seOL8tdD8_W4cZ-53" value="&lt;span style=&quot;font-weight: normal;&quot;&gt;Reconsilation Service&lt;/span&gt;" style="rounded=1;whiteSpace=wrap;html=1;fontStyle=1" parent="1" vertex="1">
          <mxGeometry x="690" y="1130" width="120" height="60" as="geometry" />
        </mxCell>
        <mxCell id="NAz6f2yrbp-KyvQjCLRv-8" value="&lt;b&gt;All this is Synch. as user is waiting&lt;/b&gt;" style="text;html=1;align=center;verticalAlign=middle;whiteSpace=wrap;rounded=0;" vertex="1" parent="1">
          <mxGeometry x="230" y="620" width="120" height="30" as="geometry" />
        </mxCell>
      </root>
    </mxGraphModel>
  </diagram>
</mxfile>
